<?xml version="1.0" standalone="no"?>
<!DOCTYPE svg PUBLIC "-//W3C//DTD SVG 1.1//EN" "http://www.w3.org/Graphics/SVG/1.1/DTD/svg11.dtd" >
<svg>
<metadata>
Created by FontForge 20090914 at Sat Jun  8 10:06:26 2019
 By www-data
Copyright 2018 The Sarabun Project Authors (https://github.com/cadsondemak/Sarabun)
</metadata>
<defs>
<font id="Sarabun-Regular" horiz-adv-x="0" >
  <font-face 
    font-family="Sarabun"
    font-weight="400"
    font-stretch="normal"
    units-per-em="1000"
    panose-1="0 0 5 0 0 0 0 0 0 0"
    ascent="800"
    descent="-200"
    x-height="500"
    cap-height="700"
    bbox="-662 -535 1236 1265"
    underline-thickness="50"
    underline-position="-50"
    unicode-range="U+000D-U+FB02"
  />
<missing-glyph horiz-adv-x="700" 
d="M100 750h500v-750h-500v750zM556 41v668h-412v-668h412z" />
    <glyph glyph-name="fi" unicode="fi" horiz-adv-x="565" 
d="M91 438h-83.001v62h83v63c0 47.333 14.167 84.833 42.5 112.5s66.833 41.5 115.5 41.5c20 0 38.833 -3.16699 56.5 -9.5s31.834 -14.833 42.501 -25.5l-31 -53c-16.667 14.667 -37.667 22 -63 22c-24 0 -43 -8 -57 -24s-21 -38 -21 -66v-61h143v-62h-143v-438h-85v438z
M403.999 602c-10.667 10 -16 23.667 -16 41s5.33301 31.166 16 41.499s25.334 15.5 44.001 15.5s33.5 -5.16699 44.5 -15.5s16.5 -24.166 16.5 -41.499s-5.5 -31 -16.5 -41s-25.833 -15 -44.5 -15s-33.334 5 -44.001 15zM405.999 500h85v-500h-85v500z" />
    <glyph glyph-name="fl" unicode="fl" horiz-adv-x="615" 
d="M91 438h-83.001v62h83v63c0 47.333 14.167 84.833 42.5 112.5s66.833 41.5 115.5 41.5c20 0 38.833 -3.16699 56.5 -9.5s31.834 -14.833 42.501 -25.5l-31 -53c-16.667 14.667 -37.667 22 -63 22c-24 0 -43 -8 -57 -24s-21 -38 -21 -66v-61h143v-62h-143v-438h-85v438z
M395.999 117l-0.00292969 625h85v-624c0 -23.333 3.83301 -39.833 11.5 -49.5s20.834 -14.5 39.501 -14.5c14.667 0 31.334 4 50.001 12l13 -51c-25.333 -16.667 -55.666 -25 -90.999 -25c-72 0 -108 42.333 -108 127z" />
    <glyph glyph-name="uni0E240E45" unicode="&#xe24;&#xe45;" horiz-adv-x="880" 
d="M760 544c30.667 -28 46.001 -68.334 46.001 -121.001v-673h-85v671c0 31.333 -8.66699 55.166 -26 71.499s-42.333 24.5 -75 24.5c-34 0 -60.667 -11.5 -80 -34.5s-30.333 -55.833 -33 -98.5v-634h-84v626c0 42.667 -13 76.834 -39 102.501s-60.667 38.5 -104 38.5
c-36 0 -68 -8.16699 -96 -24.5s-47.333 -38.5 -58 -66.5c24 -2.66699 46.667 -8.66699 68 -18s37.666 -20 48.999 -32v-18c-25.333 -7.33301 -45.166 -20.166 -59.499 -38.499s-21.5 -39.833 -21.5 -64.5v-69c10 3.33301 19.667 5 29 5c30 0 54.333 -9.16699 73 -27.5
s28 -42.5 28 -72.5s-9.83301 -54.333 -29.5 -73s-45.167 -28 -76.5 -28c-32 0 -58.167 9.83301 -78.5 29.5s-30.5 45.167 -30.5 76.5v156c0 24.667 6.5 47 19.5 67s30.833 35 53.5 45c-26.667 9.33301 -62.334 15 -107.001 17c2.66699 40.667 14.5 76.5 35.5 107.5
s49.333 55 85 72s76.5 25.5 122.5 25.5c40 0 75.5 -7.16699 106.5 -21.5s56.167 -34.5 75.5 -60.5c17.333 26.667 39.5 47 66.5 61s57.833 21 92.5 21c58 0 102.333 -14 133 -42zM223.501 123.999c-9 8.66699 -20.167 13 -33.5 13c-14 0 -25.333 -4.33301 -34 -13
s-13 -19.667 -13 -33c0 -14 4.33301 -25.333 13 -34s20 -13 34 -13c13.333 0 24.5 4.33301 33.5 13s13.5 20 13.5 34c0 13.333 -4.5 24.333 -13.5 33z" />
    <glyph glyph-name="uni0E260E45" unicode="&#xe26;&#xe45;" horiz-adv-x="911" 
d="M791 544c30.667 -28 45.9951 -68.332 45.9951 -120.999v-673h-85v671c0 31.333 -8.66699 55.166 -26 71.499s-42.333 24.5 -75 24.5c-34 0 -60.667 -11.5 -80 -34.5s-30.333 -55.833 -33 -98.5v-634h-84v626c0 43.333 -12.667 77.666 -38 102.999s-59 38 -101 38
c-35.333 0 -66 -8 -92 -24s-44.333 -38.333 -55 -67c24.667 -2.66699 47.834 -8.66699 69.501 -18s38.167 -20 49.5 -32v-18c-22 -6 -39 -17.5 -51 -34.5s-18 -36.5 -18 -58.5c0 -14.667 3 -37.667 9 -69c8 -42.667 12 -75 12 -97c0 -32.667 -10.167 -59 -30.5 -79
s-46.833 -30 -79.5 -30c-31.333 0 -56.833 9.33301 -76.5 28s-29.5 43 -29.5 73s9.16699 54.667 27.5 74s42.5 29 72.5 29c7.33301 0 17 -1.33301 29 -4c-8 26 -12 50 -12 72s4.83301 42.333 14.5 61s22.834 32.334 39.501 41.001c-24.667 9.33301 -61 15 -109 17
c2.66699 40 13.834 75.5 33.501 106.5s46.834 55.167 81.501 72.5s75 26 121 26c40 0 75.333 -6.83301 106 -20.5s55.334 -33.167 74.001 -58.5c17.333 25.333 39.333 44.833 66 58.5s57 20.5 91 20.5c58 0 102.333 -14 133 -42zM159.495 58.501c9 9 13.5 20.167 13.5 33.5
s-4.5 24.5 -13.5 33.5s-20.167 13.5 -33.5 13.5s-24.5 -4.5 -33.5 -13.5s-13.5 -20.167 -13.5 -33.5s4.5 -24.5 13.5 -33.5s20.167 -13.5 33.5 -13.5s24.5 4.5 33.5 13.5z" />
    <glyph glyph-name=".notdef" horiz-adv-x="700" 
d="M100 750h500v-750h-500v750zM556 41v668h-412v-668h412z" />
    <glyph glyph-name="NULL" 
 />
    <glyph glyph-name="NULL" 
 />
    <glyph glyph-name="nonmarkingreturn" unicode="&#xd;" horiz-adv-x="243" 
 />
    <glyph glyph-name="space" unicode=" " horiz-adv-x="243" 
 />
    <glyph glyph-name="exclam" unicode="!" horiz-adv-x="237" 
d="M67 700h102l-12 -507h-78zM69 8c-12.667 12 -19 27.667 -19 47s6.33301 35.166 19 47.499s29 18.5 49 18.5c20.667 0 37.334 -6.16699 50.001 -18.5s19 -28.166 19 -47.499s-6.33301 -35 -19 -47s-29.334 -18 -50.001 -18c-20 0 -36.333 6 -49 18z" />
    <glyph glyph-name="quotedbl" unicode="&#x22;" horiz-adv-x="354" 
d="M50 710h92l-10 -247h-72zM212 710h92l-10 -247h-72z" />
    <glyph glyph-name="numbersign" unicode="#" horiz-adv-x="686" 
d="M545 431l-21 -163h89v-69h-97l-25 -199h-84l25 199h-206l-25 -199h-84l25 199h-89v69h97l21 163h-98v70h106l25 199h84l-25 -199h206l25 199h84l-25 -199h80v-70h-88zM461 431h-206l-21 -163h206z" />
    <glyph glyph-name="dollar" unicode="$" horiz-adv-x="529" 
d="M442 58c-31.333 -33.333 -73.667 -54.668 -127 -64.001v-74h-79v71c-40.667 3.33301 -78.334 14.5 -113.001 33.5s-63 43.833 -85 74.5l56 56c20.667 -26.667 46.667 -48.167 78 -64.5s62.333 -24.5 93 -24.5c39.333 0 71.166 10 95.499 30s36.5 46.333 36.5 79
c0 21.333 -4.16699 40 -12.5 56s-22.666 31.5 -42.999 46.5s-49.166 31.5 -86.499 49.5c-71.333 34.667 -121.5 67.5 -150.5 98.5s-43.5 67.167 -43.5 108.5c0 48 15.667 87.5 47 118.5s74 49.5 128 55.5v61h79v-62c36 -5.33301 68.167 -17.166 96.5 -35.499
s49.833 -41.166 64.5 -68.499l-60 -44c-16 23.333 -36.667 41.666 -62 54.999s-52 20 -80 20c-37.333 0 -66.833 -8.83301 -88.5 -26.5s-32.5 -41.5 -32.5 -71.5c0 -18 4 -33.333 12 -46s22.833 -25.834 44.5 -39.501s55.834 -32.167 102.501 -55.5
c63.333 -31.333 108.666 -63.5 135.999 -96.5s41 -71.833 41 -116.5c0 -49.333 -15.667 -90.666 -47 -123.999z" />
    <glyph glyph-name="percent" unicode="%" horiz-adv-x="903" 
d="M90 367.5c-28.667 36.333 -43 84.166 -43 143.499c0 60 14.333 108.167 43 144.5s67 54.5 115 54.5c47.333 0 85.5 -18.167 114.5 -54.5s43.5 -84.5 43.5 -144.5c0 -59.333 -14.5 -107.166 -43.5 -143.499s-67.167 -54.5 -114.5 -54.5c-48 0 -86.333 18.167 -115 54.5z
M617 700h93l-429 -713h-92zM264 414.5c14.667 24.333 22 56.5 22 96.5s-7.33301 72.167 -22 96.5s-34.334 36.5 -59.001 36.5c-25.333 0 -45.333 -12.167 -60 -36.5s-22 -56.5 -22 -96.5s7.33301 -72.167 22 -96.5s34.667 -36.5 60 -36.5
c24.667 0 44.334 12.167 59.001 36.5zM583 44.5c-28.667 36.333 -43 84.5 -43 144.5c0 59.333 14.333 107.166 43 143.499s67 54.5 115 54.5c47.333 0 85.5 -18.167 114.5 -54.5s43.5 -84.166 43.5 -143.499c0 -60 -14.5 -108.167 -43.5 -144.5s-67.167 -54.5 -114.5 -54.5
c-48 0 -86.333 18.167 -115 54.5zM757 92.5c14.667 24.333 22 56.5 22 96.5s-7.33301 72.167 -22 96.5s-34.334 36.5 -59.001 36.5c-25.333 0 -45.333 -12.167 -60 -36.5s-22 -56.5 -22 -96.5s7.33301 -72.167 22 -96.5s34.667 -36.5 60 -36.5
c24.667 0 44.334 12.167 59.001 36.5z" />
    <glyph glyph-name="ampersand" unicode="&#x26;" horiz-adv-x="668" 
d="M586 -10c-26 20.667 -55.668 45.668 -89.001 75.001c-29.333 -24 -62.166 -42.5 -98.499 -55.5s-75.166 -19.5 -116.499 -19.5c-48.667 0 -91.5 8.66699 -128.5 26s-65.5 41.666 -85.5 72.999s-30 67.333 -30 108c0 42 12.667 80.333 38 115s60.333 62.667 105 84
c-38.667 60 -58 113.667 -58 161c0 45.333 15.5 82.166 46.5 110.499s72.167 42.5 123.5 42.5c49.333 0 89.333 -13.5 120 -40.5s46 -62.833 46 -107.5c0 -79.333 -51.667 -145.666 -155 -198.999c2.66699 -2 6 -5.66699 10 -11c44.667 -52 103.667 -111 177 -177
c26.667 40 44 88 52 144h83c-8.66699 -76.667 -33.334 -142 -74.001 -196c24 -21.333 52.667 -45.333 86 -72zM231.499 617.001c-15.667 -15.333 -23.499 -35.667 -23.499 -61c0 -40 19.667 -88 59 -144c37.333 22 64.5 46.167 81.5 72.5s25.5 51.5 25.5 75.5
c0 24.667 -7.16699 44.167 -21.5 58.5s-33.5 21.5 -57.5 21.5c-26.667 0 -47.834 -7.66699 -63.501 -23zM439 117c-81.333 74.667 -146 139.667 -194 195l-23 28c-28.667 -16.667 -51 -37.167 -67 -61.5s-24 -50.5 -24 -78.5c0 -40 14.667 -72.5 44 -97.5
s68 -37.5 116 -37.5c58 0 107.333 17.333 148 52z" />
    <glyph glyph-name="quotesingle" unicode="'" horiz-adv-x="192" 
d="M50 710h92l-10 -247h-72z" />
    <glyph glyph-name="parenleft" unicode="(" horiz-adv-x="318" 
d="M79.5 109.5c-26.333 69.667 -39.5 147.83 -39.5 234.497s13.167 164.834 39.5 234.501s64.166 126.834 113.499 171.501h92c-49.333 -40 -87.5 -95.5 -114.5 -166.5s-40.5 -150.833 -40.5 -239.5s13.5 -168.5 40.5 -239.5s65.167 -126.5 114.5 -166.5h-92
c-49.333 44.667 -87.166 101.834 -113.499 171.501z" />
    <glyph glyph-name="parenright" unicode=")" horiz-adv-x="318" 
d="M147.5 104.5c27 71 40.5 150.837 40.5 239.504s-13.5 168.5 -40.5 239.5s-65.167 126.5 -114.5 166.5h92c49.333 -44.667 87.166 -101.834 113.499 -171.501s39.5 -147.834 39.5 -234.501s-13.167 -164.834 -39.5 -234.501s-64.166 -126.834 -113.499 -171.501h-92
c49.333 40 87.5 95.5 114.5 166.5z" />
    <glyph glyph-name="asterisk" unicode="*" horiz-adv-x="448" 
d="M88 395l92 119l-147 -9v70l147 -10l-92 120l69 39l67 -132l67 132l69 -39l-92 -120l147 10v-70l-147 9l92 -119l-69 -40l-67 132l-67 -132z" />
    <glyph glyph-name="plus" unicode="+" horiz-adv-x="607" 
d="M263 228h-212v68h212v228h80v-228h213v-68h-213v-228h-80v228z" />
    <glyph glyph-name="comma" unicode="," horiz-adv-x="252" 
d="M179 101c12.667 -15.333 18.998 -37 18.998 -65c0 -35.333 -9.5 -72.666 -28.5 -111.999s-44.167 -72 -75.5 -98l-36 41c16 16 30.167 35.167 42.5 57.5s20.833 45.166 25.5 68.499c-2.66699 -0.666992 -7 -1 -13 -1c-15.333 0 -28.166 5.83301 -38.499 17.5
s-15.5 26.5 -15.5 44.5c0 20.667 6.33301 37.5 19 50.5s29.334 19.5 50.001 19.5c21.333 0 38.333 -7.66699 51 -23z" />
    <glyph glyph-name="hyphen" unicode="-" horiz-adv-x="340" 
d="M33 297h274v-62h-274v62z" />
    <glyph glyph-name="period" unicode="." horiz-adv-x="252" 
d="M81 8.5c-11.333 12.333 -17 28.166 -17 47.499s5.66699 35 17 47s26.333 18 45 18s33.667 -6 45 -18s17 -27.667 17 -47s-5.66699 -35.166 -17 -47.499s-26.333 -18.5 -45 -18.5s-33.667 6.16699 -45 18.5z" />
    <glyph glyph-name="slash" unicode="/" horiz-adv-x="415" 
d="M356 725h83l-380 -768h-83z" />
    <glyph glyph-name="zero" unicode="0" horiz-adv-x="550" 
d="M99 81.5c-40.667 61 -61 150.5 -61 268.5s20.333 207.5 61 268.5s99.334 91.5 176.001 91.5s135.334 -30.5 176.001 -91.5s61 -150.5 61 -268.5s-20.333 -207.5 -61 -268.5s-99.334 -91.5 -176.001 -91.5s-135.334 30.5 -176.001 91.5zM383 133
c24.667 48.667 37 121 37 217s-12.333 168.333 -37 217s-60.667 73 -108 73s-83.333 -24.333 -108 -73s-37 -121 -37 -217s12.333 -168.333 37 -217s60.667 -73 108 -73s83.333 24.333 108 73z" />
    <glyph glyph-name="one" unicode="1" horiz-adv-x="550" 
d="M129 73h120v519l-138 -81v84l171 105h59v-627h119v-73h-331v73z" />
    <glyph glyph-name="two" unicode="2" horiz-adv-x="550" 
d="M64 79c48 34.667 95.834 76.167 143.501 124.5s88.167 99.833 121.5 154.5s50 106.334 50 155.001c0 37.333 -10.667 66.833 -32 88.5s-50.333 32.5 -87 32.5c-33.333 0 -64.833 -8 -94.5 -24s-53.167 -37.333 -70.5 -64l-49 55c20.667 34 50.167 60.667 88.5 80
s80.5 29 126.5 29c65.333 0 117 -17.5 155 -52.5s57 -82.167 57 -141.5c0 -70.667 -27.833 -144.334 -83.5 -221.001s-123.834 -150.667 -204.501 -222h319v-73h-440v79z" />
    <glyph glyph-name="three" unicode="3" horiz-adv-x="550" 
d="M135.5 17.5c-39 18.333 -67.832 43.499 -86.499 75.499l46 54c17.333 -24.667 41.5 -44.334 72.5 -59.001s63.5 -22 97.5 -22c44 0 79.167 12 105.5 36s39.5 55 39.5 93c0 42 -16.5 75 -49.5 99s-78.167 36 -135.5 36h-36v73h35c48.667 0 87.667 12.167 117 36.5
s44 55.833 44 94.5c0 32 -10.333 56.667 -31 74s-49.667 26 -87 26c-34 0 -65.667 -7.16699 -95 -21.5s-53 -34.166 -71 -59.499l-45 54c21.333 32 51.5 57.167 90.5 75.5s81.833 27.5 128.5 27.5c60.667 0 109.5 -15.167 146.5 -45.5s55.5 -70.5 55.5 -120.5
c0 -39.333 -11.833 -74.5 -35.5 -105.5s-56.5 -53.833 -98.5 -68.5c51.333 -11.333 90.833 -32.5 118.5 -63.5s41.5 -69.5 41.5 -115.5c0 -39.333 -9.66699 -74.166 -29 -104.499s-46.833 -54 -82.5 -71s-76.834 -25.5 -123.501 -25.5c-49.333 0 -93.5 9.16699 -132.5 27.5z
" />
    <glyph glyph-name="four" unicode="4" horiz-adv-x="550" 
d="M350 120h-321v78l301 502h112v-504h79v-76h-79v-120h-92v120zM350 196v397l-237 -397h237z" />
    <glyph glyph-name="five" unicode="5" horiz-adv-x="550" 
d="M133.5 18c-39 18.667 -68.5 43.666 -88.5 74.999l44 59c19.333 -27.333 43.833 -48.5 73.5 -63.5s61.834 -22.5 96.501 -22.5c46.667 0 83.5 14.833 110.5 44.5s40.5 69.834 40.5 120.501c0 48.667 -12.333 87.167 -37 115.5s-58 42.5 -100 42.5
c-26 0 -50.5 -6.16699 -73.5 -18.5s-40.833 -28.833 -53.5 -49.5h-77l33 379h379v-76h-296l-18 -204c13.333 12.667 31.833 22.667 55.5 30s48.167 11 73.5 11c63.333 0 114 -20.667 152 -62s57 -96.666 57 -165.999c0 -48.667 -10 -91.334 -30 -128.001
s-48.333 -65 -85 -85s-79.334 -30 -128.001 -30c-46.667 0 -89.5 9.33301 -128.5 28z" />
    <glyph glyph-name="six" unicode="6" horiz-adv-x="550" 
d="M156 23c-35.333 22 -62.665 53.001 -81.998 93.001s-29 86.333 -29 139c0 73.333 17.667 143 53 209s83.666 121.167 144.999 165.5s128.666 71.833 201.999 82.5l9 -71c-64.667 -14.667 -123 -43.5 -175 -86.5s-88.333 -93.833 -109 -152.5
c10 13.333 25.667 24.5 47 33.5s45 13.5 71 13.5c45.333 0 84.5 -10 117.5 -30s58 -47.333 75 -82s25.5 -74 25.5 -118s-9.16699 -83.333 -27.5 -118s-44.333 -61.834 -78 -81.501s-73.5 -29.5 -119.5 -29.5c-48 0 -89.667 11 -125 33zM379.001 107.501
c24.667 27.667 37 65.167 37 112.5c0 46.667 -12.333 83.834 -37 111.501s-58 41.5 -100 41.5c-41.333 0 -74.5 -13.833 -99.5 -41.5s-37.5 -64.834 -37.5 -111.501s12.5 -84 37.5 -112s58.167 -42 99.5 -42c42 0 75.333 13.833 100 41.5z" />
    <glyph glyph-name="seven" unicode="7" horiz-adv-x="550" 
d="M206.5 221.5c11.667 67 32.167 134.5 61.5 202.5s70.666 134.667 123.999 200h-339v76h445v-74c-71.333 -78 -125.666 -169.667 -162.999 -275s-56 -222.333 -56 -351h-93c2 80.667 8.83301 154.5 20.5 221.5z" />
    <glyph glyph-name="eight" unicode="8" horiz-adv-x="550" 
d="M102.5 43.5c-41.667 35.667 -62.5 84.834 -62.5 147.501c0 41.333 10 78 30 110s48.667 56 86 72c-28 12 -50.333 32.5 -67 61.5s-25 60.833 -25 95.5c0 54.667 19.167 98.334 57.5 131.001s89.5 49 153.5 49s115.167 -16.333 153.5 -49s57.5 -76.334 57.5 -131.001
c0 -34.667 -8.33301 -66.5 -25 -95.5s-39 -49.5 -67 -61.5c37.333 -16 66 -40 86 -72s30 -68.667 30 -110c0 -62.667 -20.833 -111.834 -62.5 -147.501s-99.167 -53.5 -172.5 -53.5s-130.833 17.833 -172.5 53.5zM362 438c21.333 20.667 32 48.334 32 83.001
c0 34 -10.667 61.333 -32 82s-50.333 31 -87 31s-65.667 -10.333 -87 -31s-32 -48 -32 -82c0 -34.667 10.667 -62.334 32 -83.001s50.333 -31 87 -31s65.667 10.333 87 31zM380 102.5c25.333 24.333 38 57.833 38 100.5s-12.667 75.834 -38 99.501s-60.333 35.5 -105 35.5
s-79.667 -11.833 -105 -35.5s-38 -56.834 -38 -99.501s12.667 -76.167 38 -100.5s60.333 -36.5 105 -36.5s79.667 12.167 105 36.5z" />
    <glyph glyph-name="nine" unicode="9" horiz-adv-x="550" 
d="M97 59c68.667 15.333 129.834 44.8311 183.501 88.498s88.5 93.834 104.5 150.501c-11.333 -13.333 -28 -24.5 -50 -33.5s-46 -13.5 -72 -13.5c-44.667 0 -83.5 10 -116.5 30s-58.167 47.5 -75.5 82.5s-26 74.167 -26 117.5c0 44 9.16699 83.333 27.5 118
s44.333 61.834 78 81.501s73.5 29.5 119.5 29.5c48 0 89.667 -11 125 -33s62.666 -53.333 81.999 -94s29 -88 29 -142c0 -77.333 -17 -148.333 -51 -213s-81 -118 -141 -160s-128 -68.667 -204 -80zM371 365.998c25.333 28.667 38.001 66.667 38.001 114
c0 46.667 -12.5 84 -37.5 112s-58.5 42 -100.5 42c-41.333 0 -74.333 -14 -99 -42s-37 -65.333 -37 -112c0 -48 12.167 -86.167 36.5 -114.5s57.166 -42.5 98.499 -42.5c42 0 75.667 14.333 101 43z" />
    <glyph glyph-name="colon" unicode=":" horiz-adv-x="252" 
d="M81.5 366.5c-11.667 12.333 -17.5 27.833 -17.5 46.5s5.83301 34.167 17.5 46.5s26.5 18.5 44.5 18.5s32.833 -6.16699 44.5 -18.5s17.5 -27.833 17.5 -46.5s-5.83301 -34.167 -17.5 -46.5s-26.5 -18.5 -44.5 -18.5s-32.833 6.16699 -44.5 18.5zM81.5 7.5
c-11.667 12.333 -17.5 27.833 -17.5 46.5c0 19.333 5.83301 35.166 17.5 47.499s26.5 18.5 44.5 18.5s32.833 -6.16699 44.5 -18.5s17.5 -28.166 17.5 -47.499c0 -18.667 -5.83301 -34.167 -17.5 -46.5s-26.5 -18.5 -44.5 -18.5s-32.833 6.16699 -44.5 18.5z" />
    <glyph glyph-name="semicolon" unicode=";" horiz-adv-x="252" 
d="M81.5 366.5c-11.667 12.333 -17.5 27.833 -17.5 46.5s5.83301 34.167 17.5 46.5s26.5 18.5 44.5 18.5s32.833 -6.16699 44.5 -18.5s17.5 -27.833 17.5 -46.5s-5.83301 -34.167 -17.5 -46.5s-26.5 -18.5 -44.5 -18.5s-32.833 6.16699 -44.5 18.5zM180 101
c12.667 -15.333 18.998 -37 18.998 -65c0 -35.333 -9.5 -72.666 -28.5 -111.999s-44.167 -72 -75.5 -98l-36 41c16 16 30.167 35.167 42.5 57.5s20.833 45.166 25.5 68.499c-2.66699 -0.666992 -7 -1 -13 -1c-15.333 0 -28.166 5.83301 -38.499 17.5s-15.5 26.5 -15.5 44.5
c0 20.667 6.33301 37.5 19 50.5s29.334 19.5 50.001 19.5c21.333 0 38.333 -7.66699 51 -23z" />
    <glyph glyph-name="less" unicode="&#x3c;" horiz-adv-x="607" 
d="M60 260v44l486 261v-75l-383 -208l383 -207v-75z" />
    <glyph glyph-name="equal" unicode="=" horiz-adv-x="607" 
d="M66 398h475v-70h-475v70zM66 195h475v-70h-475v70z" />
    <glyph glyph-name="greater" unicode="&#x3e;" horiz-adv-x="607" 
d="M60 75l383 207l-383 208v75l486 -261v-44l-486 -260v75z" />
    <glyph glyph-name="question" unicode="?" horiz-adv-x="454" 
d="M179 210c0 28.667 6.66504 55 19.998 79s33 53.333 59 88c24.667 32.667 42.834 59.667 54.501 81s17.5 44 17.5 68c0 75.333 -38 113 -114 113c-27.333 0 -52.833 -7.33301 -76.5 -22s-43.167 -35 -58.5 -61l-48 54c19.333 31.333 45.5 55.666 78.5 72.999
s70.833 26 113.5 26c62 0 110 -15.667 144 -47s51 -74.666 51 -129.999c0 -29.333 -6.66699 -55.666 -20 -78.999s-33.666 -52.333 -60.999 -87c-26.667 -32 -46.667 -59.5 -60 -82.5s-20 -48.833 -20 -77.5c0 -18 1.33301 -32 4 -42h-78c-4 13.333 -6 28.666 -6 45.999z
M180.498 7c-11.667 11.333 -17.5 26.333 -17.5 45s5.83301 33.667 17.5 45s27.167 17 46.5 17s34.833 -5.66699 46.5 -17s17.5 -26.333 17.5 -45s-5.83301 -33.667 -17.5 -45s-27.167 -17 -46.5 -17s-34.833 5.66699 -46.5 17z" />
    <glyph glyph-name="at" unicode="@" horiz-adv-x="795" 
d="M197.5 -101.5c-51.667 29.667 -91.8311 70.998 -120.498 123.998s-43 113.5 -43 181.5c0 76 16.167 143.5 48.5 202.5s77.5 105 135.5 138s124 49.5 198 49.5c66 0 124.833 -13.833 176.5 -41.5s92 -66.167 121 -115.5s43.5 -105.666 43.5 -168.999
c0 -46.667 -8 -88.667 -24 -126s-38.333 -67 -67 -89s-61.334 -34 -98.001 -36l-39 -2l-20 64c-16.667 -20.667 -38.667 -37.667 -66 -51s-54 -20 -80 -20c-43.333 0 -78.5 12.667 -105.5 38s-40.5 58.333 -40.5 99c0 42 16.333 76.333 49 103s75 40 127 40h101v23
c0 27.333 -8.83301 49.5 -26.5 66.5s-40.834 25.5 -69.501 25.5c-24.667 0 -49 -6 -73 -18s-42.667 -27.667 -56 -47l-36 39c17.333 23.333 41.333 42.5 72 57.5s62 22.5 94 22.5c47.333 0 85.666 -15 114.999 -45s44 -69 44 -117v-155c0 -23.333 3.66699 -45.333 11 -66
c35.333 4.66699 64.333 24.5 87 59.5s34 78.5 34 130.5s-11.5 98.167 -34.5 138.5s-55.333 71.833 -97 94.5s-89.167 34 -142.5 34c-60 0 -113.5 -13.833 -160.5 -41.5s-83.5 -66.167 -109.5 -115.5s-39 -105.666 -39 -168.999c0 -56 11.667 -105.833 35 -149.5
s55.833 -77.667 97.5 -102s89.167 -36.5 142.5 -36.5c30.667 0 61.334 3.83301 92.001 11.5s55 17.5 73 29.5l26 -52c-22 -15.333 -51.5 -27.833 -88.5 -37.5s-73.833 -14.5 -110.5 -14.5c-66 0 -124.833 14.833 -176.5 44.5zM428.503 75.998c19 10 34.668 22.5 47.001 37.5
s18.5 29.167 18.5 42.5v82h-96c-35.333 0 -63.333 -8.33301 -84 -25s-31 -39 -31 -67c0 -27.333 8.66699 -48.333 26 -63s37.666 -22 60.999 -22c20 0 39.5 5 58.5 15z" />
    <glyph glyph-name="A" unicode="A" horiz-adv-x="596" 
d="M434 151h-272l-47 -151h-98l238 700h86l238 -700h-98zM410 226l-112 359l-112 -359h224z" />
    <glyph glyph-name="B" unicode="B" horiz-adv-x="589" 
d="M81 700l185 0.000976562c82.667 0 144.167 -13.833 184.5 -41.5s60.5 -69.834 60.5 -126.501c0 -39.333 -8.66699 -71.666 -26 -96.999s-44.333 -45 -81 -59v-3c46.667 -12.667 80.834 -32.834 102.501 -60.501s32.5 -65.167 32.5 -112.5
c0 -67.333 -19.333 -117.5 -58 -150.5s-97.334 -49.5 -176.001 -49.5h-224v700zM289 405.001c42.667 0 75 10.168 97 30.501s33 50.166 33 89.499c0 35.333 -12 61 -36 77s-62 24 -114 24h-96v-221h116zM308 74.002c93.333 0 140 42.667 140 128
c0 46 -14.5 79.667 -43.5 101s-74.833 32 -137.5 32h-94v-261h135z" />
    <glyph glyph-name="C" unicode="C" horiz-adv-x="585" 
d="M176 34c-45.333 29.333 -80.335 70.999 -105.002 124.999s-37 117.667 -37 191s12.5 137 37.5 191s60.5 95.667 106.5 125s100 44 162 44c49.333 0 93.333 -9.66699 132 -29s67.334 -46 86.001 -80l-52 -51c-36.667 56 -91.667 84 -165 84
c-67.333 0 -119.833 -24.833 -157.5 -74.5s-56.5 -119.5 -56.5 -209.5c0 -89.333 18.5 -159 55.5 -209s88.167 -75 153.5 -75c40 0 73.833 6.83301 101.5 20.5s50.5 34.834 68.5 63.501l52 -51c-19.333 -34.667 -48.333 -61.5 -87 -80.5s-83.667 -28.5 -135 -28.5
c-61.333 0 -114.666 14.667 -159.999 44z" />
    <glyph glyph-name="D" unicode="D" horiz-adv-x="623" 
d="M81 700l222.001 0.000976562c91.333 0 160.166 -28.333 206.499 -85s69.5 -140.334 69.5 -251.001c0 -86.667 -10.333 -156.5 -31 -209.5s-53.167 -92 -97.5 -117s-102.833 -37.5 -175.5 -37.5h-194v700zM291.001 76.001c68 0 117.667 23 149 69s47 119 47 219
c0 88.667 -15.333 154.167 -46 196.5s-78 63.5 -142 63.5h-126v-548h118z" />
    <glyph glyph-name="E" unicode="E" horiz-adv-x="552" 
d="M81 700h420v-76h-328v-218h293v-76h-293v-254h328v-76h-420v700z" />
    <glyph glyph-name="F" unicode="F" horiz-adv-x="550" 
d="M81 700h425v-76h-333v-246h311v-76h-311v-302h-92v700z" />
    <glyph glyph-name="G" unicode="G" horiz-adv-x="636" 
d="M575 362v-362h-62l-15 44c-22 -17.333 -47.833 -30.666 -77.5 -39.999s-61.167 -14 -94.5 -14c-60 0 -112 14.5 -156 43.5s-77.667 70.5 -101 124.5s-35 118 -35 192c0 72.667 12.5 136 37.5 190s60.333 95.833 106 125.5s99.167 44.5 160.5 44.5
c52 0 98 -9.66699 138 -29s69.333 -46 88 -80l-51 -51c-17.333 27.333 -40.833 48.166 -70.5 62.499s-64.167 21.5 -103.5 21.5c-66.667 0 -118.667 -25 -156 -75s-56 -119.667 -56 -209c0 -90.667 18.167 -161.334 54.5 -212.001s87.166 -76 152.499 -76
c30.667 0 58.834 4.33301 84.501 13s47.5 21.334 65.5 38.001v181h-167v68h258z" />
    <glyph glyph-name="H" unicode="H" horiz-adv-x="678" 
d="M80 700h92v-308h334v308h92v-700h-92v316h-334v-316h-92v700z" />
    <glyph glyph-name="I" unicode="I" horiz-adv-x="292" 
d="M100 700h92v-700h-92v700z" />
    <glyph glyph-name="J" unicode="J" horiz-adv-x="440" 
d="M74.5 4.5c-27.667 9.66699 -50.166 22.168 -67.499 37.501l35 66c13.333 -12.667 30.5 -22.834 51.5 -30.501s41.833 -11.5 62.5 -11.5c39.333 0 67.833 13.5 85.5 40.5s26.5 71.167 26.5 132.5v461h92v-477c0 -80.667 -16 -139.667 -48 -177s-83 -56 -153 -56
c-28.667 0 -56.834 4.83301 -84.501 14.5z" />
    <glyph glyph-name="K" unicode="K" horiz-adv-x="605" 
d="M495 0l-223 349l-100 -120v-229h-92v700h92v-347l285 347h107l-231 -278l262 -422h-100z" />
    <glyph glyph-name="L" unicode="L" horiz-adv-x="548" 
d="M80 700h92v-624h338v-76h-430v700z" />
    <glyph glyph-name="M" unicode="M" horiz-adv-x="798" 
d="M717 700v-700h-90v530l-196 -530h-64l-196 530v-530h-90v700h106l212 -584l212 584h106z" />
    <glyph glyph-name="N" unicode="N" horiz-adv-x="682" 
d="M602 700v-700h-91l-339 554v-554h-92v700h97l333 -547v547h92z" />
    <glyph glyph-name="O" unicode="O" horiz-adv-x="661" 
d="M173 33.5c-44.667 29 -79 70.667 -103 125s-36 118.166 -36 191.499s12 137.166 36 191.499s58.333 96 103 125s97.334 43.5 158.001 43.5s113.167 -14.5 157.5 -43.5s78.5 -70.667 102.5 -125s36 -118.166 36 -191.499s-12 -137.166 -36 -191.499
s-58.167 -96 -102.5 -125s-96.833 -43.5 -157.5 -43.5s-113.334 14.5 -158.001 43.5zM439.5 99c31 23.333 54.667 56.5 71 99.5s24.5 93.5 24.5 151.5s-8.16699 108.5 -24.5 151.5s-40 76.167 -71 99.5s-67.167 35 -108.5 35c-42 0 -78.333 -11.667 -109 -35
s-54.334 -56.5 -71.001 -99.5s-25 -93.5 -25 -151.5s8.33301 -108.5 25 -151.5s40.334 -76.167 71.001 -99.5s67 -35 109 -35c41.333 0 77.5 11.667 108.5 35z" />
    <glyph glyph-name="P" unicode="P" horiz-adv-x="573" 
d="M81 700h205.999c77.333 0 135.833 -18 175.5 -54s59.5 -88.667 59.5 -158c0 -73.333 -20.667 -129.5 -62 -168.5s-100.666 -58.5 -177.999 -58.5h-109v-261h-92v700zM293.999 337c44.667 0 79.167 12.667 103.5 38s36.5 61.333 36.5 108c0 46 -12.667 81 -38 105
s-62 36 -110 36h-113v-287h121z" />
    <glyph glyph-name="Q" unicode="Q" horiz-adv-x="661" 
d="M569 117c-38.667 -61.333 -92.335 -100.667 -161.002 -118c51.333 -20 118.333 -35 201 -45l-15 -65c-54.667 6 -109.167 18.5 -163.5 37.5s-102.166 41.167 -143.499 66.5c-78.667 10 -140.5 46.5 -185.5 109.5s-67.5 145.5 -67.5 247.5c0 73.333 12 137.166 36 191.499
s58.333 96 103 125s97.334 43.5 158.001 43.5s113.167 -14.5 157.5 -43.5s78.5 -70.667 102.5 -125s36 -118.166 36 -191.499c0 -94 -19.333 -171.667 -58 -233zM150.999 198.499c16.667 -43 40.334 -76.167 71.001 -99.5s67 -35 109 -35c41.333 0 77.5 11.667 108.5 35
s54.667 56.5 71 99.5s24.5 93.5 24.5 151.5s-8.16699 108.5 -24.5 151.5s-40 76.167 -71 99.5s-67.167 35 -108.5 35c-42 0 -78.333 -11.667 -109 -35s-54.334 -56.5 -71.001 -99.5s-25 -93.5 -25 -151.5s8.33301 -108.5 25 -151.5z" />
    <glyph glyph-name="R" unicode="R" horiz-adv-x="581" 
d="M81 700l214.999 -0.00195312c76 0 132.667 -15.5 170 -46.5s56 -77.833 56 -140.5c0 -46.667 -11.667 -86.167 -35 -118.5s-55.666 -54.166 -96.999 -65.499v-2c14 -9.33301 25.333 -19.166 34 -29.499s16 -22.833 22 -37.5l105 -260h-99l-88 226
c-11.333 29.333 -25 49 -41 59s-41 15 -75 15h-75v-300h-92v700zM290.999 374.998c95.333 0 143 44.001 143 132.001c0 39.333 -12 68.666 -36 87.999s-60.667 29 -110 29h-115v-249h118z" />
    <glyph glyph-name="S" unicode="S" horiz-adv-x="529" 
d="M133.5 19c-39.667 19.333 -71.502 46.002 -95.502 80.002l56 56c20.667 -26.667 46.667 -48.167 78 -64.5s62.333 -24.5 93 -24.5c39.333 0 71.166 10 95.499 30s36.5 46.333 36.5 79c0 21.333 -4.16699 40 -12.5 56s-22.666 31.5 -42.999 46.5
s-49.166 31.5 -86.499 49.5c-71.333 34.667 -121.5 67.5 -150.5 98.5s-43.5 67.167 -43.5 108.5c0 53.333 19.333 96 58 128s90 48 154 48c44.667 0 85.5 -9.66699 122.5 -29s63.833 -45.333 80.5 -78l-60 -44c-16 23.333 -36.667 41.666 -62 54.999s-52 20 -80 20
c-37.333 0 -66.833 -8.83301 -88.5 -26.5s-32.5 -41.5 -32.5 -71.5c0 -18 4 -33.333 12 -46s22.833 -25.834 44.5 -39.501s55.834 -32.167 102.501 -55.5c63.333 -31.333 108.666 -63.5 135.999 -96.5s41 -71.833 41 -116.5c0 -38 -9.5 -71.5 -28.5 -100.5
s-45.667 -51.5 -80 -67.5s-74.166 -24 -119.499 -24s-87.833 9.66699 -127.5 29z" />
    <glyph glyph-name="T" unicode="T" horiz-adv-x="558" 
d="M233 628h-216v72h523v-72h-215v-628h-92v628z" />
    <glyph glyph-name="U" unicode="U" horiz-adv-x="657" 
d="M140.5 61.5c-42.333 47.667 -63.501 118.5 -63.501 212.5v426h93v-424c0 -140 53 -210 159 -210s159 70 159 210v424h92v-426c0 -93.333 -21.167 -164 -63.5 -212s-104.833 -72 -187.5 -72c-83.333 0 -146.166 23.833 -188.499 71.5z" />
    <glyph glyph-name="V" unicode="V" horiz-adv-x="602" 
d="M585 700l-239 -700h-90l-239 700h98l186 -578l186 578h98z" />
    <glyph glyph-name="W" unicode="W" horiz-adv-x="831" 
d="M803 700l-145 -700h-91l-151 574l-152 -574h-91l-146 700h99l98 -559l145 559h93l144 -557l98 557h99z" />
    <glyph glyph-name="X" unicode="X" horiz-adv-x="605" 
d="M249 359l-205 341h106l153 -274l152 274h107l-206 -341l215 -359h-104l-164 285l-164 -285h-105z" />
    <glyph glyph-name="Y" unicode="Y" horiz-adv-x="573" 
d="M240 278l-223 422h102l167 -334l167 334h102l-222 -422v-278h-93v278z" />
    <glyph glyph-name="Z" unicode="Z" horiz-adv-x="567" 
d="M34 51l372 573h-343v76h457v-53l-371 -571h384v-76h-499v51z" />
    <glyph glyph-name="bracketleft" unicode="[" horiz-adv-x="308" 
d="M60 700h221v-66h-131v-679h131v-66h-221v811z" />
    <glyph glyph-name="backslash" unicode="\" horiz-adv-x="382" 
d="M-24 725h83l380 -768h-83z" />
    <glyph glyph-name="bracketright" unicode="]" horiz-adv-x="308" 
d="M27 -45h131v679h-131v66h221v-811h-221v66z" />
    <glyph glyph-name="asciicircum" unicode="^" horiz-adv-x="585" 
d="M256 700h74l212 -474h-83l-166 383l-166 -383h-84z" />
    <glyph glyph-name="underscore" unicode="_" horiz-adv-x="323" 
d="M0 -223h323v-66h-323v66z" />
    <glyph glyph-name="grave" unicode="`" horiz-adv-x="400" 
d="M95 705h86l82 -151h-68z" />
    <glyph glyph-name="a" unicode="a" horiz-adv-x="514" 
d="M87 33c-31.333 28.667 -47.0029 65.667 -47.0029 111c0 50 18.833 88.667 56.5 116s91.167 41 160.5 41h103v26c0 37.333 -9.83301 65.833 -29.5 85.5s-48.167 29.5 -85.5 29.5c-30 0 -57.5 -6.16699 -82.5 -18.5s-45.833 -30.166 -62.5 -53.499l-43 52
c22.667 28.667 50.334 50.5 83.001 65.5s69 22.5 109 22.5c62.667 0 111 -15.333 145 -46s51 -74.667 51 -132v-235c0 -26 4 -58.333 12 -97h-74c-6 15.333 -10.333 38.666 -13 69.999h-2c-18.667 -26 -41.667 -45.833 -69 -59.5s-57.666 -20.5 -90.999 -20.5
c-49.333 0 -89.666 14.333 -120.999 43zM290.997 71.5c21.333 9.66699 38.168 22.835 50.501 39.502s18.5 35 18.5 55v74h-106c-42 0 -74.333 -8.33301 -97 -25s-34 -40.334 -34 -71.001c0 -26.667 8.83301 -47.834 26.5 -63.501s41.5 -23.5 71.5 -23.5
c25.333 0 48.666 4.83301 69.999 14.5z" />
    <glyph glyph-name="b" unicode="b" horiz-adv-x="542" 
d="M207 14.5c-29.333 16.333 -51.332 37.832 -65.999 64.499h-2c0.666992 -21.333 0 -47.666 -2 -78.999h-78c2 22 3 64 3 126v616h85v-309h2c33.333 51.333 83.666 77 150.999 77c64 0 114.667 -22.5 152 -67.5s56 -106.167 56 -183.5c0 -83.333 -18.833 -149 -56.5 -197
s-88.834 -72 -153.501 -72c-31.333 0 -61.666 8.16699 -90.999 24.5zM386.501 110.999c24.333 35.333 36.5 84 36.5 146c0 59.333 -12.167 105.5 -36.5 138.5s-57.833 49.5 -100.5 49.5c-41.333 0 -74.833 -14.167 -100.5 -42.5s-38.5 -65.5 -38.5 -111.5v-91
c0 -43.333 12.5 -77.833 37.5 -103.5s58.833 -38.5 101.5 -38.5s76.167 17.667 100.5 53z" />
    <glyph glyph-name="c" unicode="c" horiz-adv-x="473" 
d="M95.5 58.5c-41 45.667 -61.5 109.501 -61.5 191.501s20.5 145.833 61.5 191.5s98.5 68.5 172.5 68.5c42 0 79.167 -8.16699 111.5 -24.5s57.833 -39.833 76.5 -70.5l-51 -46c-14.667 22.667 -33.834 40.5 -57.501 53.5s-49.167 19.5 -76.5 19.5
c-47.333 0 -84.5 -16.833 -111.5 -50.5s-40.5 -80.834 -40.5 -141.501c0 -60 13.5 -107 40.5 -141s64.167 -51 111.5 -51c27.333 0 52.833 6.5 76.5 19.5s42.834 30.833 57.501 53.5l51 -46c-18.667 -30.667 -44.167 -54.167 -76.5 -70.5s-69.5 -24.5 -111.5 -24.5
c-74 0 -131.5 22.833 -172.5 68.5z" />
    <glyph glyph-name="d" unicode="d" horiz-adv-x="542" 
d="M90.5 62c-37.667 48 -56.498 113.665 -56.498 196.998c0 50.667 8.66699 94.834 26 132.501s42 66.834 74 87.501s69.333 31 112 31c61.333 0 110.666 -25.667 147.999 -77h2v309h84v-616c0 -62 1 -104 3 -126h-78c-1.33301 16 -2 42.333 -2 79h-2
c-15.333 -26.667 -37.333 -48.167 -66 -64.5s-59 -24.5 -91 -24.5c-64.667 0 -115.834 24 -153.501 72zM357.502 96.498c25 25.667 37.5 60.167 37.5 103.5v91c0 46.667 -12.667 84 -38 112s-59 42 -101 42c-42.667 0 -76.167 -16.5 -100.5 -49.5
s-36.5 -79.167 -36.5 -138.5c0 -62 12.167 -110.667 36.5 -146s57.833 -53 100.5 -53s76.5 12.833 101.5 38.5z" />
    <glyph glyph-name="e" unicode="e" horiz-adv-x="518" 
d="M482 217l-360.002 0.000976562c4.66699 -50.667 19.667 -89.167 45 -115.5s60.333 -39.5 105 -39.5c60 0 107.667 23.667 143 71l48 -46c-19.333 -30.667 -46.166 -54.5 -80.499 -71.5s-72.166 -25.5 -113.499 -25.5c-74 0 -131.333 22.667 -172 68s-61 109 -61 191
c0 81.333 20.5 145.166 61.5 191.499s97.5 69.5 169.5 69.5c67.333 0 120 -22.833 158 -68.5s57 -109.5 57 -191.5v-33zM403.998 287.001c0 48 -12.501 85.667 -37.501 113s-59.5 41 -103.5 41c-41.333 0 -74.166 -14 -98.499 -42s-38.5 -67.667 -42.5 -119h282v7z" />
    <glyph glyph-name="f" unicode="f" horiz-adv-x="331" 
d="M91 438h-83.001v62h83v63c0 47.333 14.167 84.833 42.5 112.5s66.833 41.5 115.5 41.5c20 0 38.833 -3.16699 56.5 -9.5s31.834 -14.833 42.501 -25.5l-31 -53c-16.667 14.667 -37.667 22 -63 22c-24 0 -43 -8 -57 -24s-21 -38 -21 -66v-61h143v-62h-143v-438h-85v438z
" />
    <glyph glyph-name="g" unicode="g" horiz-adv-x="541" 
d="M480 500l0.000976562 -484.001c0 -80 -19.667 -140.667 -59 -182s-97 -62 -173 -62c-33.333 0 -65.833 4 -97.5 12s-60.167 19.333 -85.5 34l28 62c50 -24 100.667 -36 152 -36c104 0 156 61.667 156 185v46c-13.333 -25.333 -33.666 -45.333 -60.999 -60
s-58.333 -22 -93 -22c-66 0 -118 23.667 -156 71s-57 112 -57 194c0 78.667 18.667 140.334 56 185.001s88.666 67 153.999 67c34.667 0 65.167 -7 91.5 -21s47.166 -34.333 62.499 -61h2l10 72h70zM395.001 282.999c0 50.667 -12 90.333 -36 119s-57.333 43 -100 43
c-43.333 0 -77.5 -16.833 -102.5 -50.5s-37.5 -79.834 -37.5 -138.501c0 -61.333 12.333 -109.166 37 -143.499s59 -51.5 103 -51.5c42.667 0 76 12.833 100 38.5s36 61.5 36 107.5v76z" />
    <glyph glyph-name="h" unicode="h" horiz-adv-x="558" 
d="M61 742h85v-320c15.333 27.333 37.833 48.833 67.5 64.5s62.834 23.5 99.501 23.5c58.667 0 104 -19.5 136 -58.5s48 -94.167 48 -165.5v-286h-85v287c0 51.333 -9.83301 90.5 -29.5 117.5s-47.834 40.5 -84.501 40.5c-28.667 0 -54.667 -7.33301 -78 -22
s-41.5 -35.167 -54.5 -61.5s-19.5 -55.833 -19.5 -88.5v-273h-85v742z" />
    <glyph glyph-name="i" unicode="i" horiz-adv-x="245" 
d="M78 602c-10.667 10 -16 23.667 -16 41s5.33301 31.166 16 41.499s25.334 15.5 44.001 15.5s33.5 -5.16699 44.5 -15.5s16.5 -24.166 16.5 -41.499s-5.5 -31 -16.5 -41s-25.833 -15 -44.5 -15s-33.334 5 -44.001 15zM80 500h85v-500h-85v500z" />
    <glyph glyph-name="j" unicode="j" horiz-adv-x="247" 
d="M87.5 602.5c-11 10.333 -16.5 23.833 -16.5 40.5c0 17.333 5.5 31.166 16.5 41.499s25.833 15.5 44.5 15.5c18 0 32.5 -5.16699 43.5 -15.5s16.5 -24.166 16.5 -41.499c0 -16.667 -5.5 -30.167 -16.5 -40.5s-25.5 -15.5 -43.5 -15.5c-18.667 0 -33.5 5.16699 -44.5 15.5z
M-48 -183l2.99902 63c10.667 -1.33301 24 -2 40 -2c35.333 0 60.333 10 75 30s22 51.333 22 94v498h85v-501c0 -62 -13 -109 -39 -141s-66.667 -48 -122 -48c-21.333 0 -42.666 2.33301 -63.999 7z" />
    <glyph glyph-name="k" unicode="k" horiz-adv-x="487" 
d="M384 0l-165 251l-73 -73v-178h-85v742h85v-462l219 220h102l-191 -192l205 -308h-97z" />
    <glyph glyph-name="l" unicode="l" horiz-adv-x="291" 
d="M70 117l-0.00292969 625h85v-624c0 -23.333 3.83301 -39.833 11.5 -49.5s20.834 -14.5 39.501 -14.5c14.667 0 31.334 4 50.001 12l13 -51c-25.333 -16.667 -55.666 -25 -90.999 -25c-72 0 -108 42.333 -108 127z" />
    <glyph glyph-name="m" unicode="m" horiz-adv-x="839" 
d="M61 374c0 50.667 -1.66699 92.665 -5 125.998h76c2.66699 -26.667 4 -56.334 4 -89.001h3c13.333 30.667 34.333 54.834 63 72.501s60.667 26.5 96 26.5s65.666 -9 90.999 -27s42.333 -43 51 -75c14 31.333 35.333 56.166 64 74.499s61 27.5 97 27.5
c54.667 0 97.5 -17.667 128.5 -53s46.5 -84.666 46.5 -147.999v-309h-84v302c0 45.333 -9.5 80 -28.5 104s-46.5 36 -82.5 36c-35.333 0 -64.333 -13.167 -87 -39.5s-34 -60.166 -34 -101.499v-301h-84v298c0 48.667 -8.66699 84.834 -26 108.501s-43.666 35.5 -78.999 35.5
c-22 0 -42.667 -6.66699 -62 -20s-34.833 -31 -46.5 -53s-17.5 -45.667 -17.5 -71v-298h-84v374z" />
    <glyph glyph-name="n" unicode="n" horiz-adv-x="549" 
d="M60 374c0 63.333 -1.33105 105.332 -3.99805 125.999h79c2.66699 -22 4 -51.667 4 -89h3c14.667 30.667 37.167 54.834 67.5 72.501s64.166 26.5 101.499 26.5c58.667 0 102.667 -19 132 -57s44 -94.667 44 -170v-283h-85v284c0 53.333 -9 93 -27 119s-45.333 39 -82 39
c-28 0 -53.333 -7.16699 -76 -21.5s-40.334 -34.333 -53.001 -60s-19 -54.5 -19 -86.5v-274h-85v374z" />
    <glyph glyph-name="o" unicode="o" horiz-adv-x="557" 
d="M149.5 21.5c-36.333 21 -64.333 51.167 -84 90.5s-29.5 85.333 -29.5 138s9.83301 98.667 29.5 138s47.667 69.5 84 90.5s79.166 31.5 128.499 31.5c74.667 0 133.834 -23.333 177.501 -70s65.5 -110 65.5 -190s-21.833 -143.333 -65.5 -190s-102.834 -70 -177.501 -70
c-49.333 0 -92.166 10.5 -128.499 31.5zM394 107c28 34.667 42 82.334 42 143.001s-14 108.334 -42 143.001s-66.667 52 -116 52c-48.667 0 -87 -17.333 -115 -52s-42 -82.334 -42 -143.001s14 -108.334 42 -143.001s66.333 -52 115 -52c49.333 0 88 17.333 116 52z" />
    <glyph glyph-name="p" unicode="p" horiz-adv-x="545" 
d="M63 374c0 42.667 -1.33398 84.667 -4.00098 126h78c2 -24.667 3 -51 3 -79h2c14 26.667 35.667 48.167 65 64.5s61 24.5 95 24.5c64.667 0 115.334 -23 152.001 -69s55 -109.667 55 -191c0 -52.667 -8.66699 -98.5 -26 -137.5s-41.833 -69.167 -73.5 -90.5
s-68.5 -32 -110.5 -32c-34.667 0 -65 6.66699 -91 20s-45 32 -57 56h-3v-308h-85v616zM386.999 108.5c24.667 35.667 37 83.832 37 144.499s-12 107.334 -36 140.001s-57.667 49 -101 49c-40.667 0 -74 -13.333 -100 -40s-39 -60.667 -39 -102v-91
c0 -46 12.667 -83.167 38 -111.5s58.666 -42.5 99.999 -42.5c42.667 0 76.334 17.833 101.001 53.5z" />
    <glyph glyph-name="q" unicode="q" horiz-adv-x="545" 
d="M397 69l-3 0.000976562c-14 -24.667 -34.167 -44 -60.5 -58s-55.833 -21 -88.5 -21c-42 0 -78.833 10.667 -110.5 32s-56 51.666 -73 90.999s-25.5 85.333 -25.5 138c0 80.667 18.5 144 55.5 190s87.833 69 152.5 69c34.667 0 66.5 -8 95.5 -24s50.167 -37.333 63.5 -64
h2c0 24 1 50 3 78h78c-2.66699 -38.667 -4 -80.667 -4 -126v-616h-85v311zM359 97.501c25.333 28.333 38 65.502 38 111.502v91c0 41.333 -13 75.333 -39 102s-59.333 40 -100 40c-44 0 -77.833 -16.333 -101.5 -49s-35.5 -79.334 -35.5 -140.001
s12.333 -108.834 37 -144.501s58.334 -53.5 101.001 -53.5c41.333 0 74.666 14.167 99.999 42.5z" />
    <glyph glyph-name="r" unicode="r" horiz-adv-x="350" 
d="M67 378c0 56.667 -1.00098 97.332 -3.00098 121.999h79c2.66699 -26.667 4 -56 4 -88v-10h3c12.667 34.667 33 61.334 61 80.001s61 28 99 28c10.667 0 20.334 -1 29.001 -3v-70c-8.66699 2 -20.334 3 -35.001 3c-28 0 -53.667 -8.5 -77 -25.5
s-41.666 -40.167 -54.999 -69.5s-20 -61.333 -20 -96v-249h-85v378z" />
    <glyph glyph-name="s" unicode="s" horiz-adv-x="416" 
d="M98.5 13c-30.333 15.333 -51.834 35.665 -64.501 60.998l55 38c11.333 -18 27 -32 47 -42s41.667 -15 65 -15c28 0 51.167 8.16699 69.5 24.5s27.5 36.833 27.5 61.5c0 20 -7.33301 36.667 -22 50s-40.667 27 -78 41c-56.667 20.667 -96.5 42.334 -119.5 65.001
s-34.5 50.667 -34.5 84c0 38.667 15.333 69.834 46 93.501s71.334 35.5 122.001 35.5c32.667 0 62.5 -7 89.5 -21s47.833 -33.333 62.5 -58l-52 -38c-23.333 34.667 -56.666 52 -99.999 52c-24.667 0 -44.834 -5.66699 -60.501 -17s-23.5 -26 -23.5 -44s8 -33.167 24 -45.5
s45.667 -26.833 89 -43.5c51.333 -19.333 87.666 -40.5 108.999 -63.5s32 -52.167 32 -87.5c0 -46.667 -16.667 -84 -50 -112s-77.333 -42 -132 -42c-37.333 0 -71.166 7.66699 -101.499 23z" />
    <glyph glyph-name="t" unicode="t" horiz-adv-x="377" 
d="M138 32.5c-25.333 28.333 -38.001 67.5 -38.001 117.5v284h-90v66h90v133l81 25h4v-158h142v-66h-142v-276c0 -34 6.33301 -59.167 19 -75.5s32.334 -24.5 59.001 -24.5c28.667 0 52 3.66699 70 11l6 -63c-22 -10.667 -54.333 -16 -97 -16
c-44 0 -78.667 14.167 -104 42.5z" />
    <glyph glyph-name="u" unicode="u" horiz-adv-x="552" 
d="M105.5 46c-29.667 37.333 -44.502 92.333 -44.502 165v289h85v-290c0 -101.333 36 -152 108 -152c28 0 53.333 7.16699 76 21.5s40.334 34.333 53.001 60s19 54.5 19 86.5v274h85v-394c0 -33.333 3 -68.666 9 -105.999h-78c-6 29.333 -9.33301 59 -10 89h-3
c-14.667 -30.667 -37.167 -54.834 -67.5 -72.501s-64.166 -26.5 -101.499 -26.5c-57.333 0 -100.833 18.667 -130.5 56z" />
    <glyph glyph-name="v" unicode="v" horiz-adv-x="479" 
d="M468 500l-190 -500h-77l-190 500h88l141 -400l140 400h88z" />
    <glyph glyph-name="w" unicode="w" horiz-adv-x="668" 
d="M657 500l-125 -500h-77l-121 409l-121 -409h-77l-125 500h89l81 -384l114 384h78l114 -384l81 384h89z" />
    <glyph glyph-name="x" unicode="x" horiz-adv-x="460" 
d="M186 254l-162 246h95l111 -186l111 186h95l-162 -246l175 -254h-96l-123 200l-123 -200h-96z" />
    <glyph glyph-name="y" unicode="y" horiz-adv-x="462" 
d="M451 500l-181 -509.001c-46 -128.667 -117 -193 -213 -193c-17.333 0 -36 2.33301 -56 7v65c12 -4 26.667 -6 44 -6c34 0 63 12.333 87 37s47 66.334 69 125.001l-186 474h91l134 -383l119 383h92z" />
    <glyph glyph-name="z" unicode="z" horiz-adv-x="451" 
d="M26 48l289 386h-275v66h375v-49l-285 -385h295v-66h-399v48z" />
    <glyph glyph-name="braceleft" unicode="{" horiz-adv-x="320" 
d="M139 -77.5c-23.333 24.333 -35.001 61.167 -35.001 110.5v168c0 44 -22.333 67.333 -67 70v55c44.667 2 67 25 67 69v168c0 49.333 11.667 86.166 35 110.499s60.666 36.5 111.999 36.5h34v-67h-36c-22 0 -37.5 -6.16699 -46.5 -18.5s-13.5 -31.5 -13.5 -57.5v-170
c0 -24.667 -4.5 -44.667 -13.5 -60s-25.167 -28.333 -48.5 -39c22.667 -10 38.834 -23.167 48.501 -39.5s14.5 -36.166 14.5 -59.499v-170c0 -26 4.33301 -45.167 13 -57.5s24 -18.5 46 -18.5h36v-67h-34c-51.333 0 -88.666 12.167 -111.999 36.5z" />
    <glyph glyph-name="bar" unicode="|" horiz-adv-x="242" 
d="M80 700h82v-860h-82v860z" />
    <glyph glyph-name="braceright" unicode="}" horiz-adv-x="320" 
d="M35 -47l35.998 -0.000976562c22 0 37.333 6.16699 46 18.5s13 31.5 13 57.5v170c0 23.333 4.83301 43.166 14.5 59.499s25.834 29.5 48.501 39.5c-23.333 10.667 -39.5 23.667 -48.5 39s-13.5 35.333 -13.5 60v170c0 26 -4.5 45.167 -13.5 57.5s-24.5 18.5 -46.5 18.5
h-36v67h34c51.333 0 88.833 -12.167 112.5 -36.5s35.5 -61.166 35.5 -110.499v-168c0 -44 22 -67 66 -69v-55c-44.667 -2.66699 -67 -26 -67 -70v-168c0 -49.333 -11.667 -86.166 -35 -110.499s-60.666 -36.5 -111.999 -36.5h-34v67z" />
    <glyph glyph-name="asciitilde" unicode="~" horiz-adv-x="607" 
d="M62 210c0 40.667 12.166 73.499 36.499 98.499s55.833 37.5 94.5 37.5c20 0 39.333 -4 58 -12s40.667 -19.667 66 -35c22.667 -13.333 41 -23.166 55 -29.499s28 -9.5 42 -9.5c20.667 0 36 7.83301 46 23.5s15.333 36.5 16 62.5h72v-17
c0 -42.667 -11.667 -76.667 -35 -102s-54 -38 -92 -38c-20.667 0 -40.5 4 -59.5 12s-41.833 20 -68.5 36c-22 13.333 -39.833 23.166 -53.5 29.499s-27.167 9.5 -40.5 9.5c-20 0 -35.667 -7.66699 -47 -23s-17.666 -36.666 -18.999 -63.999h-71v21z" />
    <glyph glyph-name="uni00A0" unicode="&#xa0;" horiz-adv-x="243" 
 />
    <glyph glyph-name="exclamdown" unicode="&#xa1;" horiz-adv-x="237" 
d="M69 397.5c-12.667 12.333 -19 28.166 -19 47.499s6.33301 35 19 47s29 18 49 18c20.667 0 37.334 -6 50.001 -18s19 -27.667 19 -47s-6.33301 -35.166 -19 -47.499s-29.334 -18.5 -50.001 -18.5c-20 0 -36.333 6.16699 -49 18.5zM79 306h78l12 -507h-102z" />
    <glyph glyph-name="cent" unicode="&#xa2;" horiz-adv-x="473" 
d="M347.5 147.5c23.667 13 42.834 30.834 57.501 53.501l51 -46c-16.667 -28 -39 -49.833 -67 -65.5s-60 -25.167 -96 -28.5v-89h-61v90c-63.333 7.33301 -112.166 33.5 -146.499 78.5s-51.5 104.833 -51.5 179.5s17.167 134.5 51.5 179.5s83.166 71.167 146.499 78.5v90h61
v-89c36 -3.33301 68 -12.833 96 -28.5s50.333 -37.5 67 -65.5l-51 -46c-14.667 22.667 -33.834 40.5 -57.501 53.5s-49.167 19.5 -76.5 19.5c-47.333 0 -84.5 -16.833 -111.5 -50.5s-40.5 -80.834 -40.5 -141.501c0 -60 13.5 -107 40.5 -141s64.167 -51 111.5 -51
c27.333 0 52.833 6.5 76.5 19.5z" />
    <glyph glyph-name="sterling" unicode="&#xa3;" horiz-adv-x="536" 
d="M243 148.5c-13.333 -32.333 -33.333 -58.834 -60 -79.501h290v-69h-418v56c38.667 21.333 69 48.833 91 82.5s33 66.5 33 98.5c0 16 -2.66699 40 -8 72h-95v61h85c-12 72 -18 121.333 -18 148c0 58.667 17 105.334 51 140.001s79.333 52 136 52
c27.333 0 54.166 -4.5 80.499 -13.5s47.5 -21.5 63.5 -37.5l-31 -65c-13.333 12.667 -29.833 22.667 -49.5 30s-38.5 11 -56.5 11c-33.333 0 -59.666 -11.167 -78.999 -33.5s-29 -52.5 -29 -90.5c0 -24.667 6 -71.667 18 -141h165v-61h-155c4 -24 6 -45.333 6 -64
c0 -32 -6.66699 -64.167 -20 -96.5z" />
    <glyph glyph-name="currency" unicode="&#xa4;" horiz-adv-x="615" 
d="M223.5 75c-27 9.33301 -51.833 22.333 -74.5 39l-59 -58l-59 57l57 57c-16.667 22 -29.667 47.167 -39 75.5s-14 56.833 -14 85.5s4.66699 57.167 14 85.5s22.333 53.5 39 75.5l-57 57l59 57l59 -58c22.667 16.667 47.5 29.667 74.5 39s54.167 14 81.5 14
c28 0 55.833 -4.66699 83.5 -14s52.5 -22.333 74.5 -39l62 58l58 -60l-57 -54c16 -20 28.5 -44.167 37.5 -72.5s13.5 -57.833 13.5 -88.5s-4.5 -60.167 -13.5 -88.5s-21.5 -52.5 -37.5 -72.5l57 -57l-58 -57l-62 58c-22 -16.667 -46.833 -29.667 -74.5 -39
s-55.5 -14 -83.5 -14c-27.333 0 -54.5 4.66699 -81.5 14zM403 162.5c28.667 16.333 51.167 39.166 67.5 68.499s24.5 62.666 24.5 99.999s-8.16699 70.833 -24.5 100.5s-38.833 52.834 -67.5 69.501s-61 25 -97 25s-68.333 -8.33301 -97 -25s-51 -39.834 -67 -69.501
s-24 -63.167 -24 -100.5s8 -70.666 24 -99.999s38.333 -52.166 67 -68.499s61 -24.5 97 -24.5s68.333 8.16699 97 24.5z" />
    <glyph glyph-name="yen" unicode="&#xa5;" horiz-adv-x="578" 
d="M376 354h134v-64h-168l-6 -12v-67h174v-62h-174v-149h-93v149h-176v62h176v67l-6 12h-170v63h136l-183 347h102l167 -334l167 334h102z" />
    <glyph glyph-name="brokenbar" unicode="&#xa6;" horiz-adv-x="242" 
d="M80 700h82v-385h-82v385zM80 225h82v-385h-82v385z" />
    <glyph glyph-name="section" unicode="&#xa7;" horiz-adv-x="531" 
d="M473.5 120c7 -16 10.498 -34.999 10.498 -56.999c0 -52.667 -20.167 -93.5 -60.5 -122.5s-92.833 -43.5 -157.5 -43.5c-48.667 0 -91.667 9 -129 27s-67.333 42.333 -90 73l53 54c22 -26 47.333 -46.167 76 -60.5s59.334 -21.5 92.001 -21.5
c37.333 0 67.333 7.66699 90 23s34 37.666 34 66.999c0 18.667 -5.16699 34.167 -15.5 46.5s-23.833 23 -40.5 32s-44 22.167 -82 39.5l-35 16c-40 17.333 -70.167 32 -90.5 44s-36.666 26.667 -48.999 44s-18.5 39.333 -18.5 66c0 39.333 15.333 73 46 101
c-30.667 26.667 -46 59.667 -46 99c0 32.667 8.83301 61.334 26.5 86.001s42.167 43.667 73.5 57s66.333 20 105 20c46.667 0 87.834 -9.16699 123.501 -27.5s62.167 -43.833 79.5 -76.5l-52 -39c-16 22.667 -37 40.167 -63 52.5s-54.333 18.5 -85 18.5
c-34.667 0 -62.667 -8.16699 -84 -24.5s-32 -37.166 -32 -62.499c0 -18 5.33301 -33 16 -45s25 -22.833 43 -32.5s50.667 -25.167 98 -46.5c41.333 -18.667 73.166 -34.334 95.499 -47.001s41 -28.834 56 -48.501s22.5 -43.5 22.5 -71.5c0 -36.667 -13.667 -69 -41 -97
c13.333 -12.667 23.5 -27 30.5 -43zM169.998 305.501c16.667 -11.667 45.667 -26.832 87 -45.499l53 -25l44 -20l30 -14c14 20.667 21 38.334 21 53.001c0 15.333 -4.5 28.333 -13.5 39s-23.167 21 -42.5 31s-51 24.667 -95 44l-26 12c-23.333 10 -43 19 -59 27
c-16 -14.667 -24 -33.334 -24 -56.001c0 -18.667 8.33301 -33.834 25 -45.501z" />
    <glyph glyph-name="dieresis" unicode="&#xa8;" horiz-adv-x="400" 
d="M63 568.5c-10 9.66699 -15 21.834 -15 36.501s4.83301 26.834 14.5 36.501s22.167 14.5 37.5 14.5c14.667 0 27 -4.83301 37 -14.5s15 -21.834 15 -36.501s-5 -26.834 -15 -36.501s-22.333 -14.5 -37 -14.5s-27 4.83301 -37 14.5zM263 568.5
c-10 9.66699 -15 21.834 -15 36.501s5 26.834 15 36.501s22.333 14.5 37 14.5c15.333 0 27.833 -4.83301 37.5 -14.5s14.5 -21.834 14.5 -36.501s-5 -26.834 -15 -36.501s-22.333 -14.5 -37 -14.5s-27 4.83301 -37 14.5z" />
    <glyph glyph-name="copyright" unicode="&#xa9;" horiz-adv-x="804" 
d="M215.5 36c-55 30.667 -98 73.334 -129 128.001s-46.5 116.667 -46.5 186s15.5 131.333 46.5 186s74 97.334 129 128.001s117.167 46 186.5 46s131.5 -15.333 186.5 -46s98 -73.334 129 -128.001s46.5 -116.667 46.5 -186s-15.5 -131.333 -46.5 -186
s-74 -97.334 -129 -128.001s-117.167 -46 -186.5 -46s-131.5 15.333 -186.5 46zM559.5 81c46.333 26.667 82.666 63.5 108.999 110.5s39.5 99.833 39.5 158.5s-13.167 111.5 -39.5 158.5s-62.666 83.833 -108.999 110.5s-98.833 40 -157.5 40
c-58 0 -110.333 -13.333 -157 -40s-83.167 -63.5 -109.5 -110.5s-39.5 -99.833 -39.5 -158.5s13.167 -111.5 39.5 -158.5s62.833 -83.833 109.5 -110.5s99 -40 157 -40c58.667 0 111.167 13.333 157.5 40zM280 197.5c-32 39 -47.999 90.833 -47.999 155.5
c0 65.333 16.333 117.333 49 156s76 58 130 58c29.333 0 55.666 -6.16699 78.999 -18.5s40.666 -28.833 51.999 -49.5l-35 -37c-10.667 15.333 -24.167 27.333 -40.5 36s-34.833 13 -55.5 13c-35.333 0 -63.5 -14.333 -84.5 -43s-31.5 -67 -31.5 -115
s10.333 -86.333 31 -115s48.334 -43 83.001 -43c42 0 74.667 16.667 98 50l35 -38c-12 -20 -29.833 -36.333 -53.5 -49s-50.167 -19 -79.5 -19c-54 0 -97 19.5 -129 58.5z" />
    <glyph glyph-name="ordfeminine" unicode="&#xaa;" horiz-adv-x="362" 
d="M70.5 389.5c-20.333 19 -30.499 43.833 -30.499 74.5c0 32.667 11.5 58.167 34.5 76.5s56.167 27.5 99.5 27.5h73v15c0 24.667 -5.83301 43 -17.5 55s-29.834 18 -54.501 18c-37.333 0 -66.666 -15.333 -87.999 -46l-33 37c29.333 40 72 60 128 60
c42 0 74.167 -10.333 96.5 -31s33.5 -49.667 33.5 -87v-155c0 -22 2.33301 -44 7 -66h-58c-0.666992 2 -3.33398 17.333 -8.00098 46c-10 -16.667 -24.167 -29.667 -42.5 -39s-38.833 -14 -61.5 -14c-32 0 -58.167 9.5 -78.5 28.5zM225.501 431.5
c14.333 15 21.5 32.166 21.5 51.499v41h-62c-26.667 0 -47 -5.16699 -61 -15.5s-21 -25.166 -21 -44.499c0 -18 5.66699 -31.667 17 -41s26.333 -14 45 -14c26 0 46.167 7.5 60.5 22.5z" />
    <glyph glyph-name="guillemotleft" unicode="&#xab;" horiz-adv-x="515" 
d="M37 260l157 196h92l-154 -196l154 -196h-92zM228 260l158 196h92l-154 -196l154 -196h-92z" />
    <glyph glyph-name="logicalnot" unicode="&#xac;" horiz-adv-x="607" 
d="M483 339h-445v64h529v-274h-84v210z" />
    <glyph glyph-name="uni00AD" unicode="&#xad;" horiz-adv-x="340" 
d="M33 297h274v-62h-274v62z" />
    <glyph glyph-name="registered" unicode="&#xae;" horiz-adv-x="518" 
d="M408.5 654c37.667 -37.333 56.5 -87 56.5 -149c0 -61.333 -18.833 -110.666 -56.5 -147.999s-87.5 -56 -149.5 -56s-111.833 18.667 -149.5 56s-56.5 86.666 -56.5 147.999c0 62 18.833 111.667 56.5 149s87.5 56 149.5 56s111.833 -18.667 149.5 -56zM378.5 384
c30.333 29.333 45.5 69 45.5 119c0 50.667 -14.667 91.167 -44 121.5s-69 45.5 -119 45.5c-50.667 0 -91.167 -14.667 -121.5 -44s-45.5 -69 -45.5 -119c0 -50.667 14.667 -91.167 44 -121.5s69 -45.5 119 -45.5c50.667 0 91.167 14.667 121.5 44zM294 480l48 -89.999h-46
l-47 87h-32v-87h-43v235h93c53.333 0 80 -23.667 80 -71c0 -40.667 -17.667 -65.334 -53 -74.001zM305 554.001c0 13.333 -3.83203 22.5 -11.499 27.5s-20.834 7.5 -39.501 7.5h-37v-76h39c32.667 0 49 13.667 49 41z" />
    <glyph glyph-name="macron" unicode="&#xaf;" horiz-adv-x="400" 
d="M33 628h334v-54h-334v54z" />
    <glyph glyph-name="degree" unicode="&#xb0;" horiz-adv-x="315" 
d="M63 487c-24 24 -36 55 -36 93c0 38.667 12 70 36 94s55.333 36 94 36s70.167 -12 94.5 -36s36.5 -55.333 36.5 -94c0 -38 -12.167 -69 -36.5 -93s-55.833 -36 -94.5 -36s-70 12 -94 36zM212.5 524c14.333 14.667 21.5 33.332 21.5 55.999
c0 23.333 -7.16699 42.333 -21.5 57s-32.833 22 -55.5 22s-41 -7.33301 -55 -22s-21 -33.667 -21 -57s7 -42.166 21 -56.499s32.333 -21.5 55 -21.5s41.167 7.33301 55.5 22z" />
    <glyph glyph-name="plusminus" unicode="&#xb1;" horiz-adv-x="607" 
d="M343 304v-188h-80v188h-212v65h212v188h80v-188h213v-65h-213zM60 64h488v-64h-488v64z" />
    <glyph glyph-name="uni00B2" unicode="&#xb2;" horiz-adv-x="400" 
d="M46 269c54 38.667 103.668 85.499 149.001 140.499s68 106.167 68 153.5c0 23.333 -7 41.833 -21 55.5s-33 20.5 -57 20.5c-22 0 -42.5 -5.5 -61.5 -16.5s-34.833 -25.833 -47.5 -44.5l-42 46c15.333 26 37.166 46 65.499 60s58.833 21 91.5 21
c48.667 0 86.667 -12.333 114 -37s41 -58.667 41 -102c0 -81.333 -63.667 -179.666 -191 -294.999h211v-63h-320v61z" />
    <glyph glyph-name="uni00B3" unicode="&#xb3;" horiz-adv-x="400" 
d="M99.5 219c-28.333 13.333 -49.167 31.332 -62.5 53.999l40 47c13.333 -17.333 30.5 -30.833 51.5 -40.5s42.167 -14.5 63.5 -14.5c26.667 0 48.167 7.83301 64.5 23.5s24.5 35.5 24.5 59.5c0 26.667 -10 47.5 -30 62.5s-47.667 22.5 -83 22.5h-33v61h32
c30 0 53.833 7.66699 71.5 23s26.5 35 26.5 59c0 19.333 -6.83301 34.666 -20.5 45.999s-31.834 17 -54.501 17c-22 0 -43 -5 -63 -15s-36.333 -23 -49 -39l-39 46c16 23.333 38.5 41.5 67.5 54.5s60.167 19.5 93.5 19.5c44 0 79.5 -11 106.5 -33s40.5 -51.333 40.5 -88
c0 -25.333 -7.66699 -48.666 -23 -69.999s-36.333 -37 -63 -47c32.667 -9.33301 58 -25 76 -47s27 -47.667 27 -77c0 -43.333 -15.5 -78.166 -46.5 -104.499s-71.833 -39.5 -122.5 -39.5c-35.333 0 -67.166 6.66699 -95.499 20z" />
    <glyph glyph-name="acute" unicode="&#xb4;" horiz-adv-x="400" 
d="M205 705h86l-100 -151h-68z" />
    <glyph glyph-name="uni00B5" unicode="&#xb5;" horiz-adv-x="552" 
d="M61 500l83.999 -0.000976562v-290c0 -48 9.66699 -85.333 29 -112s48 -40 86 -40c42 0 76.167 16.167 102.5 48.5s39.5 73.5 39.5 123.5v270h85v-394c0 -31.333 3 -66.666 9 -105.999h-77c-5.33301 20.667 -9 48 -11 82h-3c-30 -61.333 -78.333 -92 -145 -92
c-23.333 0 -45.166 4 -65.499 12s-36.833 20 -49.5 36v-253h-84v715z" />
    <glyph glyph-name="paragraph" unicode="&#xb6;" horiz-adv-x="536" 
d="M274 267h-6c-41.333 0 -79.5 8.66699 -114.5 26s-62.667 41.833 -83 73.5s-30.5 67.5 -30.5 107.5c0 150.667 97 226 291 226h115v-793h-50v747h-72v-747h-50v360z" />
    <glyph glyph-name="periodcentered" unicode="&#xb7;" horiz-adv-x="251" 
d="M80.5 215.5c-11.667 12.333 -17.5 27.833 -17.5 46.5c0 19.333 5.83301 35.166 17.5 47.499s26.5 18.5 44.5 18.5s32.833 -6.16699 44.5 -18.5s17.5 -28.166 17.5 -47.499c0 -18.667 -5.83301 -34.167 -17.5 -46.5s-26.5 -18.5 -44.5 -18.5s-32.833 6.16699 -44.5 18.5z
" />
    <glyph glyph-name="cedilla" unicode="&#xb8;" horiz-adv-x="400" 
d="M145 -223.5c-14.667 2.33301 -25.999 5.50098 -33.999 9.50098l10 43c6 -2.66699 14.333 -4.83398 25 -6.50098s20.667 -2.5 30 -2.5c16 0 29 3.33301 39 10s15 17 15 31c0 11.333 -6.83301 20.5 -20.5 27.5s-32.5 10.167 -56.5 9.5l-22 23l51 92h57l-39 -75
c27.333 0 49.166 -6.66699 65.499 -20s24.5 -31.333 24.5 -54c0 -26.667 -9.33301 -48.5 -28 -65.5s-43.667 -25.5 -75 -25.5c-13.333 0 -27.333 1.16699 -42 3.5z" />
    <glyph glyph-name="uni00B9" unicode="&#xb9;" horiz-adv-x="400" 
d="M84 271h82v333l-94 -55v74l123 75h54v-427h80v-63h-245v63z" />
    <glyph glyph-name="ordmasculine" unicode="&#xba;" horiz-adv-x="390" 
d="M76.5 407.5c-29 31 -43.5 73.167 -43.5 126.5s14.5 95.5 43.5 126.5s68.5 46.5 118.5 46.5s89.5 -15.5 118.5 -46.5s43.5 -73.167 43.5 -126.5s-14.5 -95.5 -43.5 -126.5s-68.5 -46.5 -118.5 -46.5s-89.5 15.5 -118.5 46.5zM266.5 442c16.333 22 24.5 52.667 24.5 92
c0 40 -8.16699 70.833 -24.5 92.5s-40.166 32.5 -71.499 32.5s-55.166 -10.833 -71.499 -32.5s-24.5 -52.5 -24.5 -92.5c0 -39.333 8.16699 -70 24.5 -92s40.166 -33 71.499 -33s55.166 11 71.499 33z" />
    <glyph glyph-name="guillemotright" unicode="&#xbb;" horiz-adv-x="515" 
d="M191 260l-154 196h92l157 -196l-157 -196h-92zM383 260l-155 196h93l157 -196l-157 -196h-93z" />
    <glyph glyph-name="onequarter" unicode="&#xbc;" horiz-adv-x="967" 
d="M82 324h73v296l-84 -49v66l109 67h48v-380h71v-56h-217v56zM655 699h71l-405 -722h-71zM769 71h-196v57l185 307h85v-309h46v-55h-46v-71h-74v71zM769 126v228l-135 -228h135z" />
    <glyph glyph-name="onehalf" unicode="&#xbd;" horiz-adv-x="967" 
d="M82 324h73v296l-84 -49v66l109 67h48v-380h71v-56h-217v56zM615 699h71l-405 -722h-71zM618 54c48 34.667 92.166 76.333 132.499 125s60.5 94 60.5 136c0 20.667 -6.16699 37.167 -18.5 49.5s-29.5 18.5 -51.5 18.5c-19.333 0 -37.5 -4.83301 -54.5 -14.5
s-30.833 -22.834 -41.5 -39.501l-38 41c14 22.667 33.667 40.334 59 53.001s52.333 19 81 19c42.667 0 76.334 -11 101.001 -33s37 -52.333 37 -91c0 -72 -56.667 -159.333 -170 -262h187v-56h-284v54z" />
    <glyph glyph-name="threequarters" unicode="&#xbe;" horiz-adv-x="967" 
d="M95.5 279c-25 12 -43.5 28 -55.5 48l35 41c12 -15.333 27.167 -27.166 45.5 -35.499s37.5 -12.5 57.5 -12.5c24 0 43.167 6.83301 57.5 20.5s21.5 31.167 21.5 52.5c0 23.333 -9 41.833 -27 55.5s-42.667 20.5 -74 20.5h-29v54h28c26.667 0 48 6.66699 64 20s24 31 24 53
c0 17.333 -6.16699 31 -18.5 41s-28.5 15 -48.5 15c-19.333 0 -37.833 -4.33301 -55.5 -13s-32.5 -20.334 -44.5 -35.001l-34 41c14 20.667 33.833 36.834 59.5 48.501s53.5 17.5 83.5 17.5c39.333 0 70.833 -9.83301 94.5 -29.5s35.5 -45.834 35.5 -78.501
c0 -22.667 -6.83301 -43.5 -20.5 -62.5s-32.167 -32.833 -55.5 -41.5c28.667 -8.66699 51.167 -22.667 67.5 -42s24.5 -42 24.5 -68c0 -38.667 -13.833 -69.667 -41.5 -93s-64.167 -35 -109.5 -35c-31.333 0 -59.5 6 -84.5 18zM648 699h71l-405 -722h-71zM762 71h-196v57
l185 307h85v-309h46v-55h-46v-71h-74v71zM762 126v228l-135 -228h135z" />
    <glyph glyph-name="questiondown" unicode="&#xbf;" horiz-adv-x="454" 
d="M181 403.5c-12 11.667 -18 26.5 -18 44.5s6 32.833 18 44.5s27.333 17.5 46 17.5s34 -5.83301 46 -17.5s18 -26.5 18 -44.5s-6 -32.833 -18 -44.5s-27.333 -17.5 -46 -17.5s-34 5.83301 -46 17.5zM84.5 -163.5c-34.333 31.667 -51.5 74.834 -51.5 129.501
c0 30 6.83301 57 20.5 81s34.167 52.667 61.5 86c26.667 31.333 46.667 58.833 60 82.5s20 49.5 20 77.5c0 12 -1.33301 26 -4 42h78c4 -14 6 -29.333 6 -46c0 -28.667 -6.66699 -55.334 -20 -80.001s-33 -53.667 -59 -87c-24.667 -31.333 -43 -58 -55 -80
s-18 -45.333 -18 -70c0 -74.667 38.333 -112 115 -112c27.333 0 52.833 7.33301 76.5 22s43.167 35 58.5 61l47 -54c-18.667 -31.333 -44.667 -55.833 -78 -73.5s-71 -26.5 -113 -26.5c-62 0 -110.167 15.833 -144.5 47.5z" />
    <glyph glyph-name="Agrave" unicode="&#xc0;" horiz-adv-x="596" 
d="M434 151h-272l-47 -151h-98l238 700h86l238 -700h-98zM410 226l-112 359l-112 -359h224zM167 900h87l78 -146h-68z" />
    <glyph glyph-name="Aacute" unicode="&#xc1;" horiz-adv-x="596" 
d="M434 151h-272l-47 -151h-98l238 700h86l238 -700h-98zM410 226l-112 359l-112 -359h224zM346 900h87l-97 -146h-68z" />
    <glyph glyph-name="Acircumflex" unicode="&#xc2;" horiz-adv-x="596" 
d="M434 151h-272l-47 -151h-98l238 700h86l238 -700h-98zM410 226l-112 359l-112 -359h224zM269 897h58l112 -143h-74l-67 88l-67 -88h-74z" />
    <glyph glyph-name="Atilde" unicode="&#xc3;" horiz-adv-x="596" 
d="M434 151h-272l-47 -151h-98l238 700h86l238 -700h-98zM410 226l-112 359l-112 -359h224zM174.5 827c15 18.667 34.501 28 58.501 28c12 0 22.833 -2 32.5 -6s23.5 -11 41.5 -21c20.667 -13.333 36.334 -20 47.001 -20c9.33301 0 16.5 4 21.5 12s8.16699 21 9.5 39h52
c-0.666992 -32 -8.66699 -57.5 -24 -76.5s-35.333 -28.5 -60 -28.5c-12.667 0 -24.667 2.5 -36 7.5s-25 12.167 -41 21.5c-19.333 12 -33 18 -41 18c-8.66699 0 -15.834 -4.16699 -21.501 -12.5s-8.83398 -19.833 -9.50098 -34.5h-52c0 30 7.5 54.333 22.5 73z" />
    <glyph glyph-name="Adieresis" unicode="&#xc4;" horiz-adv-x="596" 
d="M434 151h-272l-47 -151h-98l238 700h86l238 -700h-98zM410 226l-112 359l-112 -359h224zM161 768.5c-10 9.66699 -15 21.834 -15 36.501s4.83301 26.834 14.5 36.501s22.167 14.5 37.5 14.5c14.667 0 27 -4.83301 37 -14.5s15 -21.834 15 -36.501s-5 -26.834 -15 -36.501
s-22.333 -14.5 -37 -14.5s-27 4.83301 -37 14.5zM361 768.5c-10 9.66699 -15 21.834 -15 36.501s5 26.834 15 36.501s22.333 14.5 37 14.5c15.333 0 27.833 -4.83301 37.5 -14.5s14.5 -21.834 14.5 -36.501s-5 -26.834 -15 -36.501s-22.333 -14.5 -37 -14.5
s-27 4.83301 -37 14.5z" />
    <glyph glyph-name="Aring" unicode="&#xc5;" horiz-adv-x="596" 
d="M434 151h-272l-47 -151h-98l238 700h86l238 -700h-98zM410 226l-112 359l-112 -359h224zM229.5 743c-17.667 16.667 -26.5 38 -26.5 64s8.83301 47.333 26.5 64s40.5 25 68.5 25s50.833 -8.33301 68.5 -25s26.5 -38 26.5 -64s-8.83301 -47.333 -26.5 -64
s-40.5 -25 -68.5 -25s-50.833 8.33301 -68.5 25zM334 770.5c9.33301 9.66699 14 21.834 14 36.501s-4.66699 26.834 -14 36.501s-21.333 14.5 -36 14.5s-26.667 -4.83301 -36 -14.5s-14 -21.834 -14 -36.501s4.66699 -26.834 14 -36.501s21.333 -14.5 36 -14.5
s26.667 4.83301 36 14.5z" />
    <glyph glyph-name="AE" unicode="&#xc6;" horiz-adv-x="800" 
d="M466 625v-220h249v-75h-249v-255h283v-75h-375v144h-192l-63 -144h-102l326 700h406v-75h-283zM374 216v365l-160 -365h160z" />
    <glyph glyph-name="Ccedilla" unicode="&#xc7;" horiz-adv-x="585" 
d="M437.5 86.5c27.667 13.667 50.5 34.835 68.5 63.502l52 -51c-16.667 -30.667 -41.334 -55.334 -74.001 -74.001s-71 -30 -115 -34l-28 -53c27.333 0 49.333 -6.16699 66 -18.5s25 -29.833 25 -52.5c0 -26.667 -9.16699 -48 -27.5 -64s-43.5 -24 -75.5 -24
c-13.333 0 -27.333 1.16699 -42 3.5s-26 5.5 -34 9.5l8 39c15.333 -4.66699 34 -7 56 -7c16 0 29.167 3.5 39.5 10.5s15.5 17.167 15.5 30.5c0 12 -6.66699 21.333 -20 28s-32.333 9.66699 -57 9l-20 22l38 67c-56.667 3.33301 -106 20.166 -148 50.499
s-74.333 71.833 -97 124.5s-34 114 -34 184c0 73.333 12.5 137 37.5 191s60.5 95.667 106.5 125s100 44 162 44c49.333 0 93.333 -9.66699 132 -29s67.334 -46 86.001 -80l-52 -51c-36.667 56 -91.667 84 -165 84c-67.333 0 -119.833 -24.833 -157.5 -74.5
s-56.5 -119.5 -56.5 -209.5c0 -89.333 18.5 -159 55.5 -209s88.167 -75 153.5 -75c40 0 73.833 6.83301 101.5 20.5z" />
    <glyph glyph-name="Egrave" unicode="&#xc8;" horiz-adv-x="552" 
d="M81 700h420v-76h-328v-218h293v-76h-293v-254h328v-76h-420v700zM164 900h87l78 -146h-68z" />
    <glyph glyph-name="Eacute" unicode="&#xc9;" horiz-adv-x="552" 
d="M81 700h420v-76h-328v-218h293v-76h-293v-254h328v-76h-420v700zM343 900h87l-97 -146h-68z" />
    <glyph glyph-name="Ecircumflex" unicode="&#xca;" horiz-adv-x="552" 
d="M81 700h420v-76h-328v-218h293v-76h-293v-254h328v-76h-420v700zM266 897h58l112 -143h-74l-67 88l-67 -88h-74z" />
    <glyph glyph-name="Edieresis" unicode="&#xcb;" horiz-adv-x="552" 
d="M81 700h420v-76h-328v-218h293v-76h-293v-254h328v-76h-420v700zM158 768.5c-10 9.66699 -15 21.834 -15 36.501s4.83301 26.834 14.5 36.501s22.167 14.5 37.5 14.5c14.667 0 27 -4.83301 37 -14.5s15 -21.834 15 -36.501s-5 -26.834 -15 -36.501
s-22.333 -14.5 -37 -14.5s-27 4.83301 -37 14.5zM358 768.5c-10 9.66699 -15 21.834 -15 36.501s5 26.834 15 36.501s22.333 14.5 37 14.5c15.333 0 27.833 -4.83301 37.5 -14.5s14.5 -21.834 14.5 -36.501s-5 -26.834 -15 -36.501s-22.333 -14.5 -37 -14.5
s-27 4.83301 -37 14.5z" />
    <glyph glyph-name="Igrave" unicode="&#xcc;" horiz-adv-x="292" 
d="M100 700h92v-700h-92v700zM16 900h87l78 -146h-68z" />
    <glyph glyph-name="Iacute" unicode="&#xcd;" horiz-adv-x="292" 
d="M100 700h92v-700h-92v700zM195 900h87l-97 -146h-68z" />
    <glyph glyph-name="Icircumflex" unicode="&#xce;" horiz-adv-x="292" 
d="M100 700h92v-700h-92v700zM118 897h58l112 -143h-74l-67 88l-67 -88h-74z" />
    <glyph glyph-name="Idieresis" unicode="&#xcf;" horiz-adv-x="292" 
d="M100 700h92v-700h-92v700zM10 768.5c-10 9.66699 -15 21.834 -15 36.501s4.83301 26.834 14.5 36.501s22.167 14.5 37.5 14.5c14.667 0 27 -4.83301 37 -14.5s15 -21.834 15 -36.501s-5 -26.834 -15 -36.501s-22.333 -14.5 -37 -14.5s-27 4.83301 -37 14.5zM210 768.5
c-10 9.66699 -15 21.834 -15 36.501s5 26.834 15 36.501s22.333 14.5 37 14.5c15.333 0 27.833 -4.83301 37.5 -14.5s14.5 -21.834 14.5 -36.501s-5 -26.834 -15 -36.501s-22.333 -14.5 -37 -14.5s-27 4.83301 -37 14.5z" />
    <glyph glyph-name="Eth" unicode="&#xd0;" horiz-adv-x="625" 
d="M511.5 615c46.333 -56.667 69.501 -140.333 69.501 -251c0 -86.667 -10.333 -156.5 -31 -209.5s-53.167 -92 -97.5 -117s-102.833 -37.5 -175.5 -37.5h-194v302h-75v71h75v327h222c91.333 0 160.166 -28.333 206.499 -85zM442.001 145.001c31.333 46 47 119 47 219
c0 88.667 -15.333 154.167 -46 196.5s-78 63.5 -142 63.5h-126v-251h206v-71h-206v-226h118c68 0 117.667 23 149 69z" />
    <glyph glyph-name="Ntilde" unicode="&#xd1;" horiz-adv-x="682" 
d="M602 700v-700h-91l-339 554v-554h-92v700h97l333 -547v547h92zM217.5 827c15 18.667 34.501 28 58.501 28c12 0 22.833 -2 32.5 -6s23.5 -11 41.5 -21c20.667 -13.333 36.334 -20 47.001 -20c9.33301 0 16.5 4 21.5 12s8.16699 21 9.5 39h52
c-0.666992 -32 -8.66699 -57.5 -24 -76.5s-35.333 -28.5 -60 -28.5c-12.667 0 -24.667 2.5 -36 7.5s-25 12.167 -41 21.5c-19.333 12 -33 18 -41 18c-8.66699 0 -15.834 -4.16699 -21.501 -12.5s-8.83398 -19.833 -9.50098 -34.5h-52c0 30 7.5 54.333 22.5 73z" />
    <glyph glyph-name="Ograve" unicode="&#xd2;" horiz-adv-x="661" 
d="M173 33.5c-44.667 29 -79 70.667 -103 125s-36 118.166 -36 191.499s12 137.166 36 191.499s58.333 96 103 125s97.334 43.5 158.001 43.5s113.167 -14.5 157.5 -43.5s78.5 -70.667 102.5 -125s36 -118.166 36 -191.499s-12 -137.166 -36 -191.499
s-58.167 -96 -102.5 -125s-96.833 -43.5 -157.5 -43.5s-113.334 14.5 -158.001 43.5zM439.5 99c31 23.333 54.667 56.5 71 99.5s24.5 93.5 24.5 151.5s-8.16699 108.5 -24.5 151.5s-40 76.167 -71 99.5s-67.167 35 -108.5 35c-42 0 -78.333 -11.667 -109 -35
s-54.334 -56.5 -71.001 -99.5s-25 -93.5 -25 -151.5s8.33301 -108.5 25 -151.5s40.334 -76.167 71.001 -99.5s67 -35 109 -35c41.333 0 77.5 11.667 108.5 35zM200 900h87l78 -146h-68z" />
    <glyph glyph-name="Oacute" unicode="&#xd3;" horiz-adv-x="661" 
d="M173 33.5c-44.667 29 -79 70.667 -103 125s-36 118.166 -36 191.499s12 137.166 36 191.499s58.333 96 103 125s97.334 43.5 158.001 43.5s113.167 -14.5 157.5 -43.5s78.5 -70.667 102.5 -125s36 -118.166 36 -191.499s-12 -137.166 -36 -191.499
s-58.167 -96 -102.5 -125s-96.833 -43.5 -157.5 -43.5s-113.334 14.5 -158.001 43.5zM439.5 99c31 23.333 54.667 56.5 71 99.5s24.5 93.5 24.5 151.5s-8.16699 108.5 -24.5 151.5s-40 76.167 -71 99.5s-67.167 35 -108.5 35c-42 0 -78.333 -11.667 -109 -35
s-54.334 -56.5 -71.001 -99.5s-25 -93.5 -25 -151.5s8.33301 -108.5 25 -151.5s40.334 -76.167 71.001 -99.5s67 -35 109 -35c41.333 0 77.5 11.667 108.5 35zM379 900h87l-97 -146h-68z" />
    <glyph glyph-name="Ocircumflex" unicode="&#xd4;" horiz-adv-x="661" 
d="M173 33.5c-44.667 29 -79 70.667 -103 125s-36 118.166 -36 191.499s12 137.166 36 191.499s58.333 96 103 125s97.334 43.5 158.001 43.5s113.167 -14.5 157.5 -43.5s78.5 -70.667 102.5 -125s36 -118.166 36 -191.499s-12 -137.166 -36 -191.499
s-58.167 -96 -102.5 -125s-96.833 -43.5 -157.5 -43.5s-113.334 14.5 -158.001 43.5zM439.5 99c31 23.333 54.667 56.5 71 99.5s24.5 93.5 24.5 151.5s-8.16699 108.5 -24.5 151.5s-40 76.167 -71 99.5s-67.167 35 -108.5 35c-42 0 -78.333 -11.667 -109 -35
s-54.334 -56.5 -71.001 -99.5s-25 -93.5 -25 -151.5s8.33301 -108.5 25 -151.5s40.334 -76.167 71.001 -99.5s67 -35 109 -35c41.333 0 77.5 11.667 108.5 35zM302 897h58l112 -143h-74l-67 88l-67 -88h-74z" />
    <glyph glyph-name="Otilde" unicode="&#xd5;" horiz-adv-x="661" 
d="M173 33.5c-44.667 29 -79 70.667 -103 125s-36 118.166 -36 191.499s12 137.166 36 191.499s58.333 96 103 125s97.334 43.5 158.001 43.5s113.167 -14.5 157.5 -43.5s78.5 -70.667 102.5 -125s36 -118.166 36 -191.499s-12 -137.166 -36 -191.499
s-58.167 -96 -102.5 -125s-96.833 -43.5 -157.5 -43.5s-113.334 14.5 -158.001 43.5zM439.5 99c31 23.333 54.667 56.5 71 99.5s24.5 93.5 24.5 151.5s-8.16699 108.5 -24.5 151.5s-40 76.167 -71 99.5s-67.167 35 -108.5 35c-42 0 -78.333 -11.667 -109 -35
s-54.334 -56.5 -71.001 -99.5s-25 -93.5 -25 -151.5s8.33301 -108.5 25 -151.5s40.334 -76.167 71.001 -99.5s67 -35 109 -35c41.333 0 77.5 11.667 108.5 35zM207.5 827c15 18.667 34.501 28 58.501 28c12 0 22.833 -2 32.5 -6s23.5 -11 41.5 -21
c20.667 -13.333 36.334 -20 47.001 -20c9.33301 0 16.5 4 21.5 12s8.16699 21 9.5 39h52c-0.666992 -32 -8.66699 -57.5 -24 -76.5s-35.333 -28.5 -60 -28.5c-12.667 0 -24.667 2.5 -36 7.5s-25 12.167 -41 21.5c-19.333 12 -33 18 -41 18
c-8.66699 0 -15.834 -4.16699 -21.501 -12.5s-8.83398 -19.833 -9.50098 -34.5h-52c0 30 7.5 54.333 22.5 73z" />
    <glyph glyph-name="Odieresis" unicode="&#xd6;" horiz-adv-x="661" 
d="M173 33.5c-44.667 29 -79 70.667 -103 125s-36 118.166 -36 191.499s12 137.166 36 191.499s58.333 96 103 125s97.334 43.5 158.001 43.5s113.167 -14.5 157.5 -43.5s78.5 -70.667 102.5 -125s36 -118.166 36 -191.499s-12 -137.166 -36 -191.499
s-58.167 -96 -102.5 -125s-96.833 -43.5 -157.5 -43.5s-113.334 14.5 -158.001 43.5zM439.5 99c31 23.333 54.667 56.5 71 99.5s24.5 93.5 24.5 151.5s-8.16699 108.5 -24.5 151.5s-40 76.167 -71 99.5s-67.167 35 -108.5 35c-42 0 -78.333 -11.667 -109 -35
s-54.334 -56.5 -71.001 -99.5s-25 -93.5 -25 -151.5s8.33301 -108.5 25 -151.5s40.334 -76.167 71.001 -99.5s67 -35 109 -35c41.333 0 77.5 11.667 108.5 35zM194 768.5c-10 9.66699 -15 21.834 -15 36.501s4.83301 26.834 14.5 36.501s22.167 14.5 37.5 14.5
c14.667 0 27 -4.83301 37 -14.5s15 -21.834 15 -36.501s-5 -26.834 -15 -36.501s-22.333 -14.5 -37 -14.5s-27 4.83301 -37 14.5zM394 768.5c-10 9.66699 -15 21.834 -15 36.501s5 26.834 15 36.501s22.333 14.5 37 14.5c15.333 0 27.833 -4.83301 37.5 -14.5
s14.5 -21.834 14.5 -36.501s-5 -26.834 -15 -36.501s-22.333 -14.5 -37 -14.5s-27 4.83301 -37 14.5z" />
    <glyph glyph-name="multiply" unicode="&#xd7;" horiz-adv-x="607" 
d="M302 205l-185 -195l-55 50l187 199l-187 197l55 50l185 -194l187 194l55 -50l-187 -197l187 -199l-55 -50z" />
    <glyph glyph-name="Oslash" unicode="&#xd8;" horiz-adv-x="661" 
d="M600 519.5c18 -49.667 26.999 -106.164 26.999 -169.497c0 -73.333 -12 -137.166 -36 -191.499s-58.167 -96 -102.5 -125s-96.833 -43.5 -157.5 -43.5c-51.333 0 -97.333 10.667 -138 32l-35 -65h-73l54 103c-34 31.333 -60 71.666 -78 120.999s-27 105.666 -27 168.999
c0 73.333 12 137.166 36 191.499s58.333 96 103 125s97.334 43.5 158.001 43.5c50 0 95 -10.333 135 -31l24 46h77l-45 -85c34 -30.667 60 -70.834 78 -120.501zM181.999 140.003l247.001 469c-28 18 -60.667 27 -98 27c-42 0 -78.333 -11.667 -109 -35
s-54.334 -56.5 -71.001 -99.5s-25 -93.5 -25 -151.5c0 -88 18.667 -158 56 -210zM439.5 99.0029c31 23.333 54.667 56.5 71 99.5s24.5 93.5 24.5 151.5c0 89.333 -18.667 159.333 -56 210l-249 -467c29.333 -19.333 63 -29 101 -29c41.333 0 77.5 11.667 108.5 35z" />
    <glyph glyph-name="Ugrave" unicode="&#xd9;" horiz-adv-x="657" 
d="M140.5 61.5c-42.333 47.667 -63.501 118.5 -63.501 212.5v426h93v-424c0 -140 53 -210 159 -210s159 70 159 210v424h92v-426c0 -93.333 -21.167 -164 -63.5 -212s-104.833 -72 -187.5 -72c-83.333 0 -146.166 23.833 -188.499 71.5zM197.999 900h87l78 -146h-68z" />
    <glyph glyph-name="Uacute" unicode="&#xda;" horiz-adv-x="657" 
d="M140.5 61.5c-42.333 47.667 -63.501 118.5 -63.501 212.5v426h93v-424c0 -140 53 -210 159 -210s159 70 159 210v424h92v-426c0 -93.333 -21.167 -164 -63.5 -212s-104.833 -72 -187.5 -72c-83.333 0 -146.166 23.833 -188.499 71.5zM376.999 900h87l-97 -146h-68z" />
    <glyph glyph-name="Ucircumflex" unicode="&#xdb;" horiz-adv-x="657" 
d="M140.5 61.5c-42.333 47.667 -63.501 118.5 -63.501 212.5v426h93v-424c0 -140 53 -210 159 -210s159 70 159 210v424h92v-426c0 -93.333 -21.167 -164 -63.5 -212s-104.833 -72 -187.5 -72c-83.333 0 -146.166 23.833 -188.499 71.5zM299.999 897h58l112 -143h-74l-67 88
l-67 -88h-74z" />
    <glyph glyph-name="Udieresis" unicode="&#xdc;" horiz-adv-x="657" 
d="M140.5 61.5c-42.333 47.667 -63.501 118.5 -63.501 212.5v426h93v-424c0 -140 53 -210 159 -210s159 70 159 210v424h92v-426c0 -93.333 -21.167 -164 -63.5 -212s-104.833 -72 -187.5 -72c-83.333 0 -146.166 23.833 -188.499 71.5zM191.999 768.5
c-10 9.66699 -15 21.834 -15 36.501s4.83301 26.834 14.5 36.501s22.167 14.5 37.5 14.5c14.667 0 27 -4.83301 37 -14.5s15 -21.834 15 -36.501s-5 -26.834 -15 -36.501s-22.333 -14.5 -37 -14.5s-27 4.83301 -37 14.5zM391.999 768.5c-10 9.66699 -15 21.834 -15 36.501
s5 26.834 15 36.501s22.333 14.5 37 14.5c15.333 0 27.833 -4.83301 37.5 -14.5s14.5 -21.834 14.5 -36.501s-5 -26.834 -15 -36.501s-22.333 -14.5 -37 -14.5s-27 4.83301 -37 14.5z" />
    <glyph glyph-name="Yacute" unicode="&#xdd;" horiz-adv-x="573" 
d="M240 278l-223 422h102l167 -334l167 334h102l-222 -422v-278h-93v278zM334 900h87l-97 -146h-68z" />
    <glyph glyph-name="Thorn" unicode="&#xde;" horiz-adv-x="567" 
d="M81 700l91.999 0.000976562v-97h108c76.667 0 135 -17.833 175 -53.5s60 -87.834 60 -156.501c0 -72 -20.667 -127.333 -62 -166s-100.666 -58 -177.999 -58h-103v-169h-92v700zM287.999 245.001c44.667 0 79.167 12.5 103.5 37.5s36.5 60.5 36.5 106.5
c0 45.333 -12.667 79.833 -38 103.5s-62 35.5 -110 35.5h-107v-283h115z" />
    <glyph glyph-name="germandbls" unicode="&#xdf;" horiz-adv-x="565" 
d="M261.5 11.5c-29 14.333 -50.5 35.1729 -64.5 62.5059l55 38c12 -18.667 26.833 -32.834 44.5 -42.501s36.834 -14.5 57.501 -14.5c27.333 0 49.666 7.83301 66.999 23.5s26 36.5 26 62.5c0 25.333 -7.66699 44.5 -23 57.5s-39.666 25.833 -72.999 38.5
c-36 14 -61.833 30.667 -77.5 50s-23.5 43 -23.5 71c0 23.333 5.5 42.166 16.5 56.499s27.5 30.166 49.5 47.499c20.667 16 35.834 30.333 45.501 43s14.5 28.667 14.5 48c0 29.333 -9 51.666 -27 66.999s-44 23 -78 23c-44 0 -76.167 -13.333 -96.5 -40
s-30.5 -67.334 -30.5 -122.001v-481h-84v486c0 73.333 17.667 129 53 167s86.666 57 153.999 57c62 0 109.333 -13.5 142 -40.5s49 -66.167 49 -117.5c0 -26.667 -6.83301 -48.834 -20.5 -66.501s-32.834 -36.5 -57.501 -56.5c-17.333 -14 -30 -25.667 -38 -35
s-12 -19.666 -12 -30.999c0 -18 8.16699 -32.833 24.5 -44.5s36.5 -21.834 60.5 -30.501c77.333 -29.333 116 -77.333 116 -144c0 -46.667 -15.833 -84 -47.5 -112s-73.167 -42 -124.5 -42c-36 0 -68.5 7.16699 -97.5 21.5z" />
    <glyph glyph-name="agrave" unicode="&#xe0;" horiz-adv-x="514" 
d="M87 33c-31.333 28.667 -47.0029 65.667 -47.0029 111c0 50 18.833 88.667 56.5 116s91.167 41 160.5 41h103v26c0 37.333 -9.83301 65.833 -29.5 85.5s-48.167 29.5 -85.5 29.5c-30 0 -57.5 -6.16699 -82.5 -18.5s-45.833 -30.166 -62.5 -53.499l-43 52
c22.667 28.667 50.334 50.5 83.001 65.5s69 22.5 109 22.5c62.667 0 111 -15.333 145 -46s51 -74.667 51 -132v-235c0 -26 4 -58.333 12 -97h-74c-6 15.333 -10.333 38.666 -13 69.999h-2c-18.667 -26 -41.667 -45.833 -69 -59.5s-57.666 -20.5 -90.999 -20.5
c-49.333 0 -89.666 14.333 -120.999 43zM290.997 71.5c21.333 9.66699 38.168 22.835 50.501 39.502s18.5 35 18.5 55v74h-106c-42 0 -74.333 -8.33301 -97 -25s-34 -40.334 -34 -71.001c0 -26.667 8.83301 -47.834 26.5 -63.501s41.5 -23.5 71.5 -23.5
c25.333 0 48.666 4.83301 69.999 14.5zM122.999 700.001h87l78 -146h-68z" />
    <glyph glyph-name="aacute" unicode="&#xe1;" horiz-adv-x="514" 
d="M87 33c-31.333 28.667 -47.0029 65.667 -47.0029 111c0 50 18.833 88.667 56.5 116s91.167 41 160.5 41h103v26c0 37.333 -9.83301 65.833 -29.5 85.5s-48.167 29.5 -85.5 29.5c-30 0 -57.5 -6.16699 -82.5 -18.5s-45.833 -30.166 -62.5 -53.499l-43 52
c22.667 28.667 50.334 50.5 83.001 65.5s69 22.5 109 22.5c62.667 0 111 -15.333 145 -46s51 -74.667 51 -132v-235c0 -26 4 -58.333 12 -97h-74c-6 15.333 -10.333 38.666 -13 69.999h-2c-18.667 -26 -41.667 -45.833 -69 -59.5s-57.666 -20.5 -90.999 -20.5
c-49.333 0 -89.666 14.333 -120.999 43zM290.997 71.5c21.333 9.66699 38.168 22.835 50.501 39.502s18.5 35 18.5 55v74h-106c-42 0 -74.333 -8.33301 -97 -25s-34 -40.334 -34 -71.001c0 -26.667 8.83301 -47.834 26.5 -63.501s41.5 -23.5 71.5 -23.5
c25.333 0 48.666 4.83301 69.999 14.5zM301.999 700.001h87l-97 -146h-68z" />
    <glyph glyph-name="acircumflex" unicode="&#xe2;" horiz-adv-x="514" 
d="M87 33c-31.333 28.667 -47.0029 65.667 -47.0029 111c0 50 18.833 88.667 56.5 116s91.167 41 160.5 41h103v26c0 37.333 -9.83301 65.833 -29.5 85.5s-48.167 29.5 -85.5 29.5c-30 0 -57.5 -6.16699 -82.5 -18.5s-45.833 -30.166 -62.5 -53.499l-43 52
c22.667 28.667 50.334 50.5 83.001 65.5s69 22.5 109 22.5c62.667 0 111 -15.333 145 -46s51 -74.667 51 -132v-235c0 -26 4 -58.333 12 -97h-74c-6 15.333 -10.333 38.666 -13 69.999h-2c-18.667 -26 -41.667 -45.833 -69 -59.5s-57.666 -20.5 -90.999 -20.5
c-49.333 0 -89.666 14.333 -120.999 43zM290.997 71.5c21.333 9.66699 38.168 22.835 50.501 39.502s18.5 35 18.5 55v74h-106c-42 0 -74.333 -8.33301 -97 -25s-34 -40.334 -34 -71.001c0 -26.667 8.83301 -47.834 26.5 -63.501s41.5 -23.5 71.5 -23.5
c25.333 0 48.666 4.83301 69.999 14.5zM224.999 697.001h58l112 -143h-74l-67 88l-67 -88h-74z" />
    <glyph glyph-name="atilde" unicode="&#xe3;" horiz-adv-x="514" 
d="M87 33c-31.333 28.667 -47.0029 65.667 -47.0029 111c0 50 18.833 88.667 56.5 116s91.167 41 160.5 41h103v26c0 37.333 -9.83301 65.833 -29.5 85.5s-48.167 29.5 -85.5 29.5c-30 0 -57.5 -6.16699 -82.5 -18.5s-45.833 -30.166 -62.5 -53.499l-43 52
c22.667 28.667 50.334 50.5 83.001 65.5s69 22.5 109 22.5c62.667 0 111 -15.333 145 -46s51 -74.667 51 -132v-235c0 -26 4 -58.333 12 -97h-74c-6 15.333 -10.333 38.666 -13 69.999h-2c-18.667 -26 -41.667 -45.833 -69 -59.5s-57.666 -20.5 -90.999 -20.5
c-49.333 0 -89.666 14.333 -120.999 43zM290.997 71.5c21.333 9.66699 38.168 22.835 50.501 39.502s18.5 35 18.5 55v74h-106c-42 0 -74.333 -8.33301 -97 -25s-34 -40.334 -34 -71.001c0 -26.667 8.83301 -47.834 26.5 -63.501s41.5 -23.5 71.5 -23.5
c25.333 0 48.666 4.83301 69.999 14.5zM130.499 627.001c15 18.667 34.501 28 58.501 28c12 0 22.833 -2 32.5 -6s23.5 -11 41.5 -21c20.667 -13.333 36.334 -20 47.001 -20c9.33301 0 16.5 4 21.5 12s8.16699 21 9.5 39h52c-0.666992 -32 -8.66699 -57.5 -24 -76.5
s-35.333 -28.5 -60 -28.5c-12.667 0 -24.667 2.5 -36 7.5s-25 12.167 -41 21.5c-19.333 12 -33 18 -41 18c-8.66699 0 -15.834 -4.16699 -21.501 -12.5s-8.83398 -19.833 -9.50098 -34.5h-52c0 30 7.5 54.333 22.5 73z" />
    <glyph glyph-name="adieresis" unicode="&#xe4;" horiz-adv-x="514" 
d="M87 33c-31.333 28.667 -47.0029 65.667 -47.0029 111c0 50 18.833 88.667 56.5 116s91.167 41 160.5 41h103v26c0 37.333 -9.83301 65.833 -29.5 85.5s-48.167 29.5 -85.5 29.5c-30 0 -57.5 -6.16699 -82.5 -18.5s-45.833 -30.166 -62.5 -53.499l-43 52
c22.667 28.667 50.334 50.5 83.001 65.5s69 22.5 109 22.5c62.667 0 111 -15.333 145 -46s51 -74.667 51 -132v-235c0 -26 4 -58.333 12 -97h-74c-6 15.333 -10.333 38.666 -13 69.999h-2c-18.667 -26 -41.667 -45.833 -69 -59.5s-57.666 -20.5 -90.999 -20.5
c-49.333 0 -89.666 14.333 -120.999 43zM290.997 71.5c21.333 9.66699 38.168 22.835 50.501 39.502s18.5 35 18.5 55v74h-106c-42 0 -74.333 -8.33301 -97 -25s-34 -40.334 -34 -71.001c0 -26.667 8.83301 -47.834 26.5 -63.501s41.5 -23.5 71.5 -23.5
c25.333 0 48.666 4.83301 69.999 14.5zM116.999 568.501c-10 9.66699 -15 21.834 -15 36.501s4.83301 26.834 14.5 36.501s22.167 14.5 37.5 14.5c14.667 0 27 -4.83301 37 -14.5s15 -21.834 15 -36.501s-5 -26.834 -15 -36.501s-22.333 -14.5 -37 -14.5
s-27 4.83301 -37 14.5zM316.999 568.501c-10 9.66699 -15 21.834 -15 36.501s5 26.834 15 36.501s22.333 14.5 37 14.5c15.333 0 27.833 -4.83301 37.5 -14.5s14.5 -21.834 14.5 -36.501s-5 -26.834 -15 -36.501s-22.333 -14.5 -37 -14.5s-27 4.83301 -37 14.5z" />
    <glyph glyph-name="aring" unicode="&#xe5;" horiz-adv-x="514" 
d="M87 33c-31.333 28.667 -47.0029 65.667 -47.0029 111c0 50 18.833 88.667 56.5 116s91.167 41 160.5 41h103v26c0 37.333 -9.83301 65.833 -29.5 85.5s-48.167 29.5 -85.5 29.5c-30 0 -57.5 -6.16699 -82.5 -18.5s-45.833 -30.166 -62.5 -53.499l-43 52
c22.667 28.667 50.334 50.5 83.001 65.5s69 22.5 109 22.5c62.667 0 111 -15.333 145 -46s51 -74.667 51 -132v-235c0 -26 4 -58.333 12 -97h-74c-6 15.333 -10.333 38.666 -13 69.999h-2c-18.667 -26 -41.667 -45.833 -69 -59.5s-57.666 -20.5 -90.999 -20.5
c-49.333 0 -89.666 14.333 -120.999 43zM290.997 71.5c21.333 9.66699 38.168 22.835 50.501 39.502s18.5 35 18.5 55v74h-106c-42 0 -74.333 -8.33301 -97 -25s-34 -40.334 -34 -71.001c0 -26.667 8.83301 -47.834 26.5 -63.501s41.5 -23.5 71.5 -23.5
c25.333 0 48.666 4.83301 69.999 14.5zM185.499 563.001c-17.667 16.667 -26.5 38 -26.5 64s8.83301 47.333 26.5 64s40.5 25 68.5 25s50.833 -8.33301 68.5 -25s26.5 -38 26.5 -64s-8.83301 -47.333 -26.5 -64s-40.5 -25 -68.5 -25s-50.833 8.33301 -68.5 25z
M289.999 590.501c9.33301 9.66699 14 21.834 14 36.501s-4.66699 26.834 -14 36.501s-21.333 14.5 -36 14.5s-26.667 -4.83301 -36 -14.5s-14 -21.834 -14 -36.501s4.66699 -26.834 14 -36.501s21.333 -14.5 36 -14.5s26.667 4.83301 36 14.5z" />
    <glyph glyph-name="ae" unicode="&#xe6;" horiz-adv-x="830" 
d="M794 233l-356.001 -0.00292969c2.66699 -55.333 16.834 -97.666 42.501 -126.999s61.167 -44 106.5 -44c58 0 104.667 23.667 140 71l48 -46c-19.333 -30.667 -45.666 -54.5 -78.999 -71.5s-70.666 -25.5 -111.999 -25.5c-81.333 0 -142.333 28.667 -183 86
c-20.667 -26 -47.5 -46.833 -80.5 -62.5s-68.167 -23.5 -105.5 -23.5c-52 0 -94.167 13.833 -126.5 41.5s-48.5 63.834 -48.5 108.501c0 48.667 17.667 86.5 53 113.5s85 40.5 149 40.5h112v33c0 37.333 -9.5 65.833 -28.5 85.5s-46.833 29.5 -83.5 29.5
c-30 0 -57.333 -6.16699 -82 -18.5s-45 -30.166 -61 -53.499l-42 52c22 28.667 49.167 50.5 81.5 65.5s68.166 22.5 107.499 22.5c38 0 71.167 -6.5 99.5 -19.5s50.166 -31.5 65.499 -55.5c41.333 50 98.333 75 171 75c68 0 120.333 -21.167 157 -63.5
s55 -102.833 55 -181.5v-32zM710.999 298.997c0 46.667 -11.332 81.999 -33.999 105.999s-55.667 36 -99 36c-38.667 0 -69.834 -12.667 -93.501 -38s-38.5 -61.666 -44.5 -108.999h271v5zM354 232.996l-104.001 -0.00195312c-40 0 -71.333 -8.16699 -94 -24.5
s-34 -39.166 -34 -68.499c0 -24.667 8.83301 -44.667 26.5 -60s41.167 -23 70.5 -23c24.667 0 47.334 4.83301 68.001 14.5s37 22.834 49 39.501s18 35 18 55v67z" />
    <glyph glyph-name="ccedilla" unicode="&#xe7;" horiz-adv-x="473" 
d="M347.5 77.5c23.667 13 42.834 30.833 57.501 53.5l51 -46c-34 -55.333 -87.333 -86.666 -160 -93.999l-28 -53c27.333 0 49.333 -6.16699 66 -18.5s25 -29.833 25 -52.5c0 -26.667 -9.16699 -48 -27.5 -64s-43.5 -24 -75.5 -24c-13.333 0 -27.333 1.16699 -42 3.5
s-26 5.5 -34 9.5l8 39c15.333 -4.66699 34 -7 56 -7c16 0 29.167 3.5 39.5 10.5s15.5 17.167 15.5 30.5c0 12 -6.66699 21.333 -20 28s-32.333 9.66699 -57 9l-20 22l38 67c-65.333 6 -116 31.5 -152 76.5s-54 105.833 -54 182.5c0 82 20.5 145.833 61.5 191.5
s98.5 68.5 172.5 68.5c42 0 79.167 -8.16699 111.5 -24.5s57.833 -39.833 76.5 -70.5l-51 -46c-14.667 22.667 -33.834 40.5 -57.501 53.5s-49.167 19.5 -76.5 19.5c-47.333 0 -84.5 -16.833 -111.5 -50.5s-40.5 -80.834 -40.5 -141.501c0 -60 13.5 -107 40.5 -141
s64.167 -51 111.5 -51c27.333 0 52.833 6.5 76.5 19.5z" />
    <glyph glyph-name="egrave" unicode="&#xe8;" horiz-adv-x="518" 
d="M482 217l-360.002 0.000976562c4.66699 -50.667 19.667 -89.167 45 -115.5s60.333 -39.5 105 -39.5c60 0 107.667 23.667 143 71l48 -46c-19.333 -30.667 -46.166 -54.5 -80.499 -71.5s-72.166 -25.5 -113.499 -25.5c-74 0 -131.333 22.667 -172 68s-61 109 -61 191
c0 81.333 20.5 145.166 61.5 191.499s97.5 69.5 169.5 69.5c67.333 0 120 -22.833 158 -68.5s57 -109.5 57 -191.5v-33zM403.998 287.001c0 48 -12.501 85.667 -37.501 113s-59.5 41 -103.5 41c-41.333 0 -74.166 -14 -98.499 -42s-38.5 -67.667 -42.5 -119h282v7z
M134.997 700.001h87l78 -146h-68z" />
    <glyph glyph-name="eacute" unicode="&#xe9;" horiz-adv-x="518" 
d="M482 217l-360.002 0.000976562c4.66699 -50.667 19.667 -89.167 45 -115.5s60.333 -39.5 105 -39.5c60 0 107.667 23.667 143 71l48 -46c-19.333 -30.667 -46.166 -54.5 -80.499 -71.5s-72.166 -25.5 -113.499 -25.5c-74 0 -131.333 22.667 -172 68s-61 109 -61 191
c0 81.333 20.5 145.166 61.5 191.499s97.5 69.5 169.5 69.5c67.333 0 120 -22.833 158 -68.5s57 -109.5 57 -191.5v-33zM403.998 287.001c0 48 -12.501 85.667 -37.501 113s-59.5 41 -103.5 41c-41.333 0 -74.166 -14 -98.499 -42s-38.5 -67.667 -42.5 -119h282v7z
M313.997 700.001h87l-97 -146h-68z" />
    <glyph glyph-name="ecircumflex" unicode="&#xea;" horiz-adv-x="518" 
d="M482 217l-360.002 0.000976562c4.66699 -50.667 19.667 -89.167 45 -115.5s60.333 -39.5 105 -39.5c60 0 107.667 23.667 143 71l48 -46c-19.333 -30.667 -46.166 -54.5 -80.499 -71.5s-72.166 -25.5 -113.499 -25.5c-74 0 -131.333 22.667 -172 68s-61 109 -61 191
c0 81.333 20.5 145.166 61.5 191.499s97.5 69.5 169.5 69.5c67.333 0 120 -22.833 158 -68.5s57 -109.5 57 -191.5v-33zM403.998 287.001c0 48 -12.501 85.667 -37.501 113s-59.5 41 -103.5 41c-41.333 0 -74.166 -14 -98.499 -42s-38.5 -67.667 -42.5 -119h282v7z
M236.997 697.001h58l112 -143h-74l-67 88l-67 -88h-74z" />
    <glyph glyph-name="edieresis" unicode="&#xeb;" horiz-adv-x="518" 
d="M482 217l-360.002 0.000976562c4.66699 -50.667 19.667 -89.167 45 -115.5s60.333 -39.5 105 -39.5c60 0 107.667 23.667 143 71l48 -46c-19.333 -30.667 -46.166 -54.5 -80.499 -71.5s-72.166 -25.5 -113.499 -25.5c-74 0 -131.333 22.667 -172 68s-61 109 -61 191
c0 81.333 20.5 145.166 61.5 191.499s97.5 69.5 169.5 69.5c67.333 0 120 -22.833 158 -68.5s57 -109.5 57 -191.5v-33zM403.998 287.001c0 48 -12.501 85.667 -37.501 113s-59.5 41 -103.5 41c-41.333 0 -74.166 -14 -98.499 -42s-38.5 -67.667 -42.5 -119h282v7z
M128.997 568.501c-10 9.66699 -15 21.834 -15 36.501s4.83301 26.834 14.5 36.501s22.167 14.5 37.5 14.5c14.667 0 27 -4.83301 37 -14.5s15 -21.834 15 -36.501s-5 -26.834 -15 -36.501s-22.333 -14.5 -37 -14.5s-27 4.83301 -37 14.5zM328.997 568.501
c-10 9.66699 -15 21.834 -15 36.501s5 26.834 15 36.501s22.333 14.5 37 14.5c15.333 0 27.833 -4.83301 37.5 -14.5s14.5 -21.834 14.5 -36.501s-5 -26.834 -15 -36.501s-22.333 -14.5 -37 -14.5s-27 4.83301 -37 14.5z" />
    <glyph glyph-name="igrave" unicode="&#xec;" horiz-adv-x="253" 
d="M84 500h85v-500h-85v500zM-5 700h87l78 -146h-68z" />
    <glyph glyph-name="iacute" unicode="&#xed;" horiz-adv-x="253" 
d="M84 500h85v-500h-85v500zM174 700h87l-97 -146h-68z" />
    <glyph glyph-name="icircumflex" unicode="&#xee;" horiz-adv-x="253" 
d="M84 500h85v-500h-85v500zM97 697h58l112 -143h-74l-67 88l-67 -88h-74z" />
    <glyph glyph-name="idieresis" unicode="&#xef;" horiz-adv-x="253" 
d="M84 500h85v-500h-85v500zM-11 568.5c-10 9.66699 -15 21.834 -15 36.501s4.83301 26.834 14.5 36.501s22.167 14.5 37.5 14.5c14.667 0 27 -4.83301 37 -14.5s15 -21.834 15 -36.501s-5 -26.834 -15 -36.501s-22.333 -14.5 -37 -14.5s-27 4.83301 -37 14.5zM189 568.5
c-10 9.66699 -15 21.834 -15 36.501s5 26.834 15 36.501s22.333 14.5 37 14.5c15.333 0 27.833 -4.83301 37.5 -14.5s14.5 -21.834 14.5 -36.501s-5 -26.834 -15 -36.501s-22.333 -14.5 -37 -14.5s-27 4.83301 -37 14.5z" />
    <glyph glyph-name="eth" unicode="&#xf0;" horiz-adv-x="498" 
d="M422 440.5c26.667 -59 39.998 -121.502 39.998 -187.502c0 -53.333 -9 -99.833 -27 -139.5s-43.5 -70.167 -76.5 -91.5s-71.5 -32 -115.5 -32c-40.667 0 -76.667 9.33301 -108 28s-55.666 44.834 -72.999 78.501s-26 72.167 -26 115.5c0 44 8.83301 83.5 26.5 118.5
s42 62.5 73 82.5s65.833 30 104.5 30c23.333 0 45.5 -4.66699 66.5 -14s37.833 -21.666 50.5 -36.999c-18.667 62 -53.667 116.333 -105 163l-128 -83l-34 50l111 72c-38 26 -80.667 44.667 -128 56l7 52c64.667 -10 124.334 -33.333 179.001 -70l117 76l33 -52l-98 -64
c47.333 -42 84.333 -92.5 111 -151.5zM343.998 102.498c24 28.333 36.001 66.166 36.001 113.499c0 48.667 -11.833 87.334 -35.5 116.001s-55.834 43 -96.501 43c-39.333 0 -70.5 -14.333 -93.5 -43s-34.5 -67.334 -34.5 -116.001c0 -47.333 11.667 -85.166 35 -113.499
s54.333 -42.5 93 -42.5c40 0 72 14.167 96 42.5z" />
    <glyph glyph-name="ntilde" unicode="&#xf1;" horiz-adv-x="549" 
d="M60 374c0 63.333 -1.33105 105.332 -3.99805 125.999h79c2.66699 -22 4 -51.667 4 -89h3c14.667 30.667 37.167 54.834 67.5 72.501s64.166 26.5 101.499 26.5c58.667 0 102.667 -19 132 -57s44 -94.667 44 -170v-283h-85v284c0 53.333 -9 93 -27 119s-45.333 39 -82 39
c-28 0 -53.333 -7.16699 -76 -21.5s-40.334 -34.333 -53.001 -60s-19 -54.5 -19 -86.5v-274h-85v374zM150.502 626.999c15 18.667 34.501 28 58.501 28c12 0 22.833 -2 32.5 -6s23.5 -11 41.5 -21c20.667 -13.333 36.334 -20 47.001 -20c9.33301 0 16.5 4 21.5 12
s8.16699 21 9.5 39h52c-0.666992 -32 -8.66699 -57.5 -24 -76.5s-35.333 -28.5 -60 -28.5c-12.667 0 -24.667 2.5 -36 7.5s-25 12.167 -41 21.5c-19.333 12 -33 18 -41 18c-8.66699 0 -15.834 -4.16699 -21.501 -12.5s-8.83398 -19.833 -9.50098 -34.5h-52
c0 30 7.5 54.333 22.5 73z" />
    <glyph glyph-name="ograve" unicode="&#xf2;" horiz-adv-x="557" 
d="M149.5 21.5c-36.333 21 -64.333 51.167 -84 90.5s-29.5 85.333 -29.5 138s9.83301 98.667 29.5 138s47.667 69.5 84 90.5s79.166 31.5 128.499 31.5c74.667 0 133.834 -23.333 177.501 -70s65.5 -110 65.5 -190s-21.833 -143.333 -65.5 -190s-102.834 -70 -177.501 -70
c-49.333 0 -92.166 10.5 -128.499 31.5zM394 107c28 34.667 42 82.334 42 143.001s-14 108.334 -42 143.001s-66.667 52 -116 52c-48.667 0 -87 -17.333 -115 -52s-42 -82.334 -42 -143.001s14 -108.334 42 -143.001s66.333 -52 115 -52c49.333 0 88 17.333 116 52zM147 700
h87l78 -146h-68z" />
    <glyph glyph-name="oacute" unicode="&#xf3;" horiz-adv-x="557" 
d="M149.5 21.5c-36.333 21 -64.333 51.167 -84 90.5s-29.5 85.333 -29.5 138s9.83301 98.667 29.5 138s47.667 69.5 84 90.5s79.166 31.5 128.499 31.5c74.667 0 133.834 -23.333 177.501 -70s65.5 -110 65.5 -190s-21.833 -143.333 -65.5 -190s-102.834 -70 -177.501 -70
c-49.333 0 -92.166 10.5 -128.499 31.5zM394 107c28 34.667 42 82.334 42 143.001s-14 108.334 -42 143.001s-66.667 52 -116 52c-48.667 0 -87 -17.333 -115 -52s-42 -82.334 -42 -143.001s14 -108.334 42 -143.001s66.333 -52 115 -52c49.333 0 88 17.333 116 52zM326 700
h87l-97 -146h-68z" />
    <glyph glyph-name="ocircumflex" unicode="&#xf4;" horiz-adv-x="557" 
d="M149.5 21.5c-36.333 21 -64.333 51.167 -84 90.5s-29.5 85.333 -29.5 138s9.83301 98.667 29.5 138s47.667 69.5 84 90.5s79.166 31.5 128.499 31.5c74.667 0 133.834 -23.333 177.501 -70s65.5 -110 65.5 -190s-21.833 -143.333 -65.5 -190s-102.834 -70 -177.501 -70
c-49.333 0 -92.166 10.5 -128.499 31.5zM394 107c28 34.667 42 82.334 42 143.001s-14 108.334 -42 143.001s-66.667 52 -116 52c-48.667 0 -87 -17.333 -115 -52s-42 -82.334 -42 -143.001s14 -108.334 42 -143.001s66.333 -52 115 -52c49.333 0 88 17.333 116 52zM249 697
h58l112 -143h-74l-67 88l-67 -88h-74z" />
    <glyph glyph-name="otilde" unicode="&#xf5;" horiz-adv-x="557" 
d="M149.5 21.5c-36.333 21 -64.333 51.167 -84 90.5s-29.5 85.333 -29.5 138s9.83301 98.667 29.5 138s47.667 69.5 84 90.5s79.166 31.5 128.499 31.5c74.667 0 133.834 -23.333 177.501 -70s65.5 -110 65.5 -190s-21.833 -143.333 -65.5 -190s-102.834 -70 -177.501 -70
c-49.333 0 -92.166 10.5 -128.499 31.5zM394 107c28 34.667 42 82.334 42 143.001s-14 108.334 -42 143.001s-66.667 52 -116 52c-48.667 0 -87 -17.333 -115 -52s-42 -82.334 -42 -143.001s14 -108.334 42 -143.001s66.333 -52 115 -52c49.333 0 88 17.333 116 52z
M154.5 627c15 18.667 34.501 28 58.501 28c12 0 22.833 -2 32.5 -6s23.5 -11 41.5 -21c20.667 -13.333 36.334 -20 47.001 -20c9.33301 0 16.5 4 21.5 12s8.16699 21 9.5 39h52c-0.666992 -32 -8.66699 -57.5 -24 -76.5s-35.333 -28.5 -60 -28.5
c-12.667 0 -24.667 2.5 -36 7.5s-25 12.167 -41 21.5c-19.333 12 -33 18 -41 18c-8.66699 0 -15.834 -4.16699 -21.501 -12.5s-8.83398 -19.833 -9.50098 -34.5h-52c0 30 7.5 54.333 22.5 73z" />
    <glyph glyph-name="odieresis" unicode="&#xf6;" horiz-adv-x="557" 
d="M149.5 21.5c-36.333 21 -64.333 51.167 -84 90.5s-29.5 85.333 -29.5 138s9.83301 98.667 29.5 138s47.667 69.5 84 90.5s79.166 31.5 128.499 31.5c74.667 0 133.834 -23.333 177.501 -70s65.5 -110 65.5 -190s-21.833 -143.333 -65.5 -190s-102.834 -70 -177.501 -70
c-49.333 0 -92.166 10.5 -128.499 31.5zM394 107c28 34.667 42 82.334 42 143.001s-14 108.334 -42 143.001s-66.667 52 -116 52c-48.667 0 -87 -17.333 -115 -52s-42 -82.334 -42 -143.001s14 -108.334 42 -143.001s66.333 -52 115 -52c49.333 0 88 17.333 116 52z
M141 568.5c-10 9.66699 -15 21.834 -15 36.501s4.83301 26.834 14.5 36.501s22.167 14.5 37.5 14.5c14.667 0 27 -4.83301 37 -14.5s15 -21.834 15 -36.501s-5 -26.834 -15 -36.501s-22.333 -14.5 -37 -14.5s-27 4.83301 -37 14.5zM341 568.5
c-10 9.66699 -15 21.834 -15 36.501s5 26.834 15 36.501s22.333 14.5 37 14.5c15.333 0 27.833 -4.83301 37.5 -14.5s14.5 -21.834 14.5 -36.501s-5 -26.834 -15 -36.501s-22.333 -14.5 -37 -14.5s-27 4.83301 -37 14.5z" />
    <glyph glyph-name="divide" unicode="&#xf7;" horiz-adv-x="607" 
d="M261 402.5c-11.333 11 -17 24.833 -17 41.5s5.66699 30.5 17 41.5s25.666 16.5 42.999 16.5s31.666 -5.5 42.999 -16.5s17 -24.833 17 -41.5s-5.66699 -30.5 -17 -41.5s-25.666 -16.5 -42.999 -16.5s-31.666 5.5 -42.999 16.5zM51 296h505v-68h-505v68zM261 38.5
c-11.333 11 -17 25.167 -17 42.5c0 16.667 5.66699 30.334 17 41.001s25.666 16 42.999 16s31.666 -5.33301 42.999 -16s17 -24.334 17 -41.001c0 -17.333 -5.66699 -31.5 -17 -42.5s-25.666 -16.5 -42.999 -16.5s-31.666 5.5 -42.999 16.5z" />
    <glyph glyph-name="oslash" unicode="&#xf8;" horiz-adv-x="557" 
d="M497 376.5c16 -36.333 24.001 -78.5 24.001 -126.5c0 -80 -21.833 -143.333 -65.5 -190s-102.834 -70 -177.501 -70c-35.333 0 -66.666 5.33301 -93.999 16l-26 -49h-64l39 75c-31.333 22 -55.333 51.5 -72 88.5s-25 80.167 -25 129.5c0 52.667 9.83301 98.667 29.5 138
s47.667 69.5 84 90.5s79.166 31.5 128.499 31.5c35.333 0 68 -5.66699 98 -17l22 42h68l-38 -71c30 -22 53 -51.167 69 -87.5zM169.001 100l175 332.001c-21.333 8.66699 -43.333 13 -66 13c-48.667 0 -87 -17.333 -115 -52s-42 -82.334 -42 -143.001c0 -66 16 -116 48 -150
zM394.001 107.001c28 34.667 42 82.333 42 143c0 62 -14.667 110.333 -44 145l-176 -328c19.333 -8 40 -12 62 -12c49.333 0 88 17.333 116 52z" />
    <glyph glyph-name="ugrave" unicode="&#xf9;" horiz-adv-x="552" 
d="M105.5 46c-29.667 37.333 -44.502 92.333 -44.502 165v289h85v-290c0 -101.333 36 -152 108 -152c28 0 53.333 7.16699 76 21.5s40.334 34.333 53.001 60s19 54.5 19 86.5v274h85v-394c0 -33.333 3 -68.666 9 -105.999h-78c-6 29.333 -9.33301 59 -10 89h-3
c-14.667 -30.667 -37.167 -54.834 -67.5 -72.501s-64.166 -26.5 -101.499 -26.5c-57.333 0 -100.833 18.667 -130.5 56zM147.998 700h87l78 -146h-68z" />
    <glyph glyph-name="uacute" unicode="&#xfa;" horiz-adv-x="552" 
d="M105.5 46c-29.667 37.333 -44.502 92.333 -44.502 165v289h85v-290c0 -101.333 36 -152 108 -152c28 0 53.333 7.16699 76 21.5s40.334 34.333 53.001 60s19 54.5 19 86.5v274h85v-394c0 -33.333 3 -68.666 9 -105.999h-78c-6 29.333 -9.33301 59 -10 89h-3
c-14.667 -30.667 -37.167 -54.834 -67.5 -72.501s-64.166 -26.5 -101.499 -26.5c-57.333 0 -100.833 18.667 -130.5 56zM326.998 700h87l-97 -146h-68z" />
    <glyph glyph-name="ucircumflex" unicode="&#xfb;" horiz-adv-x="552" 
d="M105.5 46c-29.667 37.333 -44.502 92.333 -44.502 165v289h85v-290c0 -101.333 36 -152 108 -152c28 0 53.333 7.16699 76 21.5s40.334 34.333 53.001 60s19 54.5 19 86.5v274h85v-394c0 -33.333 3 -68.666 9 -105.999h-78c-6 29.333 -9.33301 59 -10 89h-3
c-14.667 -30.667 -37.167 -54.834 -67.5 -72.501s-64.166 -26.5 -101.499 -26.5c-57.333 0 -100.833 18.667 -130.5 56zM249.998 697h58l112 -143h-74l-67 88l-67 -88h-74z" />
    <glyph glyph-name="udieresis" unicode="&#xfc;" horiz-adv-x="552" 
d="M105.5 46c-29.667 37.333 -44.502 92.333 -44.502 165v289h85v-290c0 -101.333 36 -152 108 -152c28 0 53.333 7.16699 76 21.5s40.334 34.333 53.001 60s19 54.5 19 86.5v274h85v-394c0 -33.333 3 -68.666 9 -105.999h-78c-6 29.333 -9.33301 59 -10 89h-3
c-14.667 -30.667 -37.167 -54.834 -67.5 -72.501s-64.166 -26.5 -101.499 -26.5c-57.333 0 -100.833 18.667 -130.5 56zM141.998 568.5c-10 9.66699 -15 21.834 -15 36.501s4.83301 26.834 14.5 36.501s22.167 14.5 37.5 14.5c14.667 0 27 -4.83301 37 -14.5
s15 -21.834 15 -36.501s-5 -26.834 -15 -36.501s-22.333 -14.5 -37 -14.5s-27 4.83301 -37 14.5zM341.998 568.5c-10 9.66699 -15 21.834 -15 36.501s5 26.834 15 36.501s22.333 14.5 37 14.5c15.333 0 27.833 -4.83301 37.5 -14.5s14.5 -21.834 14.5 -36.501
s-5 -26.834 -15 -36.501s-22.333 -14.5 -37 -14.5s-27 4.83301 -37 14.5z" />
    <glyph glyph-name="yacute" unicode="&#xfd;" horiz-adv-x="462" 
d="M451 500l-181 -509.001c-46 -128.667 -117 -193 -213 -193c-17.333 0 -36 2.33301 -56 7v65c12 -4 26.667 -6 44 -6c34 0 63 12.333 87 37s47 66.334 69 125.001l-186 474h91l134 -383l119 383h92zM284 699.999h87l-97 -146h-68z" />
    <glyph glyph-name="thorn" unicode="&#xfe;" horiz-adv-x="534" 
d="M59 742l83.9971 0.00195312v-303c12.667 22 32.334 39.333 59.001 52s56.334 19 89.001 19c64.667 0 115.334 -22.667 152.001 -68s55 -108.333 55 -189c0 -52.667 -8.83301 -98.834 -26.5 -138.501s-42.5 -70.334 -74.5 -92.001s-69.333 -32.5 -112 -32.5
c-32 0 -60.5 6 -85.5 18s-43.833 28.667 -56.5 50v-292h-84v976zM376.497 109.002c25 36 37.5 84.334 37.5 145.001c0 59.333 -12 105.666 -36 138.999s-57.333 50 -100 50c-40 0 -72.5 -13.5 -97.5 -40.5s-37.5 -61.833 -37.5 -104.5v-81c0 -50 11.833 -89.5 35.5 -118.5
s56.167 -43.5 97.5 -43.5c42 0 75.5 18 100.5 54z" />
    <glyph glyph-name="ydieresis" unicode="&#xff;" horiz-adv-x="462" 
d="M451 500l-181 -509.001c-46 -128.667 -117 -193 -213 -193c-17.333 0 -36 2.33301 -56 7v65c12 -4 26.667 -6 44 -6c34 0 63 12.333 87 37s47 66.334 69 125.001l-186 474h91l134 -383l119 383h92zM99 568.499c-10 9.66699 -15 21.834 -15 36.501
s4.83301 26.834 14.5 36.501s22.167 14.5 37.5 14.5c14.667 0 27 -4.83301 37 -14.5s15 -21.834 15 -36.501s-5 -26.834 -15 -36.501s-22.333 -14.5 -37 -14.5s-27 4.83301 -37 14.5zM299 568.499c-10 9.66699 -15 21.834 -15 36.501s5 26.834 15 36.501
s22.333 14.5 37 14.5c15.333 0 27.833 -4.83301 37.5 -14.5s14.5 -21.834 14.5 -36.501s-5 -26.834 -15 -36.501s-22.333 -14.5 -37 -14.5s-27 4.83301 -37 14.5z" />
    <glyph glyph-name="Amacron" unicode="&#x100;" horiz-adv-x="596" 
d="M434 151h-272l-47 -151h-98l238 700h86l238 -700h-98zM410 226l-112 359l-112 -359h224zM142 823h312v-59h-312v59z" />
    <glyph glyph-name="amacron" unicode="&#x101;" horiz-adv-x="514" 
d="M87 33c-31.333 28.667 -47.0029 65.667 -47.0029 111c0 50 18.833 88.667 56.5 116s91.167 41 160.5 41h103v26c0 37.333 -9.83301 65.833 -29.5 85.5s-48.167 29.5 -85.5 29.5c-30 0 -57.5 -6.16699 -82.5 -18.5s-45.833 -30.166 -62.5 -53.499l-43 52
c22.667 28.667 50.334 50.5 83.001 65.5s69 22.5 109 22.5c62.667 0 111 -15.333 145 -46s51 -74.667 51 -132v-235c0 -26 4 -58.333 12 -97h-74c-6 15.333 -10.333 38.666 -13 69.999h-2c-18.667 -26 -41.667 -45.833 -69 -59.5s-57.666 -20.5 -90.999 -20.5
c-49.333 0 -89.666 14.333 -120.999 43zM290.997 71.5c21.333 9.66699 38.168 22.835 50.501 39.502s18.5 35 18.5 55v74h-106c-42 0 -74.333 -8.33301 -97 -25s-34 -40.334 -34 -71.001c0 -26.667 8.83301 -47.834 26.5 -63.501s41.5 -23.5 71.5 -23.5
c25.333 0 48.666 4.83301 69.999 14.5zM97.999 623.001h312v-59h-312v59z" />
    <glyph glyph-name="Abreve" unicode="&#x102;" horiz-adv-x="596" 
d="M434 151h-272l-47 -151h-98l238 700h86l238 -700h-98zM410 226l-112 359l-112 -359h224zM194.5 787.5c-25.667 22.333 -39.5 55.5 -41.5 99.5h54c1.33301 -23.333 9.66602 -41.833 24.999 -55.5s37.333 -20.5 66 -20.5c26.667 0 48 6.33301 64 19s25 31.667 27 57h54
c-1.33301 -41.333 -14.166 -73.833 -38.499 -97.5s-59.833 -35.5 -106.5 -35.5c-43.333 0 -77.833 11.167 -103.5 33.5z" />
    <glyph glyph-name="abreve" unicode="&#x103;" horiz-adv-x="514" 
d="M87 33c-31.333 28.667 -47.0029 65.667 -47.0029 111c0 50 18.833 88.667 56.5 116s91.167 41 160.5 41h103v26c0 37.333 -9.83301 65.833 -29.5 85.5s-48.167 29.5 -85.5 29.5c-30 0 -57.5 -6.16699 -82.5 -18.5s-45.833 -30.166 -62.5 -53.499l-43 52
c22.667 28.667 50.334 50.5 83.001 65.5s69 22.5 109 22.5c62.667 0 111 -15.333 145 -46s51 -74.667 51 -132v-235c0 -26 4 -58.333 12 -97h-74c-6 15.333 -10.333 38.666 -13 69.999h-2c-18.667 -26 -41.667 -45.833 -69 -59.5s-57.666 -20.5 -90.999 -20.5
c-49.333 0 -89.666 14.333 -120.999 43zM290.997 71.5c21.333 9.66699 38.168 22.835 50.501 39.502s18.5 35 18.5 55v74h-106c-42 0 -74.333 -8.33301 -97 -25s-34 -40.334 -34 -71.001c0 -26.667 8.83301 -47.834 26.5 -63.501s41.5 -23.5 71.5 -23.5
c25.333 0 48.666 4.83301 69.999 14.5zM150.499 587.501c-25.667 22.333 -39.5 55.5 -41.5 99.5h54c1.33301 -23.333 9.66602 -41.833 24.999 -55.5s37.333 -20.5 66 -20.5c26.667 0 48 6.33301 64 19s25 31.667 27 57h54c-1.33301 -41.333 -14.166 -73.833 -38.499 -97.5
s-59.833 -35.5 -106.5 -35.5c-43.333 0 -77.833 11.167 -103.5 33.5z" />
    <glyph glyph-name="Aogonek" unicode="&#x104;" horiz-adv-x="596" 
d="M596 -181c-11.333 -9.33301 -24.832 -16.666 -40.499 -21.999s-32.167 -8 -49.5 -8c-30 0 -53.833 7.5 -71.5 22.5s-26.5 37.5 -26.5 67.5c0 49.333 28.333 89.666 85 120.999h-12l-47 151h-272l-47 -151h-98l238 700h86l238 -700h-28
c-54 -37.333 -81 -73.666 -81 -108.999c0 -14.667 5.16699 -26.334 15.5 -35.001s26.166 -13 47.499 -13c14.667 0 32 4 52 12zM410.001 226l-112 359l-112 -359h224z" />
    <glyph glyph-name="aogonek" unicode="&#x105;" horiz-adv-x="514" 
d="M491 -181c-11.333 -9.33301 -24.835 -16.666 -40.502 -21.999s-32.167 -8 -49.5 -8c-30 0 -53.833 7.5 -71.5 22.5s-26.5 37.5 -26.5 67.5c0 49.333 28.333 89.666 85 120.999h-5c-6 15.333 -10.333 38.666 -13 69.999h-2c-18.667 -26 -41.667 -45.833 -69 -59.5
s-57.666 -20.5 -90.999 -20.5c-49.333 0 -89.666 14.333 -120.999 43s-47 65.667 -47 111c0 50 18.833 88.667 56.5 116s91.167 41 160.5 41h103v26c0 37.333 -9.83301 65.833 -29.5 85.5s-48.167 29.5 -85.5 29.5c-30 0 -57.5 -6.16699 -82.5 -18.5
s-45.833 -30.166 -62.5 -53.499l-43 52c22.667 28.667 50.334 50.5 83.001 65.5s69 22.5 109 22.5c62.667 0 111 -15.333 145 -46s51 -74.667 51 -132v-235c0 -26 4 -58.333 12 -97h-11c-54 -37.333 -81 -73.666 -81 -108.999c0 -14.667 5.16699 -26.334 15.5 -35.001
s26.166 -13 47.499 -13c14.667 0 32 4 52 12zM359.998 240l-105.998 0.000976562c-42 0 -74.333 -8.33301 -97 -25s-34 -40.334 -34 -71.001c0 -26.667 8.83301 -47.834 26.5 -63.501s41.5 -23.5 71.5 -23.5c25.333 0 48.666 4.83301 69.999 14.5
s38.166 22.834 50.499 39.501s18.5 35 18.5 55v74z" />
    <glyph glyph-name="Cacute" unicode="&#x106;" horiz-adv-x="585" 
d="M176 34c-45.333 29.333 -80.335 70.999 -105.002 124.999s-37 117.667 -37 191s12.5 137 37.5 191s60.5 95.667 106.5 125s100 44 162 44c49.333 0 93.333 -9.66699 132 -29s67.334 -46 86.001 -80l-52 -51c-36.667 56 -91.667 84 -165 84
c-67.333 0 -119.833 -24.833 -157.5 -74.5s-56.5 -119.5 -56.5 -209.5c0 -89.333 18.5 -159 55.5 -209s88.167 -75 153.5 -75c40 0 73.833 6.83301 101.5 20.5s50.5 34.834 68.5 63.501l52 -51c-19.333 -34.667 -48.333 -61.5 -87 -80.5s-83.667 -28.5 -135 -28.5
c-61.333 0 -114.666 14.667 -159.999 44zM383.998 899.999h87l-97 -146h-68z" />
    <glyph glyph-name="cacute" unicode="&#x107;" horiz-adv-x="473" 
d="M95.5 58.5c-41 45.667 -61.5 109.501 -61.5 191.501s20.5 145.833 61.5 191.5s98.5 68.5 172.5 68.5c42 0 79.167 -8.16699 111.5 -24.5s57.833 -39.833 76.5 -70.5l-51 -46c-14.667 22.667 -33.834 40.5 -57.501 53.5s-49.167 19.5 -76.5 19.5
c-47.333 0 -84.5 -16.833 -111.5 -50.5s-40.5 -80.834 -40.5 -141.501c0 -60 13.5 -107 40.5 -141s64.167 -51 111.5 -51c27.333 0 52.833 6.5 76.5 19.5s42.834 30.833 57.501 53.5l51 -46c-18.667 -30.667 -44.167 -54.167 -76.5 -70.5s-69.5 -24.5 -111.5 -24.5
c-74 0 -131.5 22.833 -172.5 68.5zM319 700.001h87l-97 -146h-68z" />
    <glyph glyph-name="Ccircumflex" unicode="&#x108;" horiz-adv-x="585" 
d="M176 34c-45.333 29.333 -80.335 70.999 -105.002 124.999s-37 117.667 -37 191s12.5 137 37.5 191s60.5 95.667 106.5 125s100 44 162 44c49.333 0 93.333 -9.66699 132 -29s67.334 -46 86.001 -80l-52 -51c-36.667 56 -91.667 84 -165 84
c-67.333 0 -119.833 -24.833 -157.5 -74.5s-56.5 -119.5 -56.5 -209.5c0 -89.333 18.5 -159 55.5 -209s88.167 -75 153.5 -75c40 0 73.833 6.83301 101.5 20.5s50.5 34.834 68.5 63.501l52 -51c-19.333 -34.667 -48.333 -61.5 -87 -80.5s-83.667 -28.5 -135 -28.5
c-61.333 0 -114.666 14.667 -159.999 44zM306.998 896.999h58l112 -143h-74l-67 88l-67 -88h-74z" />
    <glyph glyph-name="ccircumflex" unicode="&#x109;" horiz-adv-x="473" 
d="M95.5 58.5c-41 45.667 -61.5 109.501 -61.5 191.501s20.5 145.833 61.5 191.5s98.5 68.5 172.5 68.5c42 0 79.167 -8.16699 111.5 -24.5s57.833 -39.833 76.5 -70.5l-51 -46c-14.667 22.667 -33.834 40.5 -57.501 53.5s-49.167 19.5 -76.5 19.5
c-47.333 0 -84.5 -16.833 -111.5 -50.5s-40.5 -80.834 -40.5 -141.501c0 -60 13.5 -107 40.5 -141s64.167 -51 111.5 -51c27.333 0 52.833 6.5 76.5 19.5s42.834 30.833 57.501 53.5l51 -46c-18.667 -30.667 -44.167 -54.167 -76.5 -70.5s-69.5 -24.5 -111.5 -24.5
c-74 0 -131.5 22.833 -172.5 68.5zM242 697.001h58l112 -143h-74l-67 88l-67 -88h-74z" />
    <glyph glyph-name="Cdotaccent" unicode="&#x10a;" horiz-adv-x="585" 
d="M176 34c-45.333 29.333 -80.335 70.999 -105.002 124.999s-37 117.667 -37 191s12.5 137 37.5 191s60.5 95.667 106.5 125s100 44 162 44c49.333 0 93.333 -9.66699 132 -29s67.334 -46 86.001 -80l-52 -51c-36.667 56 -91.667 84 -165 84
c-67.333 0 -119.833 -24.833 -157.5 -74.5s-56.5 -119.5 -56.5 -209.5c0 -89.333 18.5 -159 55.5 -209s88.167 -75 153.5 -75c40 0 73.833 6.83301 101.5 20.5s50.5 34.834 68.5 63.501l52 -51c-19.333 -34.667 -48.333 -61.5 -87 -80.5s-83.667 -28.5 -135 -28.5
c-61.333 0 -114.666 14.667 -159.999 44zM298.998 768.499c-10 9.66699 -15 21.834 -15 36.501s4.83301 26.834 14.5 36.501s22.167 14.5 37.5 14.5s27.833 -4.83301 37.5 -14.5s14.5 -21.834 14.5 -36.501s-5 -26.834 -15 -36.501s-22.333 -14.5 -37 -14.5
s-27 4.83301 -37 14.5z" />
    <glyph glyph-name="cdotaccent" unicode="&#x10b;" horiz-adv-x="473" 
d="M95.5 58.5c-41 45.667 -61.5 109.501 -61.5 191.501s20.5 145.833 61.5 191.5s98.5 68.5 172.5 68.5c42 0 79.167 -8.16699 111.5 -24.5s57.833 -39.833 76.5 -70.5l-51 -46c-14.667 22.667 -33.834 40.5 -57.501 53.5s-49.167 19.5 -76.5 19.5
c-47.333 0 -84.5 -16.833 -111.5 -50.5s-40.5 -80.834 -40.5 -141.501c0 -60 13.5 -107 40.5 -141s64.167 -51 111.5 -51c27.333 0 52.833 6.5 76.5 19.5s42.834 30.833 57.501 53.5l51 -46c-18.667 -30.667 -44.167 -54.167 -76.5 -70.5s-69.5 -24.5 -111.5 -24.5
c-74 0 -131.5 22.833 -172.5 68.5zM234 568.501c-10 9.66699 -15 21.834 -15 36.501s4.83301 26.834 14.5 36.501s22.167 14.5 37.5 14.5s27.833 -4.83301 37.5 -14.5s14.5 -21.834 14.5 -36.501s-5 -26.834 -15 -36.501s-22.333 -14.5 -37 -14.5s-27 4.83301 -37 14.5z" />
    <glyph glyph-name="Ccaron" unicode="&#x10c;" horiz-adv-x="585" 
d="M176 34c-45.333 29.333 -80.335 70.999 -105.002 124.999s-37 117.667 -37 191s12.5 137 37.5 191s60.5 95.667 106.5 125s100 44 162 44c49.333 0 93.333 -9.66699 132 -29s67.334 -46 86.001 -80l-52 -51c-36.667 56 -91.667 84 -165 84
c-67.333 0 -119.833 -24.833 -157.5 -74.5s-56.5 -119.5 -56.5 -209.5c0 -89.333 18.5 -159 55.5 -209s88.167 -75 153.5 -75c40 0 73.833 6.83301 101.5 20.5s50.5 34.834 68.5 63.501l52 -51c-19.333 -34.667 -48.333 -61.5 -87 -80.5s-83.667 -28.5 -135 -28.5
c-61.333 0 -114.666 14.667 -159.999 44zM194.998 896.999h74l67 -88l67 88h74l-112 -143h-58z" />
    <glyph glyph-name="ccaron" unicode="&#x10d;" horiz-adv-x="473" 
d="M95.5 58.5c-41 45.667 -61.5 109.501 -61.5 191.501s20.5 145.833 61.5 191.5s98.5 68.5 172.5 68.5c42 0 79.167 -8.16699 111.5 -24.5s57.833 -39.833 76.5 -70.5l-51 -46c-14.667 22.667 -33.834 40.5 -57.501 53.5s-49.167 19.5 -76.5 19.5
c-47.333 0 -84.5 -16.833 -111.5 -50.5s-40.5 -80.834 -40.5 -141.501c0 -60 13.5 -107 40.5 -141s64.167 -51 111.5 -51c27.333 0 52.833 6.5 76.5 19.5s42.834 30.833 57.501 53.5l51 -46c-18.667 -30.667 -44.167 -54.167 -76.5 -70.5s-69.5 -24.5 -111.5 -24.5
c-74 0 -131.5 22.833 -172.5 68.5zM130 697.001h74l67 -88l67 88h74l-112 -143h-58z" />
    <glyph glyph-name="Dcaron" unicode="&#x10e;" horiz-adv-x="623" 
d="M81 700l222.001 0.000976562c91.333 0 160.166 -28.333 206.499 -85s69.5 -140.334 69.5 -251.001c0 -86.667 -10.333 -156.5 -31 -209.5s-53.167 -92 -97.5 -117s-102.833 -37.5 -175.5 -37.5h-194v700zM291.001 76.001c68 0 117.667 23 149 69s47 119 47 219
c0 88.667 -15.333 154.167 -46 196.5s-78 63.5 -142 63.5h-126v-548h118zM171.001 897.001h74l67 -88l67 88h74l-112 -143h-58z" />
    <glyph glyph-name="dcaron" unicode="&#x10f;" horiz-adv-x="663" 
d="M90.5 62c-37.667 48 -56.498 113.665 -56.498 196.998c0 50.667 8.66699 94.834 26 132.501s42 66.834 74 87.501s69.333 31 112 31c61.333 0 110.666 -25.667 147.999 -77h2v309h84v-616c0 -62 1 -104 3 -126h-78c-1.33301 16 -2 42.333 -2 79h-2
c-15.333 -26.667 -37.333 -48.167 -66 -64.5s-59 -24.5 -91 -24.5c-64.667 0 -115.834 24 -153.501 72zM357.502 96.498c25 25.667 37.5 60.167 37.5 103.5v91c0 46.667 -12.667 84 -38 112s-59 42 -101 42c-42.667 0 -76.167 -16.5 -100.5 -49.5
s-36.5 -79.167 -36.5 -138.5c0 -62 12.167 -110.667 36.5 -146s57.833 -53 100.5 -53s76.5 12.833 101.5 38.5zM637.002 744.498c10.667 -12.333 16 -28.167 16 -47.5c0 -22 -5.83301 -45.667 -17.5 -71s-26.834 -47.333 -45.501 -66l-36 26
c1.33301 2.66699 6.83301 11 16.5 25s16.834 28.333 21.501 43h-2c-15.333 0 -28 5 -38 15s-15 22.667 -15 38c0 16.667 5 30.167 15 40.5s23.333 15.5 40 15.5c19.333 0 34.333 -6.16699 45 -18.5z" />
    <glyph glyph-name="Dcroat" unicode="&#x110;" horiz-adv-x="625" 
d="M511.5 615c46.333 -56.667 69.501 -140.333 69.501 -251c0 -86.667 -10.333 -156.5 -31 -209.5s-53.167 -92 -97.5 -117s-102.833 -37.5 -175.5 -37.5h-194v302h-75v71h75v327h222c91.333 0 160.166 -28.333 206.499 -85zM442.001 145.001c31.333 46 47 119 47 219
c0 88.667 -15.333 154.167 -46 196.5s-78 63.5 -142 63.5h-126v-251h206v-71h-206v-226h118c68 0 117.667 23 149 69z" />
    <glyph glyph-name="dcroat" unicode="&#x111;" horiz-adv-x="558" 
d="M480 600l0.00195312 -474.002c0 -62 1 -104 3 -126h-78c-1.33301 16 -2 42.333 -2 79h-2c-15.333 -26.667 -37.333 -48.167 -66 -64.5s-59 -24.5 -91 -24.5c-64.667 0 -115.834 24 -153.501 72s-56.5 113.667 -56.5 197c0 50.667 8.66699 94.834 26 132.501
s42 66.834 74 87.501s69.333 31 112 31c61.333 0 110.666 -25.667 147.999 -77h2v167h-144v58h144v84h84v-84h58v-58h-58zM395.002 290.998c0 46.667 -12.667 84 -38 112s-59 42 -101 42c-42.667 0 -76.167 -16.5 -100.5 -49.5s-36.5 -79.167 -36.5 -138.5
c0 -62 12.167 -110.667 36.5 -146s57.833 -53 100.5 -53s76.5 12.833 101.5 38.5s37.5 60.167 37.5 103.5v91z" />
    <glyph glyph-name="Emacron" unicode="&#x112;" horiz-adv-x="552" 
d="M81 700h420v-76h-328v-218h293v-76h-293v-254h328v-76h-420v700zM139 823h312v-59h-312v59z" />
    <glyph glyph-name="emacron" unicode="&#x113;" horiz-adv-x="518" 
d="M482 217l-360.002 0.000976562c4.66699 -50.667 19.667 -89.167 45 -115.5s60.333 -39.5 105 -39.5c60 0 107.667 23.667 143 71l48 -46c-19.333 -30.667 -46.166 -54.5 -80.499 -71.5s-72.166 -25.5 -113.499 -25.5c-74 0 -131.333 22.667 -172 68s-61 109 -61 191
c0 81.333 20.5 145.166 61.5 191.499s97.5 69.5 169.5 69.5c67.333 0 120 -22.833 158 -68.5s57 -109.5 57 -191.5v-33zM403.998 287.001c0 48 -12.501 85.667 -37.501 113s-59.5 41 -103.5 41c-41.333 0 -74.166 -14 -98.499 -42s-38.5 -67.667 -42.5 -119h282v7z
M109.997 623.001h312v-59h-312v59z" />
    <glyph glyph-name="Ebreve" unicode="&#x114;" horiz-adv-x="552" 
d="M81 700h420v-76h-328v-218h293v-76h-293v-254h328v-76h-420v700zM191.5 787.5c-25.667 22.333 -39.5 55.5 -41.5 99.5h54c1.33301 -23.333 9.66602 -41.833 24.999 -55.5s37.333 -20.5 66 -20.5c26.667 0 48 6.33301 64 19s25 31.667 27 57h54
c-1.33301 -41.333 -14.166 -73.833 -38.499 -97.5s-59.833 -35.5 -106.5 -35.5c-43.333 0 -77.833 11.167 -103.5 33.5z" />
    <glyph glyph-name="ebreve" unicode="&#x115;" horiz-adv-x="518" 
d="M482 217l-360.002 0.000976562c4.66699 -50.667 19.667 -89.167 45 -115.5s60.333 -39.5 105 -39.5c60 0 107.667 23.667 143 71l48 -46c-19.333 -30.667 -46.166 -54.5 -80.499 -71.5s-72.166 -25.5 -113.499 -25.5c-74 0 -131.333 22.667 -172 68s-61 109 -61 191
c0 81.333 20.5 145.166 61.5 191.499s97.5 69.5 169.5 69.5c67.333 0 120 -22.833 158 -68.5s57 -109.5 57 -191.5v-33zM403.998 287.001c0 48 -12.501 85.667 -37.501 113s-59.5 41 -103.5 41c-41.333 0 -74.166 -14 -98.499 -42s-38.5 -67.667 -42.5 -119h282v7z
M162.497 587.501c-25.667 22.333 -39.5 55.5 -41.5 99.5h54c1.33301 -23.333 9.66602 -41.833 24.999 -55.5s37.333 -20.5 66 -20.5c26.667 0 48 6.33301 64 19s25 31.667 27 57h54c-1.33301 -41.333 -14.166 -73.833 -38.499 -97.5s-59.833 -35.5 -106.5 -35.5
c-43.333 0 -77.833 11.167 -103.5 33.5z" />
    <glyph glyph-name="Edotaccent" unicode="&#x116;" horiz-adv-x="552" 
d="M81 700h420v-76h-328v-218h293v-76h-293v-254h328v-76h-420v700zM258 768.5c-10 9.66699 -15 21.834 -15 36.501s4.83301 26.834 14.5 36.501s22.167 14.5 37.5 14.5s27.833 -4.83301 37.5 -14.5s14.5 -21.834 14.5 -36.501s-5 -26.834 -15 -36.501
s-22.333 -14.5 -37 -14.5s-27 4.83301 -37 14.5z" />
    <glyph glyph-name="edotaccent" unicode="&#x117;" horiz-adv-x="518" 
d="M482 217l-360.002 0.000976562c4.66699 -50.667 19.667 -89.167 45 -115.5s60.333 -39.5 105 -39.5c60 0 107.667 23.667 143 71l48 -46c-19.333 -30.667 -46.166 -54.5 -80.499 -71.5s-72.166 -25.5 -113.499 -25.5c-74 0 -131.333 22.667 -172 68s-61 109 -61 191
c0 81.333 20.5 145.166 61.5 191.499s97.5 69.5 169.5 69.5c67.333 0 120 -22.833 158 -68.5s57 -109.5 57 -191.5v-33zM403.998 287.001c0 48 -12.501 85.667 -37.501 113s-59.5 41 -103.5 41c-41.333 0 -74.166 -14 -98.499 -42s-38.5 -67.667 -42.5 -119h282v7z
M228.997 568.501c-10 9.66699 -15 21.834 -15 36.501s4.83301 26.834 14.5 36.501s22.167 14.5 37.5 14.5s27.833 -4.83301 37.5 -14.5s14.5 -21.834 14.5 -36.501s-5 -26.834 -15 -36.501s-22.333 -14.5 -37 -14.5s-27 4.83301 -37 14.5z" />
    <glyph glyph-name="Eogonek" unicode="&#x118;" horiz-adv-x="552" 
d="M546 -181c-11.333 -9.33301 -24.832 -16.666 -40.499 -21.999s-32.167 -8 -49.5 -8c-30 0 -53.833 7.5 -71.5 22.5s-26.5 37.5 -26.5 67.5c0 49.333 28.333 89.666 85 120.999h-362v700h420v-76h-328v-218h293v-76h-293v-254h328v-76
c-54 -37.333 -81 -73.666 -81 -108.999c0 -14.667 5.16699 -26.334 15.5 -35.001s26.166 -13 47.499 -13c14.667 0 32 4 52 12z" />
    <glyph glyph-name="eogonek" unicode="&#x119;" horiz-adv-x="518" 
d="M482 217l-359.999 0.000976562c4.66699 -50.667 19.667 -89.167 45 -115.5s60.333 -39.5 105 -39.5c60 0 107.667 23.667 143 71l48 -46c-15.333 -24 -36 -44.333 -62 -61c-34 -29.333 -51 -58 -51 -86c0 -14.667 5.16699 -26.334 15.5 -35.001s26.166 -13 47.499 -13
c14.667 0 32 4 52 12l11 -36c-11.333 -9.33301 -24.833 -16.666 -40.5 -21.999s-32.167 -8 -49.5 -8c-30 0 -53.833 7.5 -71.5 22.5s-26.5 37.5 -26.5 67.5c0 24 6.66699 45.667 20 65c-12.667 -2 -25.667 -3 -39 -3c-74 0 -131.333 22.667 -172 68s-61 109 -61 191
c0 81.333 20.5 145.166 61.5 191.499s97.5 69.5 169.5 69.5c67.333 0 120 -22.833 158 -68.5s57 -109.5 57 -191.5v-33zM404.001 287.001c0 48 -12.501 85.667 -37.501 113s-59.5 41 -103.5 41c-41.333 0 -74.166 -14 -98.499 -42s-38.5 -67.667 -42.5 -119h282v7z" />
    <glyph glyph-name="Ecaron" unicode="&#x11a;" horiz-adv-x="552" 
d="M81 700h420v-76h-328v-218h293v-76h-293v-254h328v-76h-420v700zM154 897h74l67 -88l67 88h74l-112 -143h-58z" />
    <glyph glyph-name="ecaron" unicode="&#x11b;" horiz-adv-x="518" 
d="M482 217l-360.002 0.000976562c4.66699 -50.667 19.667 -89.167 45 -115.5s60.333 -39.5 105 -39.5c60 0 107.667 23.667 143 71l48 -46c-19.333 -30.667 -46.166 -54.5 -80.499 -71.5s-72.166 -25.5 -113.499 -25.5c-74 0 -131.333 22.667 -172 68s-61 109 -61 191
c0 81.333 20.5 145.166 61.5 191.499s97.5 69.5 169.5 69.5c67.333 0 120 -22.833 158 -68.5s57 -109.5 57 -191.5v-33zM403.998 287.001c0 48 -12.501 85.667 -37.501 113s-59.5 41 -103.5 41c-41.333 0 -74.166 -14 -98.499 -42s-38.5 -67.667 -42.5 -119h282v7z
M124.997 697.001h74l67 -88l67 88h74l-112 -143h-58z" />
    <glyph glyph-name="Gcircumflex" unicode="&#x11c;" horiz-adv-x="636" 
d="M575 362v-362h-62l-15 44c-22 -17.333 -47.833 -30.666 -77.5 -39.999s-61.167 -14 -94.5 -14c-60 0 -112 14.5 -156 43.5s-77.667 70.5 -101 124.5s-35 118 -35 192c0 72.667 12.5 136 37.5 190s60.333 95.833 106 125.5s99.167 44.5 160.5 44.5
c52 0 98 -9.66699 138 -29s69.333 -46 88 -80l-51 -51c-17.333 27.333 -40.833 48.166 -70.5 62.499s-64.167 21.5 -103.5 21.5c-66.667 0 -118.667 -25 -156 -75s-56 -119.667 -56 -209c0 -90.667 18.167 -161.334 54.5 -212.001s87.166 -76 152.499 -76
c30.667 0 58.834 4.33301 84.501 13s47.5 21.334 65.5 38.001v181h-167v68h258zM308 897h58l112 -143h-74l-67 88l-67 -88h-74z" />
    <glyph glyph-name="gcircumflex" unicode="&#x11d;" horiz-adv-x="541" 
d="M480 500l0.000976562 -484.001c0 -80 -19.667 -140.667 -59 -182s-97 -62 -173 -62c-33.333 0 -65.833 4 -97.5 12s-60.167 19.333 -85.5 34l28 62c50 -24 100.667 -36 152 -36c104 0 156 61.667 156 185v46c-13.333 -25.333 -33.666 -45.333 -60.999 -60
s-58.333 -22 -93 -22c-66 0 -118 23.667 -156 71s-57 112 -57 194c0 78.667 18.667 140.334 56 185.001s88.666 67 153.999 67c34.667 0 65.167 -7 91.5 -21s47.166 -34.333 62.499 -61h2l10 72h70zM395.001 282.999c0 50.667 -12 90.333 -36 119s-57.333 43 -100 43
c-43.333 0 -77.5 -16.833 -102.5 -50.5s-37.5 -79.834 -37.5 -138.501c0 -61.333 12.333 -109.166 37 -143.499s59 -51.5 103 -51.5c42.667 0 76 12.833 100 38.5s36 61.5 36 107.5v76zM226.001 696.998h58l112 -143h-74l-67 88l-67 -88h-74z" />
    <glyph glyph-name="Gbreve" unicode="&#x11e;" horiz-adv-x="636" 
d="M575 362v-362h-62l-15 44c-22 -17.333 -47.833 -30.666 -77.5 -39.999s-61.167 -14 -94.5 -14c-60 0 -112 14.5 -156 43.5s-77.667 70.5 -101 124.5s-35 118 -35 192c0 72.667 12.5 136 37.5 190s60.333 95.833 106 125.5s99.167 44.5 160.5 44.5
c52 0 98 -9.66699 138 -29s69.333 -46 88 -80l-51 -51c-17.333 27.333 -40.833 48.166 -70.5 62.499s-64.167 21.5 -103.5 21.5c-66.667 0 -118.667 -25 -156 -75s-56 -119.667 -56 -209c0 -90.667 18.167 -161.334 54.5 -212.001s87.166 -76 152.499 -76
c30.667 0 58.834 4.33301 84.501 13s47.5 21.334 65.5 38.001v181h-167v68h258zM233.5 787.5c-25.667 22.333 -39.5 55.5 -41.5 99.5h54c1.33301 -23.333 9.66602 -41.833 24.999 -55.5s37.333 -20.5 66 -20.5c26.667 0 48 6.33301 64 19s25 31.667 27 57h54
c-1.33301 -41.333 -14.166 -73.833 -38.499 -97.5s-59.833 -35.5 -106.5 -35.5c-43.333 0 -77.833 11.167 -103.5 33.5z" />
    <glyph glyph-name="gbreve" unicode="&#x11f;" horiz-adv-x="541" 
d="M480 500l0.000976562 -484.001c0 -80 -19.667 -140.667 -59 -182s-97 -62 -173 -62c-33.333 0 -65.833 4 -97.5 12s-60.167 19.333 -85.5 34l28 62c50 -24 100.667 -36 152 -36c104 0 156 61.667 156 185v46c-13.333 -25.333 -33.666 -45.333 -60.999 -60
s-58.333 -22 -93 -22c-66 0 -118 23.667 -156 71s-57 112 -57 194c0 78.667 18.667 140.334 56 185.001s88.666 67 153.999 67c34.667 0 65.167 -7 91.5 -21s47.166 -34.333 62.499 -61h2l10 72h70zM395.001 282.999c0 50.667 -12 90.333 -36 119s-57.333 43 -100 43
c-43.333 0 -77.5 -16.833 -102.5 -50.5s-37.5 -79.834 -37.5 -138.501c0 -61.333 12.333 -109.166 37 -143.499s59 -51.5 103 -51.5c42.667 0 76 12.833 100 38.5s36 61.5 36 107.5v76zM151.501 587.498c-25.667 22.333 -39.5 55.5 -41.5 99.5h54
c1.33301 -23.333 9.66602 -41.833 24.999 -55.5s37.333 -20.5 66 -20.5c26.667 0 48 6.33301 64 19s25 31.667 27 57h54c-1.33301 -41.333 -14.166 -73.833 -38.499 -97.5s-59.833 -35.5 -106.5 -35.5c-43.333 0 -77.833 11.167 -103.5 33.5z" />
    <glyph glyph-name="Gdotaccent" unicode="&#x120;" horiz-adv-x="636" 
d="M575 362v-362h-62l-15 44c-22 -17.333 -47.833 -30.666 -77.5 -39.999s-61.167 -14 -94.5 -14c-60 0 -112 14.5 -156 43.5s-77.667 70.5 -101 124.5s-35 118 -35 192c0 72.667 12.5 136 37.5 190s60.333 95.833 106 125.5s99.167 44.5 160.5 44.5
c52 0 98 -9.66699 138 -29s69.333 -46 88 -80l-51 -51c-17.333 27.333 -40.833 48.166 -70.5 62.499s-64.167 21.5 -103.5 21.5c-66.667 0 -118.667 -25 -156 -75s-56 -119.667 -56 -209c0 -90.667 18.167 -161.334 54.5 -212.001s87.166 -76 152.499 -76
c30.667 0 58.834 4.33301 84.501 13s47.5 21.334 65.5 38.001v181h-167v68h258zM300 768.5c-10 9.66699 -15 21.834 -15 36.501s4.83301 26.834 14.5 36.501s22.167 14.5 37.5 14.5s27.833 -4.83301 37.5 -14.5s14.5 -21.834 14.5 -36.501s-5 -26.834 -15 -36.501
s-22.333 -14.5 -37 -14.5s-27 4.83301 -37 14.5z" />
    <glyph glyph-name="gdotaccent" unicode="&#x121;" horiz-adv-x="541" 
d="M480 500l0.000976562 -484.001c0 -80 -19.667 -140.667 -59 -182s-97 -62 -173 -62c-33.333 0 -65.833 4 -97.5 12s-60.167 19.333 -85.5 34l28 62c50 -24 100.667 -36 152 -36c104 0 156 61.667 156 185v46c-13.333 -25.333 -33.666 -45.333 -60.999 -60
s-58.333 -22 -93 -22c-66 0 -118 23.667 -156 71s-57 112 -57 194c0 78.667 18.667 140.334 56 185.001s88.666 67 153.999 67c34.667 0 65.167 -7 91.5 -21s47.166 -34.333 62.499 -61h2l10 72h70zM395.001 282.999c0 50.667 -12 90.333 -36 119s-57.333 43 -100 43
c-43.333 0 -77.5 -16.833 -102.5 -50.5s-37.5 -79.834 -37.5 -138.501c0 -61.333 12.333 -109.166 37 -143.499s59 -51.5 103 -51.5c42.667 0 76 12.833 100 38.5s36 61.5 36 107.5v76zM218.001 568.498c-10 9.66699 -15 21.834 -15 36.501s4.83301 26.834 14.5 36.501
s22.167 14.5 37.5 14.5s27.833 -4.83301 37.5 -14.5s14.5 -21.834 14.5 -36.501s-5 -26.834 -15 -36.501s-22.333 -14.5 -37 -14.5s-27 4.83301 -37 14.5z" />
    <glyph glyph-name="uni0122" unicode="&#x122;" horiz-adv-x="636" 
d="M575 362v-362h-62l-15 44c-22 -17.333 -47.833 -30.666 -77.5 -39.999s-61.167 -14 -94.5 -14c-60 0 -112 14.5 -156 43.5s-77.667 70.5 -101 124.5s-35 118 -35 192c0 72.667 12.5 136 37.5 190s60.333 95.833 106 125.5s99.167 44.5 160.5 44.5
c52 0 98 -9.66699 138 -29s69.333 -46 88 -80l-51 -51c-17.333 27.333 -40.833 48.166 -70.5 62.499s-64.167 21.5 -103.5 21.5c-66.667 0 -118.667 -25 -156 -75s-56 -119.667 -56 -209c0 -90.667 18.167 -161.334 54.5 -212.001s87.166 -76 152.499 -76
c30.667 0 58.834 4.33301 84.501 13s47.5 21.334 65.5 38.001v181h-167v68h258zM382 -90.5c10.667 -12.333 16 -28.166 16 -47.499c0 -22 -5.83301 -45.667 -17.5 -71s-26.834 -47.333 -45.501 -66l-36 26l16.5 24.5c9.66699 14.333 16.834 29.166 21.501 44.499h-2
c-15.333 0 -28 4.83301 -38 14.5s-15 22.5 -15 38.5s5 29.167 15 39.5s23.333 15.5 40 15.5c19.333 0 34.333 -6.16699 45 -18.5z" />
    <glyph glyph-name="uni0123" unicode="&#x123;" horiz-adv-x="541" 
d="M480 500l0.000976562 -484.001c0 -80 -19.667 -140.667 -59 -182s-97 -62 -173 -62c-33.333 0 -65.833 4 -97.5 12s-60.167 19.333 -85.5 34l28 62c50 -24 100.667 -36 152 -36c104 0 156 61.667 156 185v46c-13.333 -25.333 -33.666 -45.333 -60.999 -60
s-58.333 -22 -93 -22c-66 0 -118 23.667 -156 71s-57 112 -57 194c0 78.667 18.667 140.334 56 185.001s88.666 67 153.999 67c34.667 0 65.167 -7 91.5 -21s47.166 -34.333 62.499 -61h2l10 72h70zM395.001 282.999c0 50.667 -12 90.333 -36 119s-57.333 43 -100 43
c-43.333 0 -77.5 -16.833 -102.5 -50.5s-37.5 -79.834 -37.5 -138.501c0 -61.333 12.333 -109.166 37 -143.499s59 -51.5 103 -51.5c42.667 0 76 12.833 100 38.5s36 61.5 36 107.5v76zM297.501 647.998c9.66699 -10 14.501 -22.666 14.501 -37.999
c0 -16.667 -4.83301 -30.167 -14.5 -40.5s-22.834 -15.5 -39.501 -15.5c-19.333 0 -34.5 6.16699 -45.5 18.5s-16.5 28.166 -16.5 47.499c0 22 5.83301 45.5 17.5 70.5s27.167 47.167 46.5 66.5l36 -26c-19.333 -27.333 -32.333 -50 -39 -68h3c15.333 0 27.833 -5 37.5 -15z
" />
    <glyph glyph-name="Hcircumflex" unicode="&#x124;" horiz-adv-x="678" 
d="M80 700h92v-308h334v308h92v-700h-92v316h-334v-316h-92v700zM310 897h58l112 -143h-74l-67 88l-67 -88h-74z" />
    <glyph glyph-name="hcircumflex" unicode="&#x125;" horiz-adv-x="558" 
d="M61 742h85v-320c15.333 27.333 37.833 48.833 67.5 64.5s62.834 23.5 99.501 23.5c58.667 0 104 -19.5 136 -58.5s48 -94.167 48 -165.5v-286h-85v287c0 51.333 -9.83301 90.5 -29.5 117.5s-47.834 40.5 -84.501 40.5c-28.667 0 -54.667 -7.33301 -78 -22
s-41.5 -35.167 -54.5 -61.5s-19.5 -55.833 -19.5 -88.5v-273h-85v742zM174 939h58l112 -143h-74l-67 88l-67 -88h-74z" />
    <glyph glyph-name="Hbar" unicode="&#x126;" horiz-adv-x="698" 
d="M668 501h-60v-501h-92v316h-334v-316h-92v501h-60v60h60v139h92v-139h334v139h92v-139h60v-60zM516 501h-334v-109h334v109z" />
    <glyph glyph-name="hbar" unicode="&#x127;" horiz-adv-x="558" 
d="M449 451.5c32 -39 48 -94.167 48 -165.5v-286h-85v287c0 51.333 -9.83301 90.5 -29.5 117.5s-47.834 40.5 -84.501 40.5c-28.667 0 -54.667 -7.33301 -78 -22s-41.5 -35.167 -54.5 -61.5s-19.5 -55.833 -19.5 -88.5v-273h-85v600h-57v58h57v84h85v-84h138v-58h-138v-178
c15.333 27.333 37.833 48.833 67.5 64.5s62.834 23.5 99.501 23.5c58.667 0 104 -19.5 136 -58.5z" />
    <glyph glyph-name="Itilde" unicode="&#x128;" horiz-adv-x="292" 
d="M100 700h92v-700h-92v700zM23.5 827c15 18.667 34.501 28 58.501 28c12 0 22.833 -2 32.5 -6s23.5 -11 41.5 -21c20.667 -13.333 36.334 -20 47.001 -20c9.33301 0 16.5 4 21.5 12s8.16699 21 9.5 39h52c-0.666992 -32 -8.66699 -57.5 -24 -76.5s-35.333 -28.5 -60 -28.5
c-12.667 0 -24.667 2.5 -36 7.5s-25 12.167 -41 21.5c-19.333 12 -33 18 -41 18c-8.66699 0 -15.834 -4.16699 -21.501 -12.5s-8.83398 -19.833 -9.50098 -34.5h-52c0 30 7.5 54.333 22.5 73z" />
    <glyph glyph-name="itilde" unicode="&#x129;" horiz-adv-x="253" 
d="M84 500h85v-500h-85v500zM2.5 627c15 18.667 34.501 28 58.501 28c12 0 22.833 -2 32.5 -6s23.5 -11 41.5 -21c20.667 -13.333 36.334 -20 47.001 -20c9.33301 0 16.5 4 21.5 12s8.16699 21 9.5 39h52c-0.666992 -32 -8.66699 -57.5 -24 -76.5s-35.333 -28.5 -60 -28.5
c-12.667 0 -24.667 2.5 -36 7.5s-25 12.167 -41 21.5c-19.333 12 -33 18 -41 18c-8.66699 0 -15.834 -4.16699 -21.501 -12.5s-8.83398 -19.833 -9.50098 -34.5h-52c0 30 7.5 54.333 22.5 73z" />
    <glyph glyph-name="Imacron" unicode="&#x12a;" horiz-adv-x="292" 
d="M100 700h92v-700h-92v700zM-9 823h312v-59h-312v59z" />
    <glyph glyph-name="imacron" unicode="&#x12b;" horiz-adv-x="253" 
d="M84 500h85v-500h-85v500zM-30 623h312v-59h-312v59z" />
    <glyph glyph-name="Ibreve" unicode="&#x12c;" horiz-adv-x="292" 
d="M100 700h92v-700h-92v700zM43.5 787.5c-25.667 22.333 -39.5 55.5 -41.5 99.5h54c1.33301 -23.333 9.66602 -41.833 24.999 -55.5s37.333 -20.5 66 -20.5c26.667 0 48 6.33301 64 19s25 31.667 27 57h54c-1.33301 -41.333 -14.166 -73.833 -38.499 -97.5
s-59.833 -35.5 -106.5 -35.5c-43.333 0 -77.833 11.167 -103.5 33.5z" />
    <glyph glyph-name="ibreve" unicode="&#x12d;" horiz-adv-x="253" 
d="M84 500h85v-500h-85v500zM22.5 587.5c-25.667 22.333 -39.5 55.5 -41.5 99.5h54c1.33301 -23.333 9.66602 -41.833 24.999 -55.5s37.333 -20.5 66 -20.5c26.667 0 48 6.33301 64 19s25 31.667 27 57h54c-1.33301 -41.333 -14.166 -73.833 -38.499 -97.5
s-59.833 -35.5 -106.5 -35.5c-43.333 0 -77.833 11.167 -103.5 33.5z" />
    <glyph glyph-name="Iogonek" unicode="&#x12e;" horiz-adv-x="292" 
d="M220 -181c-11.333 -9.33301 -24.832 -16.666 -40.499 -21.999s-32.167 -8 -49.5 -8c-30 0 -53.833 7.5 -71.5 22.5s-26.5 37.5 -26.5 67.5c0 49.333 28.333 89.666 85 120.999h-17v700h92v-700h-17c-54 -37.333 -81 -73.666 -81 -108.999
c0 -14.667 5.16699 -26.334 15.5 -35.001s26.166 -13 47.499 -13c14.667 0 32 4 52 12z" />
    <glyph glyph-name="iogonek" unicode="&#x12f;" horiz-adv-x="245" 
d="M78 602c-10.667 10 -16 23.667 -16 41s5.33301 31.166 16 41.499s25.334 15.5 44.001 15.5s33.5 -5.16699 44.5 -15.5s16.5 -24.166 16.5 -41.499s-5.5 -31 -16.5 -41s-25.833 -15 -44.5 -15s-33.334 5 -44.001 15zM198 -181
c-11.333 -9.33301 -24.832 -16.666 -40.499 -21.999s-32.167 -8 -49.5 -8c-30 0 -53.833 7.5 -71.5 22.5s-26.5 37.5 -26.5 67.5c0 49.333 28.333 89.666 85 120.999h-15v500h85v-500h-12c-54 -37.333 -81 -73.666 -81 -108.999c0 -14.667 5.16699 -26.334 15.5 -35.001
s26.166 -13 47.499 -13c14.667 0 32 4 52 12z" />
    <glyph glyph-name="Idotaccent" unicode="&#x130;" horiz-adv-x="292" 
d="M100 700h92v-700h-92v700zM110 768.5c-10 9.66699 -15 21.834 -15 36.501s4.83301 26.834 14.5 36.501s22.167 14.5 37.5 14.5s27.833 -4.83301 37.5 -14.5s14.5 -21.834 14.5 -36.501s-5 -26.834 -15 -36.501s-22.333 -14.5 -37 -14.5s-27 4.83301 -37 14.5z" />
    <glyph glyph-name="dotlessi" unicode="&#x131;" horiz-adv-x="253" 
d="M84 500h85v-500h-85v500z" />
    <glyph glyph-name="IJ" unicode="&#x132;" horiz-adv-x="732" 
d="M100 700h92v-700h-92v700zM366.5 4.5c-27.667 9.66699 -50.166 22.168 -67.499 37.501l35 66c13.333 -12.667 30.5 -22.834 51.5 -30.501s41.833 -11.5 62.5 -11.5c39.333 0 67.833 13.5 85.5 40.5s26.5 71.167 26.5 132.5v461h92v-477c0 -80.667 -16 -139.667 -48 -177
s-83 -56 -153 -56c-28.667 0 -56.834 4.83301 -84.501 14.5z" />
    <glyph glyph-name="ij" unicode="&#x133;" horiz-adv-x="492" 
d="M78 602c-10.667 10 -16 23.667 -16 41s5.33301 31.166 16 41.499s25.334 15.5 44.001 15.5s33.5 -5.16699 44.5 -15.5s16.5 -24.166 16.5 -41.499s-5.5 -31 -16.5 -41s-25.833 -15 -44.5 -15s-33.334 5 -44.001 15zM80 500h85v-500h-85v500zM332.5 602.5
c-11 10.333 -16.5 23.833 -16.5 40.5c0 17.333 5.5 31.166 16.5 41.499s25.833 15.5 44.5 15.5c18 0 32.5 -5.16699 43.5 -15.5s16.5 -24.166 16.5 -41.499c0 -16.667 -5.5 -30.167 -16.5 -40.5s-25.5 -15.5 -43.5 -15.5c-18.667 0 -33.5 5.16699 -44.5 15.5zM197 -183
l2.99902 63c10.667 -1.33301 24 -2 40 -2c35.333 0 60.333 10 75 30s22 51.333 22 94v498h85v-501c0 -62 -13 -109 -39 -141s-66.667 -48 -122 -48c-21.333 0 -42.666 2.33301 -63.999 7z" />
    <glyph glyph-name="Jcircumflex" unicode="&#x134;" horiz-adv-x="440" 
d="M74.5 4.5c-27.667 9.66699 -50.166 22.168 -67.499 37.501l35 66c13.333 -12.667 30.5 -22.834 51.5 -30.501s41.833 -11.5 62.5 -11.5c39.333 0 67.833 13.5 85.5 40.5s26.5 71.167 26.5 132.5v461h92v-477c0 -80.667 -16 -139.667 -48 -177s-83 -56 -153 -56
c-28.667 0 -56.834 4.83301 -84.501 14.5zM200.001 897.001h58l112 -143h-74l-67 88l-67 -88h-74z" />
    <glyph glyph-name="jcircumflex" unicode="&#x135;" horiz-adv-x="247" 
d="M-48 -183l3 63c10.667 -1.33301 24 -2 40 -2c33.333 0 57 10 71 30s21 51.333 21 94v498h85v-501c0 -62 -12.667 -109 -38 -141s-65 -48 -119 -48c-20.667 0 -41.667 2.33301 -63 7zM100 697h58l112 -143h-74l-67 88l-67 -88h-74z" />
    <glyph glyph-name="uni0136" unicode="&#x136;" horiz-adv-x="605" 
d="M495 0l-223 349l-100 -120v-229h-92v700h92v-347l285 347h107l-231 -278l262 -422h-100zM349 -90.5c10.667 -12.333 16 -28.166 16 -47.499c0 -22 -5.83301 -45.667 -17.5 -71s-26.834 -47.333 -45.501 -66l-36 26l16.5 24.5c9.66699 14.333 16.834 29.166 21.501 44.499
h-2c-15.333 0 -28 4.83301 -38 14.5s-15 22.5 -15 38.5s5 29.167 15 39.5s23.333 15.5 40 15.5c19.333 0 34.333 -6.16699 45 -18.5z" />
    <glyph glyph-name="uni0137" unicode="&#x137;" horiz-adv-x="487" 
d="M384 0l-165 251l-73 -73v-178h-85v742h85v-462l219 220h102l-191 -192l205 -308h-97zM289 -90.5c10.667 -12.333 16 -28.166 16 -47.499c0 -22 -5.83301 -45.667 -17.5 -71s-26.834 -47.333 -45.501 -66l-36 26l16.5 24.5c9.66699 14.333 16.834 29.166 21.501 44.499h-2
c-15.333 0 -28 4.83301 -38 14.5s-15 22.5 -15 38.5s5 29.167 15 39.5s23.333 15.5 40 15.5c19.333 0 34.333 -6.16699 45 -18.5z" />
    <glyph glyph-name="kgreenlandic" unicode="&#x138;" horiz-adv-x="487" 
d="M384 0l-158 247l-80 -85v-162h-85v500h85v-235l219 235h102l-185 -194l199 -306h-97z" />
    <glyph glyph-name="Lacute" unicode="&#x139;" horiz-adv-x="548" 
d="M80 700h92v-624h338v-76h-430v700zM174 900h87l-97 -146h-68z" />
    <glyph glyph-name="lacute" unicode="&#x13a;" horiz-adv-x="291" 
d="M70 117l-0.00292969 625h85v-624c0 -23.333 3.83301 -39.833 11.5 -49.5s20.834 -14.5 39.501 -14.5c14.667 0 31.334 4 50.001 12l13 -51c-25.333 -16.667 -55.666 -25 -90.999 -25c-72 0 -108 42.333 -108 127zM160.997 942h87l-97 -146h-68z" />
    <glyph glyph-name="uni013B" unicode="&#x13b;" horiz-adv-x="548" 
d="M80 700h92v-624h338v-76h-430v700zM338 -90.5c10.667 -12.333 16 -28.166 16 -47.499c0 -22 -5.83301 -45.667 -17.5 -71s-26.834 -47.333 -45.501 -66l-36 26l16.5 24.5c9.66699 14.333 16.834 29.166 21.501 44.499h-2c-15.333 0 -28 4.83301 -38 14.5
s-15 22.5 -15 38.5s5 29.167 15 39.5s23.333 15.5 40 15.5c19.333 0 34.333 -6.16699 45 -18.5z" />
    <glyph glyph-name="uni013C" unicode="&#x13c;" horiz-adv-x="291" 
d="M70 117l-0.00292969 625h85v-624c0 -23.333 3.83301 -39.833 11.5 -49.5s20.834 -14.5 39.501 -14.5c14.667 0 31.334 4 50.001 12l13 -51c-25.333 -16.667 -55.666 -25 -90.999 -25c-72 0 -108 42.333 -108 127zM220.997 -90.5c10.667 -12.333 16 -28.166 16 -47.499
c0 -22 -5.83301 -45.667 -17.5 -71s-26.834 -47.333 -45.501 -66l-36 26l16.5 24.5c9.66699 14.333 16.834 29.166 21.501 44.499h-2c-15.333 0 -28 4.83301 -38 14.5s-15 22.5 -15 38.5s5 29.167 15 39.5s23.333 15.5 40 15.5c19.333 0 34.333 -6.16699 45 -18.5z" />
    <glyph glyph-name="Lcaron" unicode="&#x13d;" horiz-adv-x="548" 
d="M80 700h92v-624h338v-76h-430v700zM458 691.5c10.667 -12.333 16 -28.167 16 -47.5c0 -22 -5.83301 -45.667 -17.5 -71s-26.834 -47.333 -45.501 -66l-36 26c1.33301 2.66699 6.83301 11 16.5 25s16.834 28.333 21.501 43h-2c-15.333 0 -28 5 -38 15s-15 22.667 -15 38
c0 16.667 5 30.167 15 40.5s23.333 15.5 40 15.5c19.333 0 34.333 -6.16699 45 -18.5z" />
    <glyph glyph-name="lcaron" unicode="&#x13e;" horiz-adv-x="332" 
d="M70 117l-0.00292969 625h85v-624c0 -23.333 3.83301 -39.833 11.5 -49.5s20.834 -14.5 39.501 -14.5c14.667 0 31.334 4 50.001 12l13 -51c-25.333 -16.667 -55.666 -25 -90.999 -25c-72 0 -108 42.333 -108 127zM320.997 725.5c10.667 -12.333 16 -28.167 16 -47.5
c0 -22 -5.83301 -45.667 -17.5 -71s-26.834 -47.333 -45.501 -66l-36 26c1.33301 2.66699 6.83301 11 16.5 25s16.834 28.333 21.501 43h-2c-15.333 0 -28 5 -38 15s-15 22.667 -15 38c0 16.667 5 30.167 15 40.5s23.333 15.5 40 15.5c19.333 0 34.333 -6.16699 45 -18.5z
" />
    <glyph glyph-name="Ldot" unicode="&#x13f;" horiz-adv-x="548" 
d="M80 700h92v-624h338v-76h-430v700zM290.5 301.5c-11.667 12.333 -17.5 27.833 -17.5 46.5c0 19.333 5.83301 35.166 17.5 47.499s26.5 18.5 44.5 18.5s32.833 -6.16699 44.5 -18.5s17.5 -28.166 17.5 -47.499c0 -18.667 -5.83301 -34.167 -17.5 -46.5
s-26.5 -18.5 -44.5 -18.5s-32.833 6.16699 -44.5 18.5z" />
    <glyph glyph-name="ldot" unicode="&#x140;" horiz-adv-x="336" 
d="M70 117l-0.00292969 625h85v-624c0 -23.333 3.83301 -39.833 11.5 -49.5s20.834 -14.5 39.501 -14.5c14.667 0 31.334 4 50.001 12l13 -51c-25.333 -16.667 -55.666 -25 -90.999 -25c-72 0 -108 42.333 -108 127zM224.497 283.5c-11.667 12.333 -17.5 27.833 -17.5 46.5
c0 19.333 5.83301 35.166 17.5 47.499s26.5 18.5 44.5 18.5s32.833 -6.16699 44.5 -18.5s17.5 -28.166 17.5 -47.499c0 -18.667 -5.83301 -34.167 -17.5 -46.5s-26.5 -18.5 -44.5 -18.5s-32.833 6.16699 -44.5 18.5z" />
    <glyph glyph-name="Lslash" unicode="&#x141;" horiz-adv-x="548" 
d="M510 76v-76h-430v277l-63 -26v73l63 27v349h92v-310l176 76v-77l-176 -73v-240h338z" />
    <glyph glyph-name="lslash" unicode="&#x142;" horiz-adv-x="291" 
d="M269 15c-25.333 -16.667 -55.6689 -25 -91.002 -25c-72 0 -108 42.333 -108 127v216l-51 -22v66l51 22v343h85v-307l102 44v-67l-102 -43v-251c0 -23.333 3.83301 -39.833 11.5 -49.5s20.834 -14.5 39.501 -14.5c14.667 0 31.334 4 50.001 12z" />
    <glyph glyph-name="Nacute" unicode="&#x143;" horiz-adv-x="682" 
d="M602 700v-700h-91l-339 554v-554h-92v700h97l333 -547v547h92zM389 900h87l-97 -146h-68z" />
    <glyph glyph-name="nacute" unicode="&#x144;" horiz-adv-x="549" 
d="M60 374c0 63.333 -1.33105 105.332 -3.99805 125.999h79c2.66699 -22 4 -51.667 4 -89h3c14.667 30.667 37.167 54.834 67.5 72.501s64.166 26.5 101.499 26.5c58.667 0 102.667 -19 132 -57s44 -94.667 44 -170v-283h-85v284c0 53.333 -9 93 -27 119s-45.333 39 -82 39
c-28 0 -53.333 -7.16699 -76 -21.5s-40.334 -34.333 -53.001 -60s-19 -54.5 -19 -86.5v-274h-85v374zM322.002 699.999h87l-97 -146h-68z" />
    <glyph glyph-name="uni0145" unicode="&#x145;" horiz-adv-x="682" 
d="M602 700v-700h-91l-339 554v-554h-92v700h97l333 -547v547h92zM386 -90.5c10.667 -12.333 16 -28.166 16 -47.499c0 -22 -5.83301 -45.667 -17.5 -71s-26.834 -47.333 -45.501 -66l-36 26l16.5 24.5c9.66699 14.333 16.834 29.166 21.501 44.499h-2
c-15.333 0 -28 4.83301 -38 14.5s-15 22.5 -15 38.5s5 29.167 15 39.5s23.333 15.5 40 15.5c19.333 0 34.333 -6.16699 45 -18.5z" />
    <glyph glyph-name="uni0146" unicode="&#x146;" horiz-adv-x="549" 
d="M60 374c0 63.333 -1.33105 105.332 -3.99805 125.999h79c2.66699 -22 4 -51.667 4 -89h3c14.667 30.667 37.167 54.834 67.5 72.501s64.166 26.5 101.499 26.5c58.667 0 102.667 -19 132 -57s44 -94.667 44 -170v-283h-85v284c0 53.333 -9 93 -27 119s-45.333 39 -82 39
c-28 0 -53.333 -7.16699 -76 -21.5s-40.334 -34.333 -53.001 -60s-19 -54.5 -19 -86.5v-274h-85v374zM319.002 -90.501c10.667 -12.333 16 -28.166 16 -47.499c0 -22 -5.83301 -45.667 -17.5 -71s-26.834 -47.333 -45.501 -66l-36 26l16.5 24.5
c9.66699 14.333 16.834 29.166 21.501 44.499h-2c-15.333 0 -28 4.83301 -38 14.5s-15 22.5 -15 38.5s5 29.167 15 39.5s23.333 15.5 40 15.5c19.333 0 34.333 -6.16699 45 -18.5z" />
    <glyph glyph-name="Ncaron" unicode="&#x147;" horiz-adv-x="682" 
d="M602 700v-700h-91l-339 554v-554h-92v700h97l333 -547v547h92zM200 897h74l67 -88l67 88h74l-112 -143h-58z" />
    <glyph glyph-name="ncaron" unicode="&#x148;" horiz-adv-x="549" 
d="M60 374c0 63.333 -1.33105 105.332 -3.99805 125.999h79c2.66699 -22 4 -51.667 4 -89h3c14.667 30.667 37.167 54.834 67.5 72.501s64.166 26.5 101.499 26.5c58.667 0 102.667 -19 132 -57s44 -94.667 44 -170v-283h-85v284c0 53.333 -9 93 -27 119s-45.333 39 -82 39
c-28 0 -53.333 -7.16699 -76 -21.5s-40.334 -34.333 -53.001 -60s-19 -54.5 -19 -86.5v-274h-85v374zM133.002 696.999h74l67 -88l67 88h74l-112 -143h-58z" />
    <glyph glyph-name="napostrophe" unicode="&#x149;" horiz-adv-x="631" 
d="M109 691.5c10.667 -12.333 16 -28.167 16 -47.5c0 -22 -5.83301 -45.667 -17.5 -71s-26.834 -47.333 -45.501 -66l-36 26c1.33301 2.66699 6.83301 11 16.5 25s16.834 28.333 21.501 43h-2c-15.333 0 -28 5 -38 15s-15 22.667 -15 38c0 16.667 5 30.167 15 40.5
s23.333 15.5 40 15.5c19.333 0 34.333 -6.16699 45 -18.5zM142 373.999c0 63.333 -1.33105 105.332 -3.99805 125.999h79c2.66699 -22 4 -51.667 4 -89h3c14.667 30.667 37.167 54.834 67.5 72.501s64.166 26.5 101.499 26.5c58.667 0 102.667 -19 132 -57
s44 -94.667 44 -170v-283h-85v284c0 53.333 -9 93 -27 119s-45.333 39 -82 39c-28 0 -53.333 -7.16699 -76 -21.5s-40.334 -34.333 -53.001 -60s-19 -54.5 -19 -86.5v-274h-85v374z" />
    <glyph glyph-name="Eng" unicode="&#x14a;" horiz-adv-x="682" 
d="M80 700h97.001l333 -547v547h92v-740c0 -76 -15.667 -132 -47 -168s-80 -54 -146 -54c-25.333 0 -50.333 4 -75 12s-44.667 18.333 -60 31l31 61c13.333 -10.667 29.166 -19.167 47.499 -25.5s35.833 -9.5 52.5 -9.5c37.333 0 64.5 12.333 81.5 37s25.5 64.667 25.5 120
l-1 36l-339 554v-554h-92v700z" />
    <glyph glyph-name="eng" unicode="&#x14b;" horiz-adv-x="549" 
d="M267 -184l3.00195 63.999c8 -1.33301 21.333 -2 40 -2c32.667 0 56.167 9.5 70.5 28.5s21.5 50.5 21.5 94.5v283c0 53.333 -9 93 -27 119s-45.333 39 -82 39c-28 0 -53.333 -7.16699 -76 -21.5s-40.334 -34.333 -53.001 -60s-19 -54.5 -19 -86.5v-274h-85v374
c0 63.333 -1.33301 105.333 -4 126h79c2.66699 -22 4 -51.667 4 -89h3c14.667 30.667 37.167 54.834 67.5 72.501s64.166 26.5 101.499 26.5c58.667 0 102.667 -19 132 -57s44 -94.667 44 -170v-285c0 -125.333 -52 -188 -156 -188c-24.667 0 -46 2 -64 6z" />
    <glyph glyph-name="Omacron" unicode="&#x14c;" horiz-adv-x="661" 
d="M173 33.5c-44.667 29 -79 70.667 -103 125s-36 118.166 -36 191.499s12 137.166 36 191.499s58.333 96 103 125s97.334 43.5 158.001 43.5s113.167 -14.5 157.5 -43.5s78.5 -70.667 102.5 -125s36 -118.166 36 -191.499s-12 -137.166 -36 -191.499
s-58.167 -96 -102.5 -125s-96.833 -43.5 -157.5 -43.5s-113.334 14.5 -158.001 43.5zM439.5 99c31 23.333 54.667 56.5 71 99.5s24.5 93.5 24.5 151.5s-8.16699 108.5 -24.5 151.5s-40 76.167 -71 99.5s-67.167 35 -108.5 35c-42 0 -78.333 -11.667 -109 -35
s-54.334 -56.5 -71.001 -99.5s-25 -93.5 -25 -151.5s8.33301 -108.5 25 -151.5s40.334 -76.167 71.001 -99.5s67 -35 109 -35c41.333 0 77.5 11.667 108.5 35zM175 823h312v-59h-312v59z" />
    <glyph glyph-name="omacron" unicode="&#x14d;" horiz-adv-x="557" 
d="M149.5 21.5c-36.333 21 -64.333 51.167 -84 90.5s-29.5 85.333 -29.5 138s9.83301 98.667 29.5 138s47.667 69.5 84 90.5s79.166 31.5 128.499 31.5c74.667 0 133.834 -23.333 177.501 -70s65.5 -110 65.5 -190s-21.833 -143.333 -65.5 -190s-102.834 -70 -177.501 -70
c-49.333 0 -92.166 10.5 -128.499 31.5zM394 107c28 34.667 42 82.334 42 143.001s-14 108.334 -42 143.001s-66.667 52 -116 52c-48.667 0 -87 -17.333 -115 -52s-42 -82.334 -42 -143.001s14 -108.334 42 -143.001s66.333 -52 115 -52c49.333 0 88 17.333 116 52zM122 623
h312v-59h-312v59z" />
    <glyph glyph-name="Obreve" unicode="&#x14e;" horiz-adv-x="661" 
d="M173 33.5c-44.667 29 -79 70.667 -103 125s-36 118.166 -36 191.499s12 137.166 36 191.499s58.333 96 103 125s97.334 43.5 158.001 43.5s113.167 -14.5 157.5 -43.5s78.5 -70.667 102.5 -125s36 -118.166 36 -191.499s-12 -137.166 -36 -191.499
s-58.167 -96 -102.5 -125s-96.833 -43.5 -157.5 -43.5s-113.334 14.5 -158.001 43.5zM439.5 99c31 23.333 54.667 56.5 71 99.5s24.5 93.5 24.5 151.5s-8.16699 108.5 -24.5 151.5s-40 76.167 -71 99.5s-67.167 35 -108.5 35c-42 0 -78.333 -11.667 -109 -35
s-54.334 -56.5 -71.001 -99.5s-25 -93.5 -25 -151.5s8.33301 -108.5 25 -151.5s40.334 -76.167 71.001 -99.5s67 -35 109 -35c41.333 0 77.5 11.667 108.5 35zM227.5 787.5c-25.667 22.333 -39.5 55.5 -41.5 99.5h54c1.33301 -23.333 9.66602 -41.833 24.999 -55.5
s37.333 -20.5 66 -20.5c26.667 0 48 6.33301 64 19s25 31.667 27 57h54c-1.33301 -41.333 -14.166 -73.833 -38.499 -97.5s-59.833 -35.5 -106.5 -35.5c-43.333 0 -77.833 11.167 -103.5 33.5z" />
    <glyph glyph-name="obreve" unicode="&#x14f;" horiz-adv-x="557" 
d="M149.5 21.5c-36.333 21 -64.333 51.167 -84 90.5s-29.5 85.333 -29.5 138s9.83301 98.667 29.5 138s47.667 69.5 84 90.5s79.166 31.5 128.499 31.5c74.667 0 133.834 -23.333 177.501 -70s65.5 -110 65.5 -190s-21.833 -143.333 -65.5 -190s-102.834 -70 -177.501 -70
c-49.333 0 -92.166 10.5 -128.499 31.5zM394 107c28 34.667 42 82.334 42 143.001s-14 108.334 -42 143.001s-66.667 52 -116 52c-48.667 0 -87 -17.333 -115 -52s-42 -82.334 -42 -143.001s14 -108.334 42 -143.001s66.333 -52 115 -52c49.333 0 88 17.333 116 52z
M174.5 587.5c-25.667 22.333 -39.5 55.5 -41.5 99.5h54c1.33301 -23.333 9.66602 -41.833 24.999 -55.5s37.333 -20.5 66 -20.5c26.667 0 48 6.33301 64 19s25 31.667 27 57h54c-1.33301 -41.333 -14.166 -73.833 -38.499 -97.5s-59.833 -35.5 -106.5 -35.5
c-43.333 0 -77.833 11.167 -103.5 33.5z" />
    <glyph glyph-name="Ohungarumlaut" unicode="&#x150;" horiz-adv-x="661" 
d="M173 33.5c-44.667 29 -79 70.667 -103 125s-36 118.166 -36 191.499s12 137.166 36 191.499s58.333 96 103 125s97.334 43.5 158.001 43.5s113.167 -14.5 157.5 -43.5s78.5 -70.667 102.5 -125s36 -118.166 36 -191.499s-12 -137.166 -36 -191.499
s-58.167 -96 -102.5 -125s-96.833 -43.5 -157.5 -43.5s-113.334 14.5 -158.001 43.5zM439.5 99c31 23.333 54.667 56.5 71 99.5s24.5 93.5 24.5 151.5s-8.16699 108.5 -24.5 151.5s-40 76.167 -71 99.5s-67.167 35 -108.5 35c-42 0 -78.333 -11.667 -109 -35
s-54.334 -56.5 -71.001 -99.5s-25 -93.5 -25 -151.5s8.33301 -108.5 25 -151.5s40.334 -76.167 71.001 -99.5s67 -35 109 -35c41.333 0 77.5 11.667 108.5 35zM293 900h86l-96 -146h-69zM423 900h86l-96 -146h-69z" />
    <glyph glyph-name="ohungarumlaut" unicode="&#x151;" horiz-adv-x="557" 
d="M242 688h81l-90 -137h-65zM364 688h81l-90 -137h-65zM149.5 21.5c-36.333 21 -64.333 51.167 -84 90.5s-29.5 85.333 -29.5 138s9.83301 98.667 29.5 138s47.667 69.5 84 90.5s79.166 31.5 128.499 31.5c74.667 0 133.834 -23.333 177.501 -70s65.5 -110 65.5 -190
s-21.833 -143.333 -65.5 -190s-102.834 -70 -177.501 -70c-49.333 0 -92.166 10.5 -128.499 31.5zM394 107c28 34.667 42 82.334 42 143.001s-14 108.334 -42 143.001s-66.667 52 -116 52c-48.667 0 -87 -17.333 -115 -52s-42 -82.334 -42 -143.001s14 -108.334 42 -143.001
s66.333 -52 115 -52c49.333 0 88 17.333 116 52z" />
    <glyph glyph-name="OE" unicode="&#x152;" horiz-adv-x="889" 
d="M555 625l-0.000976562 -221.002h249v-71h-249v-258h283v-75h-375v64c-45.333 -49.333 -102.666 -74 -171.999 -74c-83.333 0 -147 30.833 -191 92.5s-66 150.834 -66 267.501s22 205.834 66 267.501s107.667 92.5 191 92.5c34.667 0 66.5 -6.16699 95.5 -18.5
s54.5 -30.5 76.5 -54.5v63h375v-75h-283zM419.499 136.998c29 48.667 43.5 119.667 43.5 213s-14.5 164.333 -43.5 213s-70.833 73 -125.5 73c-56.667 0 -98.834 -23.667 -126.501 -71s-41.5 -119 -41.5 -215s13.833 -167.667 41.5 -215s69.834 -71 126.501 -71
c54.667 0 96.5 24.333 125.5 73z" />
    <glyph glyph-name="oe" unicode="&#x153;" horiz-adv-x="867" 
d="M831 233l-356.003 -0.000976562c2.66699 -55.333 16.834 -97.666 42.501 -126.999s61.167 -44 106.5 -44c58 0 104.667 23.667 140 71l48 -46c-19.333 -30.667 -45.666 -54.5 -78.999 -71.5s-70.666 -25.5 -111.999 -25.5s-77.833 7.83301 -109.5 23.5
s-57.5 38.5 -77.5 68.5c-17.333 -30 -40.833 -52.833 -70.5 -68.5s-64.5 -23.5 -104.5 -23.5c-72 0 -127.167 22.5 -165.5 67.5s-57.5 109.167 -57.5 192.5s19.167 147.5 57.5 192.5s93.5 67.5 165.5 67.5c82 0 140.667 -31 176 -93c20 30 45.667 53 77 69s67 24 107 24
c68 0 120.333 -21.167 157 -63.5s55 -102.833 55 -181.5v-32zM390.997 249.999c0 130 -44 194.998 -132 194.998c-45.333 0 -79.833 -16.667 -103.5 -50s-35.5 -81.666 -35.5 -144.999s11.833 -111.666 35.5 -144.999s58.167 -50 103.5 -50c88 0 132 65 132 195z
M747.997 298.997c0 46.667 -11.332 81.999 -33.999 105.999s-55.667 36 -99 36c-38.667 0 -69.834 -12.667 -93.501 -38s-38.5 -61.666 -44.5 -108.999h271v5z" />
    <glyph glyph-name="Racute" unicode="&#x154;" horiz-adv-x="581" 
d="M81 700l214.999 -0.00195312c76 0 132.667 -15.5 170 -46.5s56 -77.833 56 -140.5c0 -46.667 -11.667 -86.167 -35 -118.5s-55.666 -54.166 -96.999 -65.499v-2c14 -9.33301 25.333 -19.166 34 -29.499s16 -22.833 22 -37.5l105 -260h-99l-88 226
c-11.333 29.333 -25 49 -41 59s-41 15 -75 15h-75v-300h-92v700zM290.999 374.998c95.333 0 143 44.001 143 132.001c0 39.333 -12 68.666 -36 87.999s-60.667 29 -110 29h-115v-249h118zM338.999 899.999h87l-97 -146h-68z" />
    <glyph glyph-name="racute" unicode="&#x155;" horiz-adv-x="350" 
d="M67 378c0 56.667 -1.00098 97.332 -3.00098 121.999h79c2.66699 -26.667 4 -56 4 -88v-10h3c12.667 34.667 33 61.334 61 80.001s61 28 99 28c10.667 0 20.334 -1 29.001 -3v-70c-8.66699 2 -20.334 3 -35.001 3c-28 0 -53.667 -8.5 -77 -25.5
s-41.666 -40.167 -54.999 -69.5s-20 -61.333 -20 -96v-249h-85v378zM238.999 699.998h87l-97 -146h-68z" />
    <glyph glyph-name="uni0156" unicode="&#x156;" horiz-adv-x="581" 
d="M81 700l214.999 -0.00195312c76 0 132.667 -15.5 170 -46.5s56 -77.833 56 -140.5c0 -46.667 -11.667 -86.167 -35 -118.5s-55.666 -54.166 -96.999 -65.499v-2c14 -9.33301 25.333 -19.166 34 -29.499s16 -22.833 22 -37.5l105 -260h-99l-88 226
c-11.333 29.333 -25 49 -41 59s-41 15 -75 15h-75v-300h-92v700zM290.999 374.998c95.333 0 143 44.001 143 132.001c0 39.333 -12 68.666 -36 87.999s-60.667 29 -110 29h-115v-249h118zM335.999 -90.501c10.667 -12.333 16 -28.166 16 -47.499
c0 -22 -5.83301 -45.667 -17.5 -71s-26.834 -47.333 -45.501 -66l-36 26l16.5 24.5c9.66699 14.333 16.834 29.166 21.501 44.499h-2c-15.333 0 -28 4.83301 -38 14.5s-15 22.5 -15 38.5s5 29.167 15 39.5s23.333 15.5 40 15.5c19.333 0 34.333 -6.16699 45 -18.5z" />
    <glyph glyph-name="uni0157" unicode="&#x157;" horiz-adv-x="350" 
d="M67 378c0 56.667 -1.00098 97.332 -3.00098 121.999h79c2.66699 -26.667 4 -56 4 -88v-10h3c12.667 34.667 33 61.334 61 80.001s61 28 99 28c10.667 0 20.334 -1 29.001 -3v-70c-8.66699 2 -20.334 3 -35.001 3c-28 0 -53.667 -8.5 -77 -25.5
s-41.666 -40.167 -54.999 -69.5s-20 -61.333 -20 -96v-249h-85v378zM155.999 -90.502c10.667 -12.333 16 -28.166 16 -47.499c0 -22 -5.83301 -45.667 -17.5 -71s-26.834 -47.333 -45.501 -66l-36 26l16.5 24.5c9.66699 14.333 16.834 29.166 21.501 44.499h-2
c-15.333 0 -28 4.83301 -38 14.5s-15 22.5 -15 38.5s5 29.167 15 39.5s23.333 15.5 40 15.5c19.333 0 34.333 -6.16699 45 -18.5z" />
    <glyph glyph-name="Rcaron" unicode="&#x158;" horiz-adv-x="581" 
d="M81 700l214.999 -0.00195312c76 0 132.667 -15.5 170 -46.5s56 -77.833 56 -140.5c0 -46.667 -11.667 -86.167 -35 -118.5s-55.666 -54.166 -96.999 -65.499v-2c14 -9.33301 25.333 -19.166 34 -29.499s16 -22.833 22 -37.5l105 -260h-99l-88 226
c-11.333 29.333 -25 49 -41 59s-41 15 -75 15h-75v-300h-92v700zM290.999 374.998c95.333 0 143 44.001 143 132.001c0 39.333 -12 68.666 -36 87.999s-60.667 29 -110 29h-115v-249h118zM149.999 896.999h74l67 -88l67 88h74l-112 -143h-58z" />
    <glyph glyph-name="rcaron" unicode="&#x159;" horiz-adv-x="350" 
d="M67 378c0 56.667 -1.00098 97.332 -3.00098 121.999h79c2.66699 -26.667 4 -56 4 -88v-10h3c12.667 34.667 33 61.334 61 80.001s61 28 99 28c10.667 0 20.334 -1 29.001 -3v-70c-8.66699 2 -20.334 3 -35.001 3c-28 0 -53.667 -8.5 -77 -25.5
s-41.666 -40.167 -54.999 -69.5s-20 -61.333 -20 -96v-249h-85v378zM49.999 696.998h74l67 -88l67 88h74l-112 -143h-58z" />
    <glyph glyph-name="Sacute" unicode="&#x15a;" horiz-adv-x="529" 
d="M133.5 19c-39.667 19.333 -71.502 46.002 -95.502 80.002l56 56c20.667 -26.667 46.667 -48.167 78 -64.5s62.333 -24.5 93 -24.5c39.333 0 71.166 10 95.499 30s36.5 46.333 36.5 79c0 21.333 -4.16699 40 -12.5 56s-22.666 31.5 -42.999 46.5
s-49.166 31.5 -86.499 49.5c-71.333 34.667 -121.5 67.5 -150.5 98.5s-43.5 67.167 -43.5 108.5c0 53.333 19.333 96 58 128s90 48 154 48c44.667 0 85.5 -9.66699 122.5 -29s63.833 -45.333 80.5 -78l-60 -44c-16 23.333 -36.667 41.666 -62 54.999s-52 20 -80 20
c-37.333 0 -66.833 -8.83301 -88.5 -26.5s-32.5 -41.5 -32.5 -71.5c0 -18 4 -33.333 12 -46s22.833 -25.834 44.5 -39.501s55.834 -32.167 102.501 -55.5c63.333 -31.333 108.666 -63.5 135.999 -96.5s41 -71.833 41 -116.5c0 -38 -9.5 -71.5 -28.5 -100.5
s-45.667 -51.5 -80 -67.5s-74.166 -24 -119.499 -24s-87.833 9.66699 -127.5 29zM312.998 900.002h87l-97 -146h-68z" />
    <glyph glyph-name="sacute" unicode="&#x15b;" horiz-adv-x="416" 
d="M98.5 13c-30.333 15.333 -51.834 35.665 -64.501 60.998l55 38c11.333 -18 27 -32 47 -42s41.667 -15 65 -15c28 0 51.167 8.16699 69.5 24.5s27.5 36.833 27.5 61.5c0 20 -7.33301 36.667 -22 50s-40.667 27 -78 41c-56.667 20.667 -96.5 42.334 -119.5 65.001
s-34.5 50.667 -34.5 84c0 38.667 15.333 69.834 46 93.501s71.334 35.5 122.001 35.5c32.667 0 62.5 -7 89.5 -21s47.833 -33.333 62.5 -58l-52 -38c-23.333 34.667 -56.666 52 -99.999 52c-24.667 0 -44.834 -5.66699 -60.501 -17s-23.5 -26 -23.5 -44s8 -33.167 24 -45.5
s45.667 -26.833 89 -43.5c51.333 -19.333 87.666 -40.5 108.999 -63.5s32 -52.167 32 -87.5c0 -46.667 -16.667 -84 -50 -112s-77.333 -42 -132 -42c-37.333 0 -71.166 7.66699 -101.499 23zM256.999 699.999h87l-97 -146h-68z" />
    <glyph glyph-name="Scircumflex" unicode="&#x15c;" horiz-adv-x="529" 
d="M133.5 19c-39.667 19.333 -71.502 46.002 -95.502 80.002l56 56c20.667 -26.667 46.667 -48.167 78 -64.5s62.333 -24.5 93 -24.5c39.333 0 71.166 10 95.499 30s36.5 46.333 36.5 79c0 21.333 -4.16699 40 -12.5 56s-22.666 31.5 -42.999 46.5
s-49.166 31.5 -86.499 49.5c-71.333 34.667 -121.5 67.5 -150.5 98.5s-43.5 67.167 -43.5 108.5c0 53.333 19.333 96 58 128s90 48 154 48c44.667 0 85.5 -9.66699 122.5 -29s63.833 -45.333 80.5 -78l-60 -44c-16 23.333 -36.667 41.666 -62 54.999s-52 20 -80 20
c-37.333 0 -66.833 -8.83301 -88.5 -26.5s-32.5 -41.5 -32.5 -71.5c0 -18 4 -33.333 12 -46s22.833 -25.834 44.5 -39.501s55.834 -32.167 102.501 -55.5c63.333 -31.333 108.666 -63.5 135.999 -96.5s41 -71.833 41 -116.5c0 -38 -9.5 -71.5 -28.5 -100.5
s-45.667 -51.5 -80 -67.5s-74.166 -24 -119.499 -24s-87.833 9.66699 -127.5 29zM235.998 897.002h58l112 -143h-74l-67 88l-67 -88h-74z" />
    <glyph glyph-name="scircumflex" unicode="&#x15d;" horiz-adv-x="416" 
d="M98.5 13c-30.333 15.333 -51.834 35.665 -64.501 60.998l55 38c11.333 -18 27 -32 47 -42s41.667 -15 65 -15c28 0 51.167 8.16699 69.5 24.5s27.5 36.833 27.5 61.5c0 20 -7.33301 36.667 -22 50s-40.667 27 -78 41c-56.667 20.667 -96.5 42.334 -119.5 65.001
s-34.5 50.667 -34.5 84c0 38.667 15.333 69.834 46 93.501s71.334 35.5 122.001 35.5c32.667 0 62.5 -7 89.5 -21s47.833 -33.333 62.5 -58l-52 -38c-23.333 34.667 -56.666 52 -99.999 52c-24.667 0 -44.834 -5.66699 -60.501 -17s-23.5 -26 -23.5 -44s8 -33.167 24 -45.5
s45.667 -26.833 89 -43.5c51.333 -19.333 87.666 -40.5 108.999 -63.5s32 -52.167 32 -87.5c0 -46.667 -16.667 -84 -50 -112s-77.333 -42 -132 -42c-37.333 0 -71.166 7.66699 -101.499 23zM179.999 696.999h58l112 -143h-74l-67 88l-67 -88h-74z" />
    <glyph glyph-name="Scedilla" unicode="&#x15e;" horiz-adv-x="529" 
d="M435 50c-36 -34 -84.335 -53.666 -145.002 -58.999l-28 -53c27.333 0 49.333 -6.16699 66 -18.5s25 -29.833 25 -52.5c0 -26.667 -9.16699 -48 -27.5 -64s-43.5 -24 -75.5 -24c-13.333 0 -27.333 1.16699 -42 3.5s-26 5.5 -34 9.5l8 39c15.333 -4.66699 34 -7 56 -7
c16 0 29.167 3.5 39.5 10.5s15.5 17.167 15.5 30.5c0 12 -6.66699 21.333 -20 28s-32.333 9.66699 -57 9l-20 22l38 67c-40.667 4 -78.167 15.333 -112.5 34s-62.166 43.334 -83.499 74.001l56 56c20.667 -26.667 46.667 -48.167 78 -64.5s62.333 -24.5 93 -24.5
c39.333 0 71.166 10 95.499 30s36.5 46.333 36.5 79c0 21.333 -4.16699 40 -12.5 56s-22.666 31.5 -42.999 46.5s-49.166 31.5 -86.499 49.5c-71.333 34.667 -121.5 67.5 -150.5 98.5s-43.5 67.167 -43.5 108.5c0 53.333 19.333 96 58 128s90 48 154 48
c44.667 0 85.5 -9.66699 122.5 -29s63.833 -45.333 80.5 -78l-60 -44c-16 23.333 -36.667 41.666 -62 54.999s-52 20 -80 20c-37.333 0 -66.833 -8.83301 -88.5 -26.5s-32.5 -41.5 -32.5 -71.5c0 -18 4 -33.333 12 -46s22.833 -25.834 44.5 -39.501
s55.834 -32.167 102.501 -55.5c63.333 -31.333 108.666 -63.5 135.999 -96.5s41 -71.833 41 -116.5c0 -54 -18 -98 -54 -132z" />
    <glyph glyph-name="scedilla" unicode="&#x15f;" horiz-adv-x="416" 
d="M342 41c-26.667 -27.333 -62.667 -43.6709 -108 -49.0039l-28 -54c27.333 0 49.333 -6.16699 66 -18.5s25 -29.833 25 -52.5c0 -26.667 -9.16699 -48 -27.5 -64s-43.5 -24 -75.5 -24c-13.333 0 -27.333 1.16699 -42 3.5s-26 5.5 -34 9.5l8 39
c15.333 -4.66699 34 -7 56 -7c16 0 29.167 3.5 39.5 10.5s15.5 17.167 15.5 30.5c0 12 -6.66699 21.333 -20 28s-32.333 9.66699 -57 9l-20 22l38 67c-33.333 3.33301 -63 12.333 -89 27s-44.333 33.334 -55 56.001l55 38c11.333 -18 27 -32 47 -42s41.667 -15 65 -15
c28 0 51.167 8.16699 69.5 24.5s27.5 36.833 27.5 61.5c0 20 -7.33301 36.667 -22 50s-40.667 27 -78 41c-56.667 20.667 -96.5 42.334 -119.5 65.001s-34.5 50.667 -34.5 84c0 38.667 15.333 69.834 46 93.501s71.334 35.5 122.001 35.5c32.667 0 62.5 -7 89.5 -21
s47.833 -33.333 62.5 -58l-52 -38c-23.333 34.667 -56.666 52 -99.999 52c-24.667 0 -44.834 -5.66699 -60.501 -17s-23.5 -26 -23.5 -44s8 -33.167 24 -45.5s45.667 -26.833 89 -43.5c51.333 -19.333 87.666 -40.5 108.999 -63.5s32 -52.167 32 -87.5
c0 -41.333 -13.333 -75.666 -40 -102.999z" />
    <glyph glyph-name="Scaron" unicode="&#x160;" horiz-adv-x="529" 
d="M133.5 19c-39.667 19.333 -71.502 46.002 -95.502 80.002l56 56c20.667 -26.667 46.667 -48.167 78 -64.5s62.333 -24.5 93 -24.5c39.333 0 71.166 10 95.499 30s36.5 46.333 36.5 79c0 21.333 -4.16699 40 -12.5 56s-22.666 31.5 -42.999 46.5
s-49.166 31.5 -86.499 49.5c-71.333 34.667 -121.5 67.5 -150.5 98.5s-43.5 67.167 -43.5 108.5c0 53.333 19.333 96 58 128s90 48 154 48c44.667 0 85.5 -9.66699 122.5 -29s63.833 -45.333 80.5 -78l-60 -44c-16 23.333 -36.667 41.666 -62 54.999s-52 20 -80 20
c-37.333 0 -66.833 -8.83301 -88.5 -26.5s-32.5 -41.5 -32.5 -71.5c0 -18 4 -33.333 12 -46s22.833 -25.834 44.5 -39.501s55.834 -32.167 102.501 -55.5c63.333 -31.333 108.666 -63.5 135.999 -96.5s41 -71.833 41 -116.5c0 -38 -9.5 -71.5 -28.5 -100.5
s-45.667 -51.5 -80 -67.5s-74.166 -24 -119.499 -24s-87.833 9.66699 -127.5 29zM123.998 897.002h74l67 -88l67 88h74l-112 -143h-58z" />
    <glyph glyph-name="scaron" unicode="&#x161;" horiz-adv-x="416" 
d="M98.5 13c-30.333 15.333 -51.834 35.665 -64.501 60.998l55 38c11.333 -18 27 -32 47 -42s41.667 -15 65 -15c28 0 51.167 8.16699 69.5 24.5s27.5 36.833 27.5 61.5c0 20 -7.33301 36.667 -22 50s-40.667 27 -78 41c-56.667 20.667 -96.5 42.334 -119.5 65.001
s-34.5 50.667 -34.5 84c0 38.667 15.333 69.834 46 93.501s71.334 35.5 122.001 35.5c32.667 0 62.5 -7 89.5 -21s47.833 -33.333 62.5 -58l-52 -38c-23.333 34.667 -56.666 52 -99.999 52c-24.667 0 -44.834 -5.66699 -60.501 -17s-23.5 -26 -23.5 -44s8 -33.167 24 -45.5
s45.667 -26.833 89 -43.5c51.333 -19.333 87.666 -40.5 108.999 -63.5s32 -52.167 32 -87.5c0 -46.667 -16.667 -84 -50 -112s-77.333 -42 -132 -42c-37.333 0 -71.166 7.66699 -101.499 23zM67.999 696.999h74l67 -88l67 88h74l-112 -143h-58z" />
    <glyph glyph-name="uni0162" unicode="&#x162;" horiz-adv-x="558" 
d="M308 0l-32 -62c27.333 0 49.333 -6.16699 66 -18.5s25 -29.833 25 -52.5c0 -26.667 -9.16699 -48 -27.5 -64s-43.5 -24 -75.5 -24c-13.333 0 -27.333 1.16699 -42 3.5s-26 5.5 -34 9.5l8 39c15.333 -4.66699 34 -7 56 -7c16 0 29.167 3.5 39.5 10.5
s15.5 17.167 15.5 30.5c0 12 -6.66699 21.333 -20 28s-32.333 9.66699 -57 9l-20 22l43 76h-20v628h-216v72h523v-72h-215v-628h-17z" />
    <glyph glyph-name="uni0163" unicode="&#x163;" horiz-adv-x="377" 
d="M295 -80.5c16.667 -12.333 24.999 -29.834 24.999 -52.501c0 -26.667 -9.16699 -48 -27.5 -64s-43.5 -24 -75.5 -24c-13.333 0 -27.333 1.16699 -42 3.5s-26 5.5 -34 9.5l8 39c15.333 -4.66699 34 -7 56 -7c16 0 29.167 3.5 39.5 10.5s15.5 17.167 15.5 30.5
c0 12 -6.66699 21.333 -20 28s-32.333 9.66699 -57 9l-20 22l40 70c-32.667 8 -58 25.5 -76 52.5s-27 61.5 -27 103.5v284h-90v66h90v133l81 25h4v-158h142v-66h-142v-276c0 -34 6.33301 -59.167 19 -75.5s32.334 -24.5 59.001 -24.5c28.667 0 52 3.66699 70 11l6 -63
c-19.333 -9.33301 -47 -14.666 -83 -15.999l-27 -52c27.333 0 49.333 -6.16699 66 -18.5z" />
    <glyph glyph-name="Tcaron" unicode="&#x164;" horiz-adv-x="558" 
d="M233 628h-216v72h523v-72h-215v-628h-92v628zM138 897h74l67 -88l67 88h74l-112 -143h-58z" />
    <glyph glyph-name="tcaron" unicode="&#x165;" horiz-adv-x="458" 
d="M138 32.5c-25.333 28.333 -38.001 67.5 -38.001 117.5v284h-90v66h90v133l81 25h4v-158h142v-66h-142v-276c0 -34 6.33301 -59.167 19 -75.5s32.334 -24.5 59.001 -24.5c28.667 0 52 3.66699 70 11l6 -63c-22 -10.667 -54.333 -16 -97 -16
c-44 0 -78.667 14.167 -104 42.5zM430.999 715.5c10.667 -12.333 16 -28.167 16 -47.5c0 -22 -5.83301 -45.667 -17.5 -71s-26.834 -47.333 -45.501 -66l-36 26c1.33301 2.66699 6.83301 11 16.5 25s16.834 28.333 21.501 43h-2c-15.333 0 -28 5 -38 15s-15 22.667 -15 38
c0 16.667 5 30.167 15 40.5s23.333 15.5 40 15.5c19.333 0 34.333 -6.16699 45 -18.5z" />
    <glyph glyph-name="Tbar" unicode="&#x166;" horiz-adv-x="558" 
d="M325 628v-260h164v-62h-164v-306h-92v306h-164v62h164v260h-216v72h523v-72h-215z" />
    <glyph glyph-name="tbar" unicode="&#x167;" horiz-adv-x="377" 
d="M339 6c-22 -10.667 -54.334 -16 -97.001 -16c-44 0 -78.667 14.167 -104 42.5s-38 67.5 -38 117.5v96h-80v55h80v133h-90v66h90v133l81 25h4v-158h142v-66h-142v-133h110v-55h-110v-88c0 -34 6.33301 -59.167 19 -75.5s32.334 -24.5 59.001 -24.5
c28.667 0 52 3.66699 70 11z" />
    <glyph glyph-name="Utilde" unicode="&#x168;" horiz-adv-x="657" 
d="M140.5 61.5c-42.333 47.667 -63.501 118.5 -63.501 212.5v426h93v-424c0 -140 53 -210 159 -210s159 70 159 210v424h92v-426c0 -93.333 -21.167 -164 -63.5 -212s-104.833 -72 -187.5 -72c-83.333 0 -146.166 23.833 -188.499 71.5zM205.499 827
c15 18.667 34.501 28 58.501 28c12 0 22.833 -2 32.5 -6s23.5 -11 41.5 -21c20.667 -13.333 36.334 -20 47.001 -20c9.33301 0 16.5 4 21.5 12s8.16699 21 9.5 39h52c-0.666992 -32 -8.66699 -57.5 -24 -76.5s-35.333 -28.5 -60 -28.5c-12.667 0 -24.667 2.5 -36 7.5
s-25 12.167 -41 21.5c-19.333 12 -33 18 -41 18c-8.66699 0 -15.834 -4.16699 -21.501 -12.5s-8.83398 -19.833 -9.50098 -34.5h-52c0 30 7.5 54.333 22.5 73z" />
    <glyph glyph-name="utilde" unicode="&#x169;" horiz-adv-x="552" 
d="M105.5 46c-29.667 37.333 -44.502 92.333 -44.502 165v289h85v-290c0 -101.333 36 -152 108 -152c28 0 53.333 7.16699 76 21.5s40.334 34.333 53.001 60s19 54.5 19 86.5v274h85v-394c0 -33.333 3 -68.666 9 -105.999h-78c-6 29.333 -9.33301 59 -10 89h-3
c-14.667 -30.667 -37.167 -54.834 -67.5 -72.501s-64.166 -26.5 -101.499 -26.5c-57.333 0 -100.833 18.667 -130.5 56zM155.498 627c15 18.667 34.501 28 58.501 28c12 0 22.833 -2 32.5 -6s23.5 -11 41.5 -21c20.667 -13.333 36.334 -20 47.001 -20
c9.33301 0 16.5 4 21.5 12s8.16699 21 9.5 39h52c-0.666992 -32 -8.66699 -57.5 -24 -76.5s-35.333 -28.5 -60 -28.5c-12.667 0 -24.667 2.5 -36 7.5s-25 12.167 -41 21.5c-19.333 12 -33 18 -41 18c-8.66699 0 -15.834 -4.16699 -21.501 -12.5
s-8.83398 -19.833 -9.50098 -34.5h-52c0 30 7.5 54.333 22.5 73z" />
    <glyph glyph-name="Umacron" unicode="&#x16a;" horiz-adv-x="657" 
d="M140.5 61.5c-42.333 47.667 -63.501 118.5 -63.501 212.5v426h93v-424c0 -140 53 -210 159 -210s159 70 159 210v424h92v-426c0 -93.333 -21.167 -164 -63.5 -212s-104.833 -72 -187.5 -72c-83.333 0 -146.166 23.833 -188.499 71.5zM172.999 823h312v-59h-312v59z" />
    <glyph glyph-name="umacron" unicode="&#x16b;" horiz-adv-x="552" 
d="M105.5 46c-29.667 37.333 -44.502 92.333 -44.502 165v289h85v-290c0 -101.333 36 -152 108 -152c28 0 53.333 7.16699 76 21.5s40.334 34.333 53.001 60s19 54.5 19 86.5v274h85v-394c0 -33.333 3 -68.666 9 -105.999h-78c-6 29.333 -9.33301 59 -10 89h-3
c-14.667 -30.667 -37.167 -54.834 -67.5 -72.501s-64.166 -26.5 -101.499 -26.5c-57.333 0 -100.833 18.667 -130.5 56zM122.998 623h312v-59h-312v59z" />
    <glyph glyph-name="Ubreve" unicode="&#x16c;" horiz-adv-x="657" 
d="M140.5 61.5c-42.333 47.667 -63.501 118.5 -63.501 212.5v426h93v-424c0 -140 53 -210 159 -210s159 70 159 210v424h92v-426c0 -93.333 -21.167 -164 -63.5 -212s-104.833 -72 -187.5 -72c-83.333 0 -146.166 23.833 -188.499 71.5zM225.499 787.5
c-25.667 22.333 -39.5 55.5 -41.5 99.5h54c1.33301 -23.333 9.66602 -41.833 24.999 -55.5s37.333 -20.5 66 -20.5c26.667 0 48 6.33301 64 19s25 31.667 27 57h54c-1.33301 -41.333 -14.166 -73.833 -38.499 -97.5s-59.833 -35.5 -106.5 -35.5
c-43.333 0 -77.833 11.167 -103.5 33.5z" />
    <glyph glyph-name="ubreve" unicode="&#x16d;" horiz-adv-x="552" 
d="M105.5 46c-29.667 37.333 -44.502 92.333 -44.502 165v289h85v-290c0 -101.333 36 -152 108 -152c28 0 53.333 7.16699 76 21.5s40.334 34.333 53.001 60s19 54.5 19 86.5v274h85v-394c0 -33.333 3 -68.666 9 -105.999h-78c-6 29.333 -9.33301 59 -10 89h-3
c-14.667 -30.667 -37.167 -54.834 -67.5 -72.501s-64.166 -26.5 -101.499 -26.5c-57.333 0 -100.833 18.667 -130.5 56zM175.498 587.5c-25.667 22.333 -39.5 55.5 -41.5 99.5h54c1.33301 -23.333 9.66602 -41.833 24.999 -55.5s37.333 -20.5 66 -20.5
c26.667 0 48 6.33301 64 19s25 31.667 27 57h54c-1.33301 -41.333 -14.166 -73.833 -38.499 -97.5s-59.833 -35.5 -106.5 -35.5c-43.333 0 -77.833 11.167 -103.5 33.5z" />
    <glyph glyph-name="Uring" unicode="&#x16e;" horiz-adv-x="657" 
d="M140.5 61.5c-42.333 47.667 -63.501 118.5 -63.501 212.5v426h93v-424c0 -140 53 -210 159 -210s159 70 159 210v424h92v-426c0 -93.333 -21.167 -164 -63.5 -212s-104.833 -72 -187.5 -72c-83.333 0 -146.166 23.833 -188.499 71.5zM260.499 763
c-17.667 16.667 -26.5 38 -26.5 64s8.83301 47.333 26.5 64s40.5 25 68.5 25s50.833 -8.33301 68.5 -25s26.5 -38 26.5 -64s-8.83301 -47.333 -26.5 -64s-40.5 -25 -68.5 -25s-50.833 8.33301 -68.5 25zM364.999 790.5c9.33301 9.66699 14 21.834 14 36.501
s-4.66699 26.834 -14 36.501s-21.333 14.5 -36 14.5s-26.667 -4.83301 -36 -14.5s-14 -21.834 -14 -36.501s4.66699 -26.834 14 -36.501s21.333 -14.5 36 -14.5s26.667 4.83301 36 14.5z" />
    <glyph glyph-name="uring" unicode="&#x16f;" horiz-adv-x="552" 
d="M105.5 46c-29.667 37.333 -44.502 92.333 -44.502 165v289h85v-290c0 -101.333 36 -152 108 -152c28 0 53.333 7.16699 76 21.5s40.334 34.333 53.001 60s19 54.5 19 86.5v274h85v-394c0 -33.333 3 -68.666 9 -105.999h-78c-6 29.333 -9.33301 59 -10 89h-3
c-14.667 -30.667 -37.167 -54.834 -67.5 -72.501s-64.166 -26.5 -101.499 -26.5c-57.333 0 -100.833 18.667 -130.5 56zM210.498 563c-17.667 16.667 -26.5 38 -26.5 64s8.83301 47.333 26.5 64s40.5 25 68.5 25s50.833 -8.33301 68.5 -25s26.5 -38 26.5 -64
s-8.83301 -47.333 -26.5 -64s-40.5 -25 -68.5 -25s-50.833 8.33301 -68.5 25zM314.998 590.5c9.33301 9.66699 14 21.834 14 36.501s-4.66699 26.834 -14 36.501s-21.333 14.5 -36 14.5s-26.667 -4.83301 -36 -14.5s-14 -21.834 -14 -36.501s4.66699 -26.834 14 -36.501
s21.333 -14.5 36 -14.5s26.667 4.83301 36 14.5z" />
    <glyph glyph-name="Uhungarumlaut" unicode="&#x170;" horiz-adv-x="657" 
d="M140.5 61.5c-42.333 47.667 -63.501 118.5 -63.501 212.5v426h93v-424c0 -140 53 -210 159 -210s159 70 159 210v424h92v-426c0 -93.333 -21.167 -164 -63.5 -212s-104.833 -72 -187.5 -72c-83.333 0 -146.166 23.833 -188.499 71.5zM290.999 900h86l-96 -146h-69z
M420.999 900h86l-96 -146h-69z" />
    <glyph glyph-name="uhungarumlaut" unicode="&#x171;" horiz-adv-x="552" 
d="M105.5 46c-29.667 37.333 -44.502 92.333 -44.502 165v289h85v-290c0 -101.333 36 -152 108 -152c28 0 53.333 7.16699 76 21.5s40.334 34.333 53.001 60s19 54.5 19 86.5v274h85v-394c0 -33.333 3 -68.666 9 -105.999h-78c-6 29.333 -9.33301 59 -10 89h-3
c-14.667 -30.667 -37.167 -54.834 -67.5 -72.501s-64.166 -26.5 -101.499 -26.5c-57.333 0 -100.833 18.667 -130.5 56zM240.998 700h86l-96 -146h-69zM370.998 700h86l-96 -146h-69z" />
    <glyph glyph-name="Uogonek" unicode="&#x172;" horiz-adv-x="657" 
d="M580 700v-425.998c0 -86 -17.833 -152.833 -53.5 -200.5s-88.5 -74.834 -158.5 -81.501c-46.667 -34.667 -70 -68.334 -70 -101.001c0 -14.667 5.16699 -26.334 15.5 -35.001s26.166 -13 47.499 -13c14.667 0 32 4 52 12l11 -36
c-11.333 -9.33301 -24.833 -16.666 -40.5 -21.999s-32.167 -8 -49.5 -8c-30 0 -53.833 7.5 -71.5 22.5s-26.5 37.5 -26.5 67.5c0 44 23 81.333 69 112c-75.333 4 -132.166 29.833 -170.499 77.5s-57.5 116.167 -57.5 205.5v426h93v-424c0 -140 53 -210 159 -210
s159 70 159 210v424h92z" />
    <glyph glyph-name="uogonek" unicode="&#x173;" horiz-adv-x="552" 
d="M527 -181c-11.333 -9.33301 -24.834 -16.666 -40.501 -21.999s-32.167 -8 -49.5 -8c-30 0 -53.833 7.5 -71.5 22.5s-26.5 37.5 -26.5 67.5c0 49.333 28.333 89.666 85 120.999h-6c-6 29.333 -9.33301 59 -10 89h-3c-14.667 -30.667 -37.167 -54.834 -67.5 -72.501
s-64.166 -26.5 -101.499 -26.5c-57.333 0 -100.833 18.667 -130.5 56s-44.5 92.333 -44.5 165v289h85v-290c0 -101.333 36 -152 108 -152c28 0 53.333 7.16699 76 21.5s40.334 34.333 53.001 60s19 54.5 19 86.5v274h85v-394c0 -33.333 3 -68.666 9 -105.999h-14
c-54 -37.333 -81 -73.666 -81 -108.999c0 -14.667 5.16699 -26.334 15.5 -35.001s26.166 -13 47.499 -13c14.667 0 32 4 52 12z" />
    <glyph glyph-name="Wcircumflex" unicode="&#x174;" horiz-adv-x="831" 
d="M803 700l-145 -700h-91l-151 574l-152 -574h-91l-146 700h99l98 -559l145 559h93l144 -557l98 557h99zM386 897h58l112 -143h-74l-67 88l-67 -88h-74z" />
    <glyph glyph-name="wcircumflex" unicode="&#x175;" horiz-adv-x="668" 
d="M657 500l-125 -500h-77l-121 409l-121 -409h-77l-125 500h89l81 -384l114 384h78l114 -384l81 384h89zM305 697h58l112 -143h-74l-67 88l-67 -88h-74z" />
    <glyph glyph-name="Ycircumflex" unicode="&#x176;" horiz-adv-x="573" 
d="M240 278l-223 422h102l167 -334l167 334h102l-222 -422v-278h-93v278zM257 897h58l112 -143h-74l-67 88l-67 -88h-74z" />
    <glyph glyph-name="ycircumflex" unicode="&#x177;" horiz-adv-x="462" 
d="M451 500l-181 -509.001c-46 -128.667 -117 -193 -213 -193c-17.333 0 -36 2.33301 -56 7v65c12 -4 26.667 -6 44 -6c34 0 63 12.333 87 37s47 66.334 69 125.001l-186 474h91l134 -383l119 383h92zM207 696.999h58l112 -143h-74l-67 88l-67 -88h-74z" />
    <glyph glyph-name="Ydieresis" unicode="&#x178;" horiz-adv-x="573" 
d="M240 278l-223 422h102l167 -334l167 334h102l-222 -422v-278h-93v278zM149 768.5c-10 9.66699 -15 21.834 -15 36.501s4.83301 26.834 14.5 36.501s22.167 14.5 37.5 14.5c14.667 0 27 -4.83301 37 -14.5s15 -21.834 15 -36.501s-5 -26.834 -15 -36.501
s-22.333 -14.5 -37 -14.5s-27 4.83301 -37 14.5zM349 768.5c-10 9.66699 -15 21.834 -15 36.501s5 26.834 15 36.501s22.333 14.5 37 14.5c15.333 0 27.833 -4.83301 37.5 -14.5s14.5 -21.834 14.5 -36.501s-5 -26.834 -15 -36.501s-22.333 -14.5 -37 -14.5
s-27 4.83301 -37 14.5z" />
    <glyph glyph-name="Zacute" unicode="&#x179;" horiz-adv-x="567" 
d="M34 51l372 573h-343v76h457v-53l-371 -571h384v-76h-499v51zM331 900h87l-97 -146h-68z" />
    <glyph glyph-name="zacute" unicode="&#x17a;" horiz-adv-x="451" 
d="M26 48l289 386h-275v66h375v-49l-285 -385h295v-66h-399v48zM273 700h87l-97 -146h-68z" />
    <glyph glyph-name="Zdotaccent" unicode="&#x17b;" horiz-adv-x="567" 
d="M34 51l372 573h-343v76h457v-53l-371 -571h384v-76h-499v51zM246 768.5c-10 9.66699 -15 21.834 -15 36.501s4.83301 26.834 14.5 36.501s22.167 14.5 37.5 14.5s27.833 -4.83301 37.5 -14.5s14.5 -21.834 14.5 -36.501s-5 -26.834 -15 -36.501s-22.333 -14.5 -37 -14.5
s-27 4.83301 -37 14.5z" />
    <glyph glyph-name="zdotaccent" unicode="&#x17c;" horiz-adv-x="451" 
d="M26 48l289 386h-275v66h375v-49l-285 -385h295v-66h-399v48zM188 568.5c-10 9.66699 -15 21.834 -15 36.501s4.83301 26.834 14.5 36.501s22.167 14.5 37.5 14.5s27.833 -4.83301 37.5 -14.5s14.5 -21.834 14.5 -36.501s-5 -26.834 -15 -36.501s-22.333 -14.5 -37 -14.5
s-27 4.83301 -37 14.5z" />
    <glyph glyph-name="Zcaron" unicode="&#x17d;" horiz-adv-x="567" 
d="M34 51l372 573h-343v76h457v-53l-371 -571h384v-76h-499v51zM142 897h74l67 -88l67 88h74l-112 -143h-58z" />
    <glyph glyph-name="zcaron" unicode="&#x17e;" horiz-adv-x="451" 
d="M26 48l289 386h-275v66h375v-49l-285 -385h295v-66h-399v48zM84 697h74l67 -88l67 88h74l-112 -143h-58z" />
    <glyph glyph-name="uni018F" unicode="&#x18f;" horiz-adv-x="670" 
d="M490 667c47.333 -28.667 83.501 -70.332 108.501 -124.999s37.5 -119.667 37.5 -195c0 -74 -12.167 -137.833 -36.5 -191.5s-59.333 -94.667 -105 -123s-99.834 -42.5 -162.501 -42.5c-94.667 0 -168 30.667 -220 92s-78 147.666 -78 258.999v44h509
c-5.33301 79.333 -27.333 141 -66 185s-90 66 -154 66c-42 0 -80.167 -9.33301 -114.5 -28s-62.833 -45.667 -85.5 -81l-56 56c26.667 40.667 61.834 72 105.501 94s93.167 33 148.5 33c65.333 0 121.666 -14.333 168.999 -43zM480.001 130.502
c37.333 44.333 58.333 105.833 63 184.5h-415v-9c0 -74 18.333 -132.833 55 -176.5s86 -65.5 148 -65.5s111.667 22.167 149 66.5z" />
    <glyph glyph-name="florin" unicode="&#x192;" horiz-adv-x="455" 
d="M281 624.5c-14 -12.333 -23.665 -31.167 -28.998 -56.5l-14 -68h150v-68h-164l-105 -513h-89l106 513h-96v68h110l17 81c8.66699 42 25.667 74 51 96s63.333 33 114 33c22 0 43.167 -3.16699 63.5 -9.5s36.5 -14.5 48.5 -24.5l-31 -56
c-8.66699 6.66699 -19.334 12.167 -32.001 16.5s-25.334 6.5 -38.001 6.5c-27.333 0 -48 -6.16699 -62 -18.5z" />
    <glyph glyph-name="Ohorn" unicode="&#x1a0;" horiz-adv-x="697" 
d="M724 700v-36.999c0 -40.667 -10.167 -77 -30.5 -109s-47.5 -56.667 -81.5 -74c10 -38.667 15 -82 15 -130c0 -73.333 -12 -137.166 -36 -191.499s-58.167 -96 -102.5 -125s-96.833 -43.5 -157.5 -43.5s-113.334 14.5 -158.001 43.5s-79 70.667 -103 125
s-36 118.166 -36 191.499s12 137.166 36 191.499s58.333 96 103 125s97.334 43.5 158.001 43.5c62.667 0 116.5 -15.333 161.5 -46s79.167 -74.667 102.5 -132c18.667 16.667 32.167 35.167 40.5 55.5s12.5 45.5 12.5 75.5v37h76zM439.5 99.001
c31 23.333 54.667 56.5 71 99.5s24.5 93.5 24.5 151.5s-8.16699 108.5 -24.5 151.5s-40 76.167 -71 99.5s-67.167 35 -108.5 35c-42 0 -78.333 -11.667 -109 -35s-54.334 -56.5 -71.001 -99.5s-25 -93.5 -25 -151.5s8.33301 -108.5 25 -151.5s40.334 -76.167 71.001 -99.5
s67 -35 109 -35c41.333 0 77.5 11.667 108.5 35z" />
    <glyph glyph-name="ohorn" unicode="&#x1a1;" horiz-adv-x="598" 
d="M628 500l0.00195312 -36.998c0 -40 -9.83301 -75.833 -29.5 -107.5s-45.834 -56.167 -78.501 -73.5c0.666992 -7.33301 1 -18 1 -32c0 -80 -21.833 -143.333 -65.5 -190s-102.834 -70 -177.501 -70c-49.333 0 -92.166 10.5 -128.499 31.5s-64.333 51.167 -84 90.5
s-29.5 85.333 -29.5 138s9.83301 98.667 29.5 138s47.667 69.5 84 90.5s79.166 31.5 128.499 31.5c59.333 0 109 -14.833 149 -44.5s67.333 -70.834 82 -123.501c15.333 15.333 26.333 32.666 33 51.999s10 42.333 10 69v37h76zM394.002 107.002
c28 34.667 42 82.334 42 143.001s-14 108.334 -42 143.001s-66.667 52 -116 52c-48.667 0 -87 -17.333 -115 -52s-42 -82.334 -42 -143.001s14 -108.334 42 -143.001s66.333 -52 115 -52c49.333 0 88 17.333 116 52z" />
    <glyph glyph-name="Uhorn" unicode="&#x1af;" horiz-adv-x="694" 
d="M728 700v-37c0 -47.333 -13.833 -88.833 -41.5 -124.5s-63.167 -60.167 -106.5 -73.5v-191c0 -93.333 -21.167 -164 -63.5 -212s-104.833 -72 -187.5 -72c-83.333 0 -146.166 23.833 -188.499 71.5s-63.5 118.5 -63.5 212.5v426h93v-424c0 -140 53 -210 159 -210
s159 70 159 210v424h92v-183c25.333 18 43.666 38.333 54.999 61s17 51 17 85v37h76z" />
    <glyph glyph-name="uhorn" unicode="&#x1b0;" horiz-adv-x="599" 
d="M629 500l-0.000976562 -37c0 -46.667 -13.167 -87.5 -39.5 -122.5s-60.5 -59.5 -102.5 -73.5v-161c0 -33.333 3 -68.666 9 -105.999h-78c-6 29.333 -9.33301 59 -10 89h-3c-14.667 -30.667 -37.167 -54.834 -67.5 -72.501s-64.166 -26.5 -101.499 -26.5
c-57.333 0 -100.833 18.667 -130.5 56s-44.5 92.333 -44.5 165v289h85v-290c0 -101.333 36 -152 108 -152c28 0 53.333 7.16699 76 21.5s40.334 34.333 53.001 60s19 54.5 19 86.5v274h85v-179c23.333 18 40.166 38 50.499 60s15.5 49.333 15.5 82v37h76z" />
    <glyph glyph-name="uni01CD" unicode="&#x1cd;" horiz-adv-x="596" 
d="M434 151h-272l-47 -151h-98l238 700h86l238 -700h-98zM410 226l-112 359l-112 -359h224zM157 897h74l67 -88l67 88h74l-112 -143h-58z" />
    <glyph glyph-name="uni01CE" unicode="&#x1ce;" horiz-adv-x="514" 
d="M87 33c-31.333 28.667 -47.0029 65.667 -47.0029 111c0 50 18.833 88.667 56.5 116s91.167 41 160.5 41h103v26c0 37.333 -9.83301 65.833 -29.5 85.5s-48.167 29.5 -85.5 29.5c-30 0 -57.5 -6.16699 -82.5 -18.5s-45.833 -30.166 -62.5 -53.499l-43 52
c22.667 28.667 50.334 50.5 83.001 65.5s69 22.5 109 22.5c62.667 0 111 -15.333 145 -46s51 -74.667 51 -132v-235c0 -26 4 -58.333 12 -97h-74c-6 15.333 -10.333 38.666 -13 69.999h-2c-18.667 -26 -41.667 -45.833 -69 -59.5s-57.666 -20.5 -90.999 -20.5
c-49.333 0 -89.666 14.333 -120.999 43zM290.997 71.5c21.333 9.66699 38.168 22.835 50.501 39.502s18.5 35 18.5 55v74h-106c-42 0 -74.333 -8.33301 -97 -25s-34 -40.334 -34 -71.001c0 -26.667 8.83301 -47.834 26.5 -63.501s41.5 -23.5 71.5 -23.5
c25.333 0 48.666 4.83301 69.999 14.5zM112.999 697.001h74l67 -88l67 88h74l-112 -143h-58z" />
    <glyph glyph-name="uni01CF" unicode="&#x1cf;" horiz-adv-x="292" 
d="M100 700h92v-700h-92v700zM6 897h74l67 -88l67 88h74l-112 -143h-58z" />
    <glyph glyph-name="uni01D0" unicode="&#x1d0;" horiz-adv-x="253" 
d="M84 500h85v-500h-85v500zM-15 697h74l67 -88l67 88h74l-112 -143h-58z" />
    <glyph glyph-name="uni01D1" unicode="&#x1d1;" horiz-adv-x="661" 
d="M173 33.5c-44.667 29 -79 70.667 -103 125s-36 118.166 -36 191.499s12 137.166 36 191.499s58.333 96 103 125s97.334 43.5 158.001 43.5s113.167 -14.5 157.5 -43.5s78.5 -70.667 102.5 -125s36 -118.166 36 -191.499s-12 -137.166 -36 -191.499
s-58.167 -96 -102.5 -125s-96.833 -43.5 -157.5 -43.5s-113.334 14.5 -158.001 43.5zM439.5 99c31 23.333 54.667 56.5 71 99.5s24.5 93.5 24.5 151.5s-8.16699 108.5 -24.5 151.5s-40 76.167 -71 99.5s-67.167 35 -108.5 35c-42 0 -78.333 -11.667 -109 -35
s-54.334 -56.5 -71.001 -99.5s-25 -93.5 -25 -151.5s8.33301 -108.5 25 -151.5s40.334 -76.167 71.001 -99.5s67 -35 109 -35c41.333 0 77.5 11.667 108.5 35zM190 897h74l67 -88l67 88h74l-112 -143h-58z" />
    <glyph glyph-name="uni01D2" unicode="&#x1d2;" horiz-adv-x="557" 
d="M149.5 21.5c-36.333 21 -64.333 51.167 -84 90.5s-29.5 85.333 -29.5 138s9.83301 98.667 29.5 138s47.667 69.5 84 90.5s79.166 31.5 128.499 31.5c74.667 0 133.834 -23.333 177.501 -70s65.5 -110 65.5 -190s-21.833 -143.333 -65.5 -190s-102.834 -70 -177.501 -70
c-49.333 0 -92.166 10.5 -128.499 31.5zM394 107c28 34.667 42 82.334 42 143.001s-14 108.334 -42 143.001s-66.667 52 -116 52c-48.667 0 -87 -17.333 -115 -52s-42 -82.334 -42 -143.001s14 -108.334 42 -143.001s66.333 -52 115 -52c49.333 0 88 17.333 116 52zM137 697
h74l67 -88l67 88h74l-112 -143h-58z" />
    <glyph glyph-name="uni01D3" unicode="&#x1d3;" horiz-adv-x="657" 
d="M140.5 61.5c-42.333 47.667 -63.501 118.5 -63.501 212.5v426h93v-424c0 -140 53 -210 159 -210s159 70 159 210v424h92v-426c0 -93.333 -21.167 -164 -63.5 -212s-104.833 -72 -187.5 -72c-83.333 0 -146.166 23.833 -188.499 71.5zM187.999 897h74l67 -88l67 88h74
l-112 -143h-58z" />
    <glyph glyph-name="uni01D4" unicode="&#x1d4;" horiz-adv-x="552" 
d="M105.5 46c-29.667 37.333 -44.502 92.333 -44.502 165v289h85v-290c0 -101.333 36 -152 108 -152c28 0 53.333 7.16699 76 21.5s40.334 34.333 53.001 60s19 54.5 19 86.5v274h85v-394c0 -33.333 3 -68.666 9 -105.999h-78c-6 29.333 -9.33301 59 -10 89h-3
c-14.667 -30.667 -37.167 -54.834 -67.5 -72.501s-64.166 -26.5 -101.499 -26.5c-57.333 0 -100.833 18.667 -130.5 56zM137.998 697h74l67 -88l67 88h74l-112 -143h-58z" />
    <glyph glyph-name="uni01D5" unicode="&#x1d5;" horiz-adv-x="657" 
d="M140.5 61.5c-42.333 47.667 -63.501 118.5 -63.501 212.5v426h93v-424c0 -140 53 -210 159 -210s159 70 159 210v424h92v-426c0 -93.333 -21.167 -164 -63.5 -212s-104.833 -72 -187.5 -72c-83.333 0 -146.166 23.833 -188.499 71.5zM188.999 954h281v-54h-281v54z
M191.999 768.5c-10 9.66699 -15 21.834 -15 36.501s4.83301 26.834 14.5 36.501s22.167 14.5 37.5 14.5c14.667 0 27 -4.83301 37 -14.5s15 -21.834 15 -36.501s-5 -26.834 -15 -36.501s-22.333 -14.5 -37 -14.5s-27 4.83301 -37 14.5zM391.999 768.5
c-10 9.66699 -15 21.834 -15 36.501s5 26.834 15 36.501s22.333 14.5 37 14.5c15.333 0 27.833 -4.83301 37.5 -14.5s14.5 -21.834 14.5 -36.501s-5 -26.834 -15 -36.501s-22.333 -14.5 -37 -14.5s-27 4.83301 -37 14.5z" />
    <glyph glyph-name="uni01D6" unicode="&#x1d6;" horiz-adv-x="552" 
d="M105.5 46c-29.667 37.333 -44.502 92.333 -44.502 165v289h85v-290c0 -101.333 36 -152 108 -152c28 0 53.333 7.16699 76 21.5s40.334 34.333 53.001 60s19 54.5 19 86.5v274h85v-394c0 -33.333 3 -68.666 9 -105.999h-78c-6 29.333 -9.33301 59 -10 89h-3
c-14.667 -30.667 -37.167 -54.834 -67.5 -72.501s-64.166 -26.5 -101.499 -26.5c-57.333 0 -100.833 18.667 -130.5 56zM138.998 754h281v-54h-281v54zM141.998 568.5c-10 9.66699 -15 21.834 -15 36.501s4.83301 26.834 14.5 36.501s22.167 14.5 37.5 14.5
c14.667 0 27 -4.83301 37 -14.5s15 -21.834 15 -36.501s-5 -26.834 -15 -36.501s-22.333 -14.5 -37 -14.5s-27 4.83301 -37 14.5zM341.998 568.5c-10 9.66699 -15 21.834 -15 36.501s5 26.834 15 36.501s22.333 14.5 37 14.5c15.333 0 27.833 -4.83301 37.5 -14.5
s14.5 -21.834 14.5 -36.501s-5 -26.834 -15 -36.501s-22.333 -14.5 -37 -14.5s-27 4.83301 -37 14.5z" />
    <glyph glyph-name="uni01D7" unicode="&#x1d7;" horiz-adv-x="657" 
d="M140.5 61.5c-42.333 47.667 -63.501 118.5 -63.501 212.5v426h93v-424c0 -140 53 -210 159 -210s159 70 159 210v424h92v-426c0 -93.333 -21.167 -164 -63.5 -212s-104.833 -72 -187.5 -72c-83.333 0 -146.166 23.833 -188.499 71.5zM342.999 986h70l-63 -103h-54z
M191.999 768.5c-10 9.66699 -15 21.834 -15 36.501s4.83301 26.834 14.5 36.501s22.167 14.5 37.5 14.5c14.667 0 27 -4.83301 37 -14.5s15 -21.834 15 -36.501s-5 -26.834 -15 -36.501s-22.333 -14.5 -37 -14.5s-27 4.83301 -37 14.5zM391.999 768.5
c-10 9.66699 -15 21.834 -15 36.501s5 26.834 15 36.501s22.333 14.5 37 14.5c15.333 0 27.833 -4.83301 37.5 -14.5s14.5 -21.834 14.5 -36.501s-5 -26.834 -15 -36.501s-22.333 -14.5 -37 -14.5s-27 4.83301 -37 14.5z" />
    <glyph glyph-name="uni01D8" unicode="&#x1d8;" horiz-adv-x="552" 
d="M105.5 46c-29.667 37.333 -44.502 92.333 -44.502 165v289h85v-290c0 -101.333 36 -152 108 -152c28 0 53.333 7.16699 76 21.5s40.334 34.333 53.001 60s19 54.5 19 86.5v274h85v-394c0 -33.333 3 -68.666 9 -105.999h-78c-6 29.333 -9.33301 59 -10 89h-3
c-14.667 -30.667 -37.167 -54.834 -67.5 -72.501s-64.166 -26.5 -101.499 -26.5c-57.333 0 -100.833 18.667 -130.5 56zM292.998 786h70l-63 -103h-54zM141.998 568.5c-10 9.66699 -15 21.834 -15 36.501s4.83301 26.834 14.5 36.501s22.167 14.5 37.5 14.5
c14.667 0 27 -4.83301 37 -14.5s15 -21.834 15 -36.501s-5 -26.834 -15 -36.501s-22.333 -14.5 -37 -14.5s-27 4.83301 -37 14.5zM341.998 568.5c-10 9.66699 -15 21.834 -15 36.501s5 26.834 15 36.501s22.333 14.5 37 14.5c15.333 0 27.833 -4.83301 37.5 -14.5
s14.5 -21.834 14.5 -36.501s-5 -26.834 -15 -36.501s-22.333 -14.5 -37 -14.5s-27 4.83301 -37 14.5z" />
    <glyph glyph-name="uni01D9" unicode="&#x1d9;" horiz-adv-x="657" 
d="M140.5 61.5c-42.333 47.667 -63.501 118.5 -63.501 212.5v426h93v-424c0 -140 53 -210 159 -210s159 70 159 210v424h92v-426c0 -93.333 -21.167 -164 -63.5 -212s-104.833 -72 -187.5 -72c-83.333 0 -146.166 23.833 -188.499 71.5zM192.999 995h72l64 -74l64 74h72
l-110 -121h-53zM191.999 768.5c-10 9.66699 -15 21.834 -15 36.501s4.83301 26.834 14.5 36.501s22.167 14.5 37.5 14.5c14.667 0 27 -4.83301 37 -14.5s15 -21.834 15 -36.501s-5 -26.834 -15 -36.501s-22.333 -14.5 -37 -14.5s-27 4.83301 -37 14.5zM391.999 768.5
c-10 9.66699 -15 21.834 -15 36.501s5 26.834 15 36.501s22.333 14.5 37 14.5c15.333 0 27.833 -4.83301 37.5 -14.5s14.5 -21.834 14.5 -36.501s-5 -26.834 -15 -36.501s-22.333 -14.5 -37 -14.5s-27 4.83301 -37 14.5z" />
    <glyph glyph-name="uni01DA" unicode="&#x1da;" horiz-adv-x="552" 
d="M105.5 46c-29.667 37.333 -44.502 92.333 -44.502 165v289h85v-290c0 -101.333 36 -152 108 -152c28 0 53.333 7.16699 76 21.5s40.334 34.333 53.001 60s19 54.5 19 86.5v274h85v-394c0 -33.333 3 -68.666 9 -105.999h-78c-6 29.333 -9.33301 59 -10 89h-3
c-14.667 -30.667 -37.167 -54.834 -67.5 -72.501s-64.166 -26.5 -101.499 -26.5c-57.333 0 -100.833 18.667 -130.5 56zM142.998 795h72l64 -74l64 74h72l-110 -121h-53zM141.998 568.5c-10 9.66699 -15 21.834 -15 36.501s4.83301 26.834 14.5 36.501
s22.167 14.5 37.5 14.5c14.667 0 27 -4.83301 37 -14.5s15 -21.834 15 -36.501s-5 -26.834 -15 -36.501s-22.333 -14.5 -37 -14.5s-27 4.83301 -37 14.5zM341.998 568.5c-10 9.66699 -15 21.834 -15 36.501s5 26.834 15 36.501s22.333 14.5 37 14.5
c15.333 0 27.833 -4.83301 37.5 -14.5s14.5 -21.834 14.5 -36.501s-5 -26.834 -15 -36.501s-22.333 -14.5 -37 -14.5s-27 4.83301 -37 14.5z" />
    <glyph glyph-name="uni01DB" unicode="&#x1db;" horiz-adv-x="657" 
d="M140.5 61.5c-42.333 47.667 -63.501 118.5 -63.501 212.5v426h93v-424c0 -140 53 -210 159 -210s159 70 159 210v424h92v-426c0 -93.333 -21.167 -164 -63.5 -212s-104.833 -72 -187.5 -72c-83.333 0 -146.166 23.833 -188.499 71.5zM243.999 986h70l47 -103h-54z
M191.999 768.5c-10 9.66699 -15 21.834 -15 36.501s4.83301 26.834 14.5 36.501s22.167 14.5 37.5 14.5c14.667 0 27 -4.83301 37 -14.5s15 -21.834 15 -36.501s-5 -26.834 -15 -36.501s-22.333 -14.5 -37 -14.5s-27 4.83301 -37 14.5zM391.999 768.5
c-10 9.66699 -15 21.834 -15 36.501s5 26.834 15 36.501s22.333 14.5 37 14.5c15.333 0 27.833 -4.83301 37.5 -14.5s14.5 -21.834 14.5 -36.501s-5 -26.834 -15 -36.501s-22.333 -14.5 -37 -14.5s-27 4.83301 -37 14.5z" />
    <glyph glyph-name="uni01DC" unicode="&#x1dc;" horiz-adv-x="552" 
d="M105.5 46c-29.667 37.333 -44.502 92.333 -44.502 165v289h85v-290c0 -101.333 36 -152 108 -152c28 0 53.333 7.16699 76 21.5s40.334 34.333 53.001 60s19 54.5 19 86.5v274h85v-394c0 -33.333 3 -68.666 9 -105.999h-78c-6 29.333 -9.33301 59 -10 89h-3
c-14.667 -30.667 -37.167 -54.834 -67.5 -72.501s-64.166 -26.5 -101.499 -26.5c-57.333 0 -100.833 18.667 -130.5 56zM193.998 786h70l47 -103h-54zM141.998 568.5c-10 9.66699 -15 21.834 -15 36.501s4.83301 26.834 14.5 36.501s22.167 14.5 37.5 14.5
c14.667 0 27 -4.83301 37 -14.5s15 -21.834 15 -36.501s-5 -26.834 -15 -36.501s-22.333 -14.5 -37 -14.5s-27 4.83301 -37 14.5zM341.998 568.5c-10 9.66699 -15 21.834 -15 36.501s5 26.834 15 36.501s22.333 14.5 37 14.5c15.333 0 27.833 -4.83301 37.5 -14.5
s14.5 -21.834 14.5 -36.501s-5 -26.834 -15 -36.501s-22.333 -14.5 -37 -14.5s-27 4.83301 -37 14.5z" />
    <glyph glyph-name="Gcaron" unicode="&#x1e6;" horiz-adv-x="636" 
d="M575 362v-362h-62l-15 44c-22 -17.333 -47.833 -30.666 -77.5 -39.999s-61.167 -14 -94.5 -14c-60 0 -112 14.5 -156 43.5s-77.667 70.5 -101 124.5s-35 118 -35 192c0 72.667 12.5 136 37.5 190s60.333 95.833 106 125.5s99.167 44.5 160.5 44.5
c52 0 98 -9.66699 138 -29s69.333 -46 88 -80l-51 -51c-17.333 27.333 -40.833 48.166 -70.5 62.499s-64.167 21.5 -103.5 21.5c-66.667 0 -118.667 -25 -156 -75s-56 -119.667 -56 -209c0 -90.667 18.167 -161.334 54.5 -212.001s87.166 -76 152.499 -76
c30.667 0 58.834 4.33301 84.501 13s47.5 21.334 65.5 38.001v181h-167v68h258zM196 897h74l67 -88l67 88h74l-112 -143h-58z" />
    <glyph glyph-name="gcaron" unicode="&#x1e7;" horiz-adv-x="541" 
d="M480 500l0.000976562 -484.001c0 -80 -19.667 -140.667 -59 -182s-97 -62 -173 -62c-33.333 0 -65.833 4 -97.5 12s-60.167 19.333 -85.5 34l28 62c50 -24 100.667 -36 152 -36c104 0 156 61.667 156 185v46c-13.333 -25.333 -33.666 -45.333 -60.999 -60
s-58.333 -22 -93 -22c-66 0 -118 23.667 -156 71s-57 112 -57 194c0 78.667 18.667 140.334 56 185.001s88.666 67 153.999 67c34.667 0 65.167 -7 91.5 -21s47.166 -34.333 62.499 -61h2l10 72h70zM395.001 282.999c0 50.667 -12 90.333 -36 119s-57.333 43 -100 43
c-43.333 0 -77.5 -16.833 -102.5 -50.5s-37.5 -79.834 -37.5 -138.501c0 -61.333 12.333 -109.166 37 -143.499s59 -51.5 103 -51.5c42.667 0 76 12.833 100 38.5s36 61.5 36 107.5v76zM114.001 696.998h74l67 -88l67 88h74l-112 -143h-58z" />
    <glyph glyph-name="Aringacute" unicode="&#x1fa;" horiz-adv-x="596" 
d="M339 920h-62l51 103h77zM229.5 743c-17.667 16.667 -26.5 38 -26.5 64s8.83301 47.333 26.5 64s40.5 25 68.5 25s50.833 -8.33301 68.5 -25s26.5 -38 26.5 -64s-8.83301 -47.333 -26.5 -64s-40.5 -25 -68.5 -25s-50.833 8.33301 -68.5 25zM262 843.5
c-9.33301 -9.66699 -14 -21.834 -14 -36.501s4.66699 -26.834 14 -36.501s21.333 -14.5 36 -14.5s26.667 4.83301 36 14.5s14 21.834 14 36.501s-4.66699 26.834 -14 36.501s-21.333 14.5 -36 14.5s-26.667 -4.83301 -36 -14.5zM434 151h-272l-47 -151h-98l238 700h86
l238 -700h-98zM410 226l-112 359l-112 -359h224z" />
    <glyph glyph-name="aringacute" unicode="&#x1fb;" horiz-adv-x="514" 
d="M278 848h77l-66 -104h-62zM185.5 563c-17.667 16.667 -26.5 38 -26.5 64s8.83301 47.333 26.5 64s40.5 25 68.5 25s50.833 -8.33301 68.5 -25s26.5 -38 26.5 -64s-8.83301 -47.333 -26.5 -64s-40.5 -25 -68.5 -25s-50.833 8.33301 -68.5 25zM290 590.5
c9.33301 9.66699 14 21.834 14 36.501s-4.66699 26.834 -14 36.501s-21.333 14.5 -36 14.5s-26.667 -4.83301 -36 -14.5s-14 -21.834 -14 -36.501s4.66699 -26.834 14 -36.501s21.333 -14.5 36 -14.5s26.667 4.83301 36 14.5zM87 33
c-31.333 28.667 -47.0029 65.667 -47.0029 111c0 50 18.833 88.667 56.5 116s91.167 41 160.5 41h103v26c0 37.333 -9.83301 65.833 -29.5 85.5s-48.167 29.5 -85.5 29.5c-30 0 -57.5 -6.16699 -82.5 -18.5s-45.833 -30.166 -62.5 -53.499l-43 52
c22.667 28.667 50.334 50.5 83.001 65.5s69 22.5 109 22.5c62.667 0 111 -15.333 145 -46s51 -74.667 51 -132v-235c0 -26 4 -58.333 12 -97h-74c-6 15.333 -10.333 38.666 -13 69.999h-2c-18.667 -26 -41.667 -45.833 -69 -59.5s-57.666 -20.5 -90.999 -20.5
c-49.333 0 -89.666 14.333 -120.999 43zM290.997 71.5c21.333 9.66699 38.168 22.835 50.501 39.502s18.5 35 18.5 55v74h-106c-42 0 -74.333 -8.33301 -97 -25s-34 -40.334 -34 -71.001c0 -26.667 8.83301 -47.834 26.5 -63.501s41.5 -23.5 71.5 -23.5
c25.333 0 48.666 4.83301 69.999 14.5z" />
    <glyph glyph-name="AEacute" unicode="&#x1fc;" horiz-adv-x="800" 
d="M466 625v-220h249v-75h-249v-255h283v-75h-375v144h-192l-63 -144h-102l326 700h406v-75h-283zM374 216v365l-160 -365h160zM505 900h87l-97 -146h-68z" />
    <glyph glyph-name="aeacute" unicode="&#x1fd;" horiz-adv-x="830" 
d="M794 233l-356.001 -0.00292969c2.66699 -55.333 16.834 -97.666 42.501 -126.999s61.167 -44 106.5 -44c58 0 104.667 23.667 140 71l48 -46c-19.333 -30.667 -45.666 -54.5 -78.999 -71.5s-70.666 -25.5 -111.999 -25.5c-81.333 0 -142.333 28.667 -183 86
c-20.667 -26 -47.5 -46.833 -80.5 -62.5s-68.167 -23.5 -105.5 -23.5c-52 0 -94.167 13.833 -126.5 41.5s-48.5 63.834 -48.5 108.501c0 48.667 17.667 86.5 53 113.5s85 40.5 149 40.5h112v33c0 37.333 -9.5 65.833 -28.5 85.5s-46.833 29.5 -83.5 29.5
c-30 0 -57.333 -6.16699 -82 -18.5s-45 -30.166 -61 -53.499l-42 52c22 28.667 49.167 50.5 81.5 65.5s68.166 22.5 107.499 22.5c38 0 71.167 -6.5 99.5 -19.5s50.166 -31.5 65.499 -55.5c41.333 50 98.333 75 171 75c68 0 120.333 -21.167 157 -63.5
s55 -102.833 55 -181.5v-32zM710.999 298.997c0 46.667 -11.332 81.999 -33.999 105.999s-55.667 36 -99 36c-38.667 0 -69.834 -12.667 -93.501 -38s-38.5 -61.666 -44.5 -108.999h271v5zM354 232.996l-104.001 -0.00195312c-40 0 -71.333 -8.16699 -94 -24.5
s-34 -39.166 -34 -68.499c0 -24.667 8.83301 -44.667 26.5 -60s41.167 -23 70.5 -23c24.667 0 47.334 4.83301 68.001 14.5s37 22.834 49 39.501s18 35 18 55v67zM463.999 699.994h87l-97 -146h-68z" />
    <glyph glyph-name="Oslashacute" unicode="&#x1fe;" horiz-adv-x="661" 
d="M600 519.5c18 -49.667 26.999 -106.164 26.999 -169.497c0 -73.333 -12 -137.166 -36 -191.499s-58.167 -96 -102.5 -125s-96.833 -43.5 -157.5 -43.5c-51.333 0 -97.333 10.667 -138 32l-35 -65h-73l54 103c-34 31.333 -60 71.666 -78 120.999s-27 105.666 -27 168.999
c0 73.333 12 137.166 36 191.499s58.333 96 103 125s97.334 43.5 158.001 43.5c50 0 95 -10.333 135 -31l24 46h77l-45 -85c34 -30.667 60 -70.834 78 -120.501zM181.999 140.003l247.001 469c-28 18 -60.667 27 -98 27c-42 0 -78.333 -11.667 -109 -35
s-54.334 -56.5 -71.001 -99.5s-25 -93.5 -25 -151.5c0 -88 18.667 -158 56 -210zM439.5 99.0029c31 23.333 54.667 56.5 71 99.5s24.5 93.5 24.5 151.5c0 89.333 -18.667 159.333 -56 210l-249 -467c29.333 -19.333 63 -29 101 -29c41.333 0 77.5 11.667 108.5 35z
M379 900.003h87l-97 -146h-68z" />
    <glyph glyph-name="oslashacute" unicode="&#x1ff;" horiz-adv-x="557" 
d="M497 376.5c16 -36.333 24.001 -78.5 24.001 -126.5c0 -80 -21.833 -143.333 -65.5 -190s-102.834 -70 -177.501 -70c-35.333 0 -66.666 5.33301 -93.999 16l-26 -49h-64l39 75c-31.333 22 -55.333 51.5 -72 88.5s-25 80.167 -25 129.5c0 52.667 9.83301 98.667 29.5 138
s47.667 69.5 84 90.5s79.166 31.5 128.499 31.5c35.333 0 68 -5.66699 98 -17l22 42h68l-38 -71c30 -22 53 -51.167 69 -87.5zM169.001 100l175 332.001c-21.333 8.66699 -43.333 13 -66 13c-48.667 0 -87 -17.333 -115 -52s-42 -82.334 -42 -143.001c0 -66 16 -116 48 -150
zM394.001 107.001c28 34.667 42 82.333 42 143c0 62 -14.667 110.333 -44 145l-176 -328c19.333 -8 40 -12 62 -12c49.333 0 88 17.333 116 52zM326.001 700h87l-97 -146h-68z" />
    <glyph glyph-name="uni0218" unicode="&#x218;" horiz-adv-x="529" 
d="M133.5 19c-39.667 19.333 -71.502 46.002 -95.502 80.002l56 56c20.667 -26.667 46.667 -48.167 78 -64.5s62.333 -24.5 93 -24.5c39.333 0 71.166 10 95.499 30s36.5 46.333 36.5 79c0 21.333 -4.16699 40 -12.5 56s-22.666 31.5 -42.999 46.5
s-49.166 31.5 -86.499 49.5c-71.333 34.667 -121.5 67.5 -150.5 98.5s-43.5 67.167 -43.5 108.5c0 53.333 19.333 96 58 128s90 48 154 48c44.667 0 85.5 -9.66699 122.5 -29s63.833 -45.333 80.5 -78l-60 -44c-16 23.333 -36.667 41.666 -62 54.999s-52 20 -80 20
c-37.333 0 -66.833 -8.83301 -88.5 -26.5s-32.5 -41.5 -32.5 -71.5c0 -18 4 -33.333 12 -46s22.833 -25.834 44.5 -39.501s55.834 -32.167 102.501 -55.5c63.333 -31.333 108.666 -63.5 135.999 -96.5s41 -71.833 41 -116.5c0 -38 -9.5 -71.5 -28.5 -100.5
s-45.667 -51.5 -80 -67.5s-74.166 -24 -119.499 -24s-87.833 9.66699 -127.5 29zM309.998 -90.498c10.667 -12.333 16 -28.166 16 -47.499c0 -22 -5.83301 -45.667 -17.5 -71s-26.834 -47.333 -45.501 -66l-36 26l16.5 24.5c9.66699 14.333 16.834 29.166 21.501 44.499h-2
c-15.333 0 -28 4.83301 -38 14.5s-15 22.5 -15 38.5s5 29.167 15 39.5s23.333 15.5 40 15.5c19.333 0 34.333 -6.16699 45 -18.5z" />
    <glyph glyph-name="uni0219" unicode="&#x219;" horiz-adv-x="416" 
d="M98.5 13c-30.333 15.333 -51.834 35.665 -64.501 60.998l55 38c11.333 -18 27 -32 47 -42s41.667 -15 65 -15c28 0 51.167 8.16699 69.5 24.5s27.5 36.833 27.5 61.5c0 20 -7.33301 36.667 -22 50s-40.667 27 -78 41c-56.667 20.667 -96.5 42.334 -119.5 65.001
s-34.5 50.667 -34.5 84c0 38.667 15.333 69.834 46 93.501s71.334 35.5 122.001 35.5c32.667 0 62.5 -7 89.5 -21s47.833 -33.333 62.5 -58l-52 -38c-23.333 34.667 -56.666 52 -99.999 52c-24.667 0 -44.834 -5.66699 -60.501 -17s-23.5 -26 -23.5 -44s8 -33.167 24 -45.5
s45.667 -26.833 89 -43.5c51.333 -19.333 87.666 -40.5 108.999 -63.5s32 -52.167 32 -87.5c0 -46.667 -16.667 -84 -50 -112s-77.333 -42 -132 -42c-37.333 0 -71.166 7.66699 -101.499 23zM253.999 -90.501c10.667 -12.333 16 -28.166 16 -47.499
c0 -22 -5.83301 -45.667 -17.5 -71s-26.834 -47.333 -45.501 -66l-36 26l16.5 24.5c9.66699 14.333 16.834 29.166 21.501 44.499h-2c-15.333 0 -28 4.83301 -38 14.5s-15 22.5 -15 38.5s5 29.167 15 39.5s23.333 15.5 40 15.5c19.333 0 34.333 -6.16699 45 -18.5z" />
    <glyph glyph-name="uni021A" unicode="&#x21a;" horiz-adv-x="558" 
d="M233 628h-216v72h523v-72h-215v-628h-92v628zM324 -90.5c10.667 -12.333 16 -28.166 16 -47.499c0 -22 -5.83301 -45.667 -17.5 -71s-26.834 -47.333 -45.501 -66l-36 26l16.5 24.5c9.66699 14.333 16.834 29.166 21.501 44.499h-2c-15.333 0 -28 4.83301 -38 14.5
s-15 22.5 -15 38.5s5 29.167 15 39.5s23.333 15.5 40 15.5c19.333 0 34.333 -6.16699 45 -18.5z" />
    <glyph glyph-name="uni021B" unicode="&#x21b;" horiz-adv-x="377" 
d="M138 32.5c-25.333 28.333 -38.001 67.5 -38.001 117.5v284h-90v66h90v133l81 25h4v-158h142v-66h-142v-276c0 -34 6.33301 -59.167 19 -75.5s32.334 -24.5 59.001 -24.5c28.667 0 52 3.66699 70 11l6 -63c-22 -10.667 -54.333 -16 -97 -16
c-44 0 -78.667 14.167 -104 42.5zM276.999 -90.5c10.667 -12.333 16 -28.166 16 -47.499c0 -22 -5.83301 -45.667 -17.5 -71s-26.834 -47.333 -45.501 -66l-36 26l16.5 24.5c9.66699 14.333 16.834 29.166 21.501 44.499h-2c-15.333 0 -28 4.83301 -38 14.5
s-15 22.5 -15 38.5s5 29.167 15 39.5s23.333 15.5 40 15.5c19.333 0 34.333 -6.16699 45 -18.5z" />
    <glyph glyph-name="uni0237" unicode="&#x237;" horiz-adv-x="247" 
d="M-48 -183l3 63c10.667 -1.33301 24 -2 40 -2c33.333 0 57 10 71 30s21 51.333 21 94v498h85v-501c0 -62 -12.667 -109 -38 -141s-65 -48 -119 -48c-20.667 0 -41.667 2.33301 -63 7z" />
    <glyph glyph-name="uni0251" unicode="&#x251;" horiz-adv-x="536" 
d="M89.5 62.5c-37 48.333 -55.501 113.833 -55.501 196.5c0 76.667 18.667 137.667 56 183s88 68 152 68c64.667 0 113.334 -25.667 146.001 -77h2v67h84v-374c0 -60.667 1 -102.667 3 -126h-78c-2 28.667 -2.66699 55 -2 79h-2c-15.333 -28 -36.833 -49.833 -64.5 -65.5
s-57.5 -23.5 -89.5 -23.5c-64 0 -114.5 24.167 -151.5 72.5zM352.999 96.5c24.667 25.667 37 60.167 37 103.5v91c0 46 -12.5 83.167 -37.5 111.5s-58.167 42.5 -99.5 42.5c-42.667 0 -75.834 -16.667 -99.501 -50s-35.5 -79.333 -35.5 -138
c0 -61.333 11.833 -109.833 35.5 -145.5s56.834 -53.5 99.501 -53.5c42 0 75.333 12.833 100 38.5z" />
    <glyph glyph-name="uni0259" unicode="&#x259;" horiz-adv-x="518" 
d="M421 442c40.667 -45.333 61.002 -109.001 61.002 -191.001c0 -81.333 -20.5 -145.166 -61.5 -191.499s-97.5 -69.5 -169.5 -69.5c-67.333 0 -120 22.833 -158 68.5s-57 109.5 -57 191.5v33h360c-4.66699 50.667 -19.667 89.167 -45 115.5s-60.333 39.5 -105 39.5
c-60 0 -107.667 -23.667 -143 -71l-48 46c19.333 30.667 46.166 54.5 80.499 71.5s72.166 25.5 113.499 25.5c74 0 131.333 -22.667 172 -68zM353.502 100.999c24.333 28 38.501 67.667 42.501 119h-282v-7c0 -48 12.5 -85.667 37.5 -113s59.5 -41 103.5 -41
c41.333 0 74.166 14 98.499 42z" />
    <glyph glyph-name="uni02BB" unicode="&#x2bb;" horiz-adv-x="200" 
d="M142.5 648c9.66699 -10 14.501 -22.666 14.501 -37.999c0 -16.667 -4.83301 -30.167 -14.5 -40.5s-22.834 -15.5 -39.501 -15.5c-19.333 0 -34.5 6.16699 -45.5 18.5s-16.5 28.166 -16.5 47.499c0 22 5.83301 45.5 17.5 70.5s27.167 47.167 46.5 66.5l36 -26
c-19.333 -27.333 -32.333 -50 -39 -68h3c15.333 0 27.833 -5 37.5 -15z" />
    <glyph glyph-name="uni02BC" unicode="&#x2bc;" horiz-adv-x="200" 
d="M145 716.5c10.667 -12.333 16 -28.167 16 -47.5c0 -22 -5.83301 -45.667 -17.5 -71s-26.834 -47.333 -45.501 -66l-36 26c1.33301 2.66699 6.83301 11 16.5 25s16.834 28.333 21.501 43h-2c-15.333 0 -28 5 -38 15s-15 22.667 -15 38c0 16.667 5 30.167 15 40.5
s23.333 15.5 40 15.5c19.333 0 34.333 -6.16699 45 -18.5z" />
    <glyph glyph-name="uni02BE" unicode="&#x2be;" 
d="M0 576c14.667 0 26.667 4.83105 36 14.498s14 21.834 14 36.501s-4.66699 26.834 -14 36.501s-21.333 14.5 -36 14.5v38c28 0 50.833 -8.33301 68.5 -25s26.5 -38 26.5 -64s-8.83301 -47.333 -26.5 -64s-40.5 -25 -68.5 -25v38z" />
    <glyph glyph-name="uni02BF" unicode="&#x2bf;" 
d="M-68.5 563c-17.667 16.667 -26.5 38.002 -26.5 64.002s8.83301 47.333 26.5 64s40.5 25 68.5 25v-38c-14.667 0 -26.667 -4.83301 -36 -14.5s-14 -21.834 -14 -36.501s4.66699 -26.834 14 -36.501s21.333 -14.5 36 -14.5v-38c-28 0 -50.833 8.33301 -68.5 25z" />
    <glyph glyph-name="circumflex" unicode="&#x2c6;" horiz-adv-x="400" 
d="M171 697h58l112 -143h-74l-67 88l-67 -88h-74z" />
    <glyph glyph-name="caron" unicode="&#x2c7;" horiz-adv-x="400" 
d="M59 697h74l67 -88l67 88h74l-112 -143h-58z" />
    <glyph glyph-name="uni02C8" unicode="&#x2c8;" 
d="M-46 740h92v-160h-92v160z" />
    <glyph glyph-name="uni02C9" unicode="&#x2c9;" horiz-adv-x="505" 
d="M67 665h371v-57h-371v57z" />
    <glyph glyph-name="uni02CA" unicode="&#x2ca;" 
d="M-103 599l115 106.999c18.667 17.333 36.667 26 54 26c13.333 0 24 -3.66699 32 -11s12 -17 12 -29c0 -19.333 -13.333 -36.666 -40 -51.999l-143 -82z" />
    <glyph glyph-name="uni02CB" unicode="&#x2cb;" 
d="M-62 640c-26.667 15.333 -40 32.667 -40 52c0 12 3.83301 21.667 11.5 29s18.167 11 31.5 11c18.667 0 37 -8.33301 55 -25l115 -108l-30 -41z" />
    <glyph glyph-name="uni02CC" unicode="&#x2cc;" 
d="M-46 -40h92v-160h-92v160z" />
    <glyph glyph-name="breve" unicode="&#x2d8;" horiz-adv-x="400" 
d="M96.5 587.5c-25.667 22.333 -39.5 55.5 -41.5 99.5h54c1.33301 -23.333 9.66602 -41.833 24.999 -55.5s37.333 -20.5 66 -20.5c26.667 0 48 6.33301 64 19s25 31.667 27 57h54c-1.33301 -41.333 -14.166 -73.833 -38.499 -97.5s-59.833 -35.5 -106.5 -35.5
c-43.333 0 -77.833 11.167 -103.5 33.5z" />
    <glyph glyph-name="dotaccent" unicode="&#x2d9;" horiz-adv-x="400" 
d="M163 568.5c-10 9.66699 -15 21.834 -15 36.501s4.83301 26.834 14.5 36.501s22.167 14.5 37.5 14.5s27.833 -4.83301 37.5 -14.5s14.5 -21.834 14.5 -36.501s-5 -26.834 -15 -36.501s-22.333 -14.5 -37 -14.5s-27 4.83301 -37 14.5z" />
    <glyph glyph-name="ring" unicode="&#x2da;" horiz-adv-x="400" 
d="M131.5 563c-17.667 16.667 -26.5 38 -26.5 64s8.83301 47.333 26.5 64s40.5 25 68.5 25s50.833 -8.33301 68.5 -25s26.5 -38 26.5 -64s-8.83301 -47.333 -26.5 -64s-40.5 -25 -68.5 -25s-50.833 8.33301 -68.5 25zM236 590.5c9.33301 9.66699 14 21.834 14 36.501
s-4.66699 26.834 -14 36.501s-21.333 14.5 -36 14.5s-26.667 -4.83301 -36 -14.5s-14 -21.834 -14 -36.501s4.66699 -26.834 14 -36.501s21.333 -14.5 36 -14.5s26.667 4.83301 36 14.5z" />
    <glyph glyph-name="ogonek" unicode="&#x2db;" horiz-adv-x="400" 
d="M131.5 -188.5c-17.667 15 -26.5 37.502 -26.5 67.502c0 52 31.667 93.667 95 125h57c-60 -38.667 -90 -76.334 -90 -113.001c0 -14.667 5.16699 -26.334 15.5 -35.001s26.166 -13 47.499 -13c14 0 31.667 4 53 12l11 -36c-25.333 -20 -55.666 -30 -90.999 -30
c-30 0 -53.833 7.5 -71.5 22.5z" />
    <glyph glyph-name="tilde" unicode="&#x2dc;" horiz-adv-x="400" 
d="M80 627c14.667 18.667 34.3311 27.999 58.998 27.999c12 0 22.833 -2 32.5 -6s23.5 -11 41.5 -21c20.667 -13.333 36.334 -20 47.001 -20c18 0 28 17 30 51h52c0 -31.333 -7.83301 -56.666 -23.5 -75.999s-35.5 -29 -59.5 -29c-12.667 0 -24.667 2.5 -36 7.5
s-25 12.167 -41 21.5c-19.333 12 -33 18 -41 18c-8.66699 0 -16 -4.16699 -22 -12.5s-9.33301 -19.833 -10 -34.5h-52c0.666992 30 8.33398 54.333 23.001 73z" />
    <glyph glyph-name="hungarumlaut" unicode="&#x2dd;" horiz-adv-x="400" 
d="M131 705h86l-103 -151h-68zM274 705h87l-103 -151h-69z" />
    <glyph glyph-name="gravecomb" unicode="&#x300;" 
d="M-131 700h87l78 -146h-68z" />
    <glyph glyph-name="acutecomb" unicode="&#x301;" 
d="M48 700h87l-97 -146h-68z" />
    <glyph glyph-name="uni0302" unicode="&#x302;" 
d="M-29 697h58l112 -143h-74l-67 88l-67 -88h-74z" />
    <glyph glyph-name="tildecomb" unicode="&#x303;" 
d="M-123.5 627c15 18.667 34.501 28 58.501 28c12 0 22.833 -2 32.5 -6s23.5 -11 41.5 -21c20.667 -13.333 36.334 -20 47.001 -20c9.33301 0 16.5 4 21.5 12s8.16699 21 9.5 39h52c-0.666992 -32 -8.66699 -57.5 -24 -76.5s-35.333 -28.5 -60 -28.5
c-12.667 0 -24.667 2.5 -36 7.5s-25 12.167 -41 21.5c-19.333 12 -33 18 -41 18c-8.66699 0 -15.834 -4.16699 -21.501 -12.5s-8.83398 -19.833 -9.50098 -34.5h-52c0 30 7.5 54.333 22.5 73z" />
    <glyph glyph-name="uni0304" unicode="&#x304;" 
d="M-156 623h312v-59h-312v59z" />
    <glyph glyph-name="uni0306" unicode="&#x306;" 
d="M-103.5 587.5c-25.667 22.333 -39.5 55.5 -41.5 99.5h54c1.33301 -23.333 9.66602 -41.833 24.999 -55.5s37.333 -20.5 66 -20.5c26.667 0 48 6.33301 64 19s25 31.667 27 57h54c-1.33301 -41.333 -14.166 -73.833 -38.499 -97.5s-59.833 -35.5 -106.5 -35.5
c-43.333 0 -77.833 11.167 -103.5 33.5z" />
    <glyph glyph-name="uni0307" unicode="&#x307;" 
d="M-37 568.5c-10 9.66699 -15 21.834 -15 36.501s4.83301 26.834 14.5 36.501s22.167 14.5 37.5 14.5s27.833 -4.83301 37.5 -14.5s14.5 -21.834 14.5 -36.501s-5 -26.834 -15 -36.501s-22.333 -14.5 -37 -14.5s-27 4.83301 -37 14.5z" />
    <glyph glyph-name="uni0308" unicode="&#x308;" 
d="M-137 568.5c-10 9.66699 -15 21.834 -15 36.501s4.83301 26.834 14.5 36.501s22.167 14.5 37.5 14.5c14.667 0 27 -4.83301 37 -14.5s15 -21.834 15 -36.501s-5 -26.834 -15 -36.501s-22.333 -14.5 -37 -14.5s-27 4.83301 -37 14.5zM63 568.5
c-10 9.66699 -15 21.834 -15 36.501s5 26.834 15 36.501s22.333 14.5 37 14.5c15.333 0 27.833 -4.83301 37.5 -14.5s14.5 -21.834 14.5 -36.501s-5 -26.834 -15 -36.501s-22.333 -14.5 -37 -14.5s-27 4.83301 -37 14.5z" />
    <glyph glyph-name="hookabovecomb" unicode="&#x309;" 
d="M-23.5 594.5c7 10.333 16.832 21.167 29.499 32.5c11.333 11.333 19.5 20.5 24.5 27.5s7.5 15.833 7.5 26.5c0 21.333 -13.667 32 -41 32c-26 0 -47 -15 -63 -45l-38 34c10 19.333 24.333 34.5 43 45.5s40.334 16.5 65.001 16.5c30 0 53.833 -6.83301 71.5 -20.5
s26.5 -33.5 26.5 -59.5c0 -16 -3.5 -29.667 -10.5 -41s-17.167 -24 -30.5 -38c-10.667 -10.667 -18.5 -19.667 -23.5 -27s-7.5 -15.333 -7.5 -24h-64c0 16.667 3.5 30.167 10.5 40.5z" />
    <glyph glyph-name="uni030A" unicode="&#x30a;" 
d="M-68.5 563c-17.667 16.667 -26.5 38 -26.5 64s8.83301 47.333 26.5 64s40.5 25 68.5 25s50.833 -8.33301 68.5 -25s26.5 -38 26.5 -64s-8.83301 -47.333 -26.5 -64s-40.5 -25 -68.5 -25s-50.833 8.33301 -68.5 25zM36 590.5c9.33301 9.66699 14 21.834 14 36.501
s-4.66699 26.834 -14 36.501s-21.333 14.5 -36 14.5s-26.667 -4.83301 -36 -14.5s-14 -21.834 -14 -36.501s4.66699 -26.834 14 -36.501s21.333 -14.5 36 -14.5s26.667 4.83301 36 14.5z" />
    <glyph glyph-name="uni030B" unicode="&#x30b;" 
d="M-38 700h86l-96 -146h-69zM92 700h86l-96 -146h-69z" />
    <glyph glyph-name="uni030C" unicode="&#x30c;" 
d="M-141 697h74l67 -88l67 88h74l-112 -143h-58z" />
    <glyph glyph-name="uni031B" unicode="&#x31b;" 
d="M-90 353c33.333 20.667 57 43 71 67s21 55 21 93v37h76v-37c0 -51.333 -16 -95.5 -48 -132.5s-72 -60.5 -120 -70.5v43z" />
    <glyph glyph-name="dotbelowcomb" unicode="&#x323;" 
d="M-37.5 -159.5c-9.66699 9.66699 -14.5 21.834 -14.5 36.501s4.83301 26.834 14.5 36.501s22.167 14.5 37.5 14.5s27.833 -4.83301 37.5 -14.5s14.5 -21.834 14.5 -36.501s-4.83301 -26.834 -14.5 -36.501s-22.167 -14.5 -37.5 -14.5s-27.833 4.83301 -37.5 14.5z" />
    <glyph glyph-name="uni0324" unicode="&#x324;" 
d="M-144.5 -159.5c-9.66699 9.66699 -14.5 21.834 -14.5 36.501s4.83301 26.834 14.5 36.501s22.167 14.5 37.5 14.5s27.833 -4.83301 37.5 -14.5s14.5 -21.834 14.5 -36.501s-4.83301 -26.834 -14.5 -36.501s-22.167 -14.5 -37.5 -14.5s-27.833 4.83301 -37.5 14.5z
M69.5 -159.5c-9.66699 9.66699 -14.5 21.834 -14.5 36.501s4.83301 26.834 14.5 36.501s22.167 14.5 37.5 14.5s27.833 -4.83301 37.5 -14.5s14.5 -21.834 14.5 -36.501s-4.83301 -26.834 -14.5 -36.501s-22.167 -14.5 -37.5 -14.5s-27.833 4.83301 -37.5 14.5z" />
    <glyph glyph-name="uni0326" unicode="&#x326;" 
d="M45 -90.5c10.667 -12.333 16 -28.166 16 -47.499c0 -22 -5.83301 -45.667 -17.5 -71s-26.834 -47.333 -45.501 -66l-36 26l16.5 24.5c9.66699 14.333 16.834 29.166 21.501 44.499h-2c-15.333 0 -28 4.83301 -38 14.5s-15 22.5 -15 38.5s5 29.167 15 39.5
s23.333 15.5 40 15.5c19.333 0 34.333 -6.16699 45 -18.5z" />
    <glyph glyph-name="uni0327" unicode="&#x327;" 
d="M-57 -217.5c-14.667 2.33301 -26 5.5 -34 9.5l8 39c15.333 -4.66699 34 -7 56 -7c16 0 29.167 3.5 39.5 10.5s15.5 17.167 15.5 30.5c0 12 -6.66699 21.333 -20 28s-32.333 9.66699 -57 9l-20 22l50 89h55l-39 -75c27.333 0 49.333 -6.16699 66 -18.5
s25 -29.833 25 -52.5c0 -26.667 -9.16699 -48 -27.5 -64s-43.5 -24 -75.5 -24c-13.333 0 -27.333 1.16699 -42 3.5z" />
    <glyph glyph-name="uni0328" unicode="&#x328;" 
d="M-86.5 -188.5c-17.667 15 -26.499 37.499 -26.499 67.499c0 52.667 31.667 94.667 95 126h48v-5c-54 -37.333 -81 -73.666 -81 -108.999c0 -14.667 5.16699 -26.334 15.5 -35.001s26.166 -13 47.499 -13c14.667 0 32 4 52 12l11 -36
c-11.333 -9.33301 -24.833 -16.666 -40.5 -21.999s-32.167 -8 -49.5 -8c-30 0 -53.833 7.5 -71.5 22.5z" />
    <glyph glyph-name="uni032E" unicode="&#x32e;" 
d="M-103.5 -171c-25.667 22 -39.5 54.999 -41.5 98.999h54c1.33301 -23.333 9.66602 -41.833 24.999 -55.5s37.333 -20.5 66 -20.5c26.667 0 48 6.33301 64 19s25 31.667 27 57h54c-1.33301 -41.333 -14.166 -73.666 -38.499 -96.999s-59.833 -35 -106.5 -35
c-43.333 0 -77.833 11 -103.5 33z" />
    <glyph glyph-name="uni0331" unicode="&#x331;" 
d="M-156 -64h312v-59h-312v59z" />
    <glyph glyph-name="uni0394" unicode="&#x394;" horiz-adv-x="648" 
d="M5 48l303 652h32l303 -652v-48h-638v48zM545 70l-221 495l-221 -495h442z" />
    <glyph glyph-name="uni03A9" unicode="&#x3a9;" horiz-adv-x="773" 
d="M43 72l176.999 -0.000976562c-49.333 35.333 -88 81.833 -116 139.5s-42 118.834 -42 183.501s13.167 120.667 39.5 168s63.833 83.666 112.5 108.999s106.334 38 173.001 38s124.334 -12.667 173.001 -38s86 -61.666 112 -108.999s39 -103.333 39 -168
s-14 -125.834 -42 -183.501s-66.333 -104.167 -115 -139.5h176v-72h-282v88c53.333 20 95.166 56.833 125.499 110.5s45.5 116.834 45.5 189.501c0 76.667 -20.667 136.834 -62 180.501s-98 65.5 -170 65.5s-128.833 -21.833 -170.5 -65.5s-62.5 -103.834 -62.5 -180.501
c0 -74 15.333 -137.667 46 -191s72.667 -89.333 126 -108v-89h-283v72z" />
    <glyph glyph-name="uni03BC" unicode="&#x3bc;" horiz-adv-x="552" 
d="M61 500l83.999 -0.000976562v-290c0 -48 9.66699 -85.333 29 -112s48 -40 86 -40c42 0 76.167 16.167 102.5 48.5s39.5 73.5 39.5 123.5v270h85v-394c0 -31.333 3 -66.666 9 -105.999h-77c-5.33301 20.667 -9 48 -11 82h-3c-30 -61.333 -78.333 -92 -145 -92
c-23.333 0 -45.166 4 -65.499 12s-36.833 20 -49.5 36v-253h-84v715z" />
    <glyph glyph-name="pi" unicode="&#x3c0;" horiz-adv-x="663" 
d="M469 14.5c-14.667 16.333 -22 41.833 -22 76.5v343h-241v-434h-85v434h-96v66h603v-66h-96v-331c0 -28 12.333 -42 37 -42c14.667 0 30.667 3.33301 48 10v-60c-26.667 -14 -53 -21 -79 -21c-31.333 0 -54.333 8.16699 -69 24.5z" />
    <glyph glyph-name="uni0E01" unicode="&#xe01;" horiz-adv-x="576" 
d="M77 252c0 24.667 6.5 47 19.5 67s30.833 35 53.5 45c-26.667 9.33301 -62.334 15 -107.001 17c2.66699 40.667 14.334 76.5 35.001 107.5s48.667 55 84 72s75.666 25.5 120.999 25.5c66 0 119 -18.333 159 -55s60 -85.667 60 -147v-384h-85v376
c0 43.333 -12.667 77.666 -38 102.999s-59.666 38 -102.999 38c-35.333 0 -66.5 -8.16699 -93.5 -24.5s-45.833 -38.5 -56.5 -66.5c24 -2.66699 46.667 -8.66699 68 -18s37.666 -20 48.999 -32v-18c-25.333 -7.33301 -45.166 -20.166 -59.499 -38.499
s-21.5 -39.833 -21.5 -64.5v-255h-85v252z" />
    <glyph glyph-name="uni0E02" unicode="&#xe02;" horiz-adv-x="594" 
d="M520 576l0.000976562 -445.003c0 -45.333 -13.833 -80.166 -41.5 -104.499s-67.5 -36.5 -119.5 -36.5s-91.667 12.167 -119 36.5s-41 59.166 -41 104.499v111c0 18 3.16699 34 9.5 48s15.833 31.667 28.5 53c12.667 19.333 22.5 36.833 29.5 52.5
s10.5 32.834 10.5 51.501c0 26.667 -8.33301 46.334 -25 59.001s-38.334 19 -65.001 19c-32.667 0 -58.334 -8.33301 -77.001 -25c3.33301 1.33301 8.66602 2 15.999 2c26 0 47.5 -8.5 64.5 -25.5s25.5 -39.5 25.5 -67.5c0 -27.333 -8.66699 -50 -26 -68s-41 -27 -71 -27
c-32 0 -57 10.5 -75 31.5s-27 49.167 -27 84.5c0 44.667 15.167 81.834 45.5 111.501s72.5 44.5 126.5 44.5c48.667 0 88.5 -11.5 119.5 -34.5s46.5 -56.167 46.5 -99.5c0 -22.667 -3.16699 -42.167 -9.5 -58.5s-15.833 -35.833 -28.5 -58.5
c-11.333 -18.667 -19.666 -35 -24.999 -49s-8 -29.333 -8 -46v-113c0 -22 6.5 -38.833 19.5 -50.5s31.833 -17.5 56.5 -17.5s43.334 5.83301 56.001 17.5s19 28.5 19 50.5v449h85zM152.501 440.997c-8.33301 8 -19.166 12 -32.499 12s-24.166 -4 -32.499 -12
s-12.5 -18.667 -12.5 -32s4.16699 -24.166 12.5 -32.499s19.166 -12.5 32.499 -12.5s24.166 4.16699 32.499 12.5s12.5 19.166 12.5 32.499s-4.16699 24 -12.5 32z" />
    </font>
</defs>
</svg>
